<?xml version="1.0" encoding="UTF-8"?>
<svg xmlns="http://www.w3.org/2000/svg" xmlns:xlink="http://www.w3.org/1999/xlink" width="1920" height="1080" viewBox="0 0 1920 1080">
<defs>
<g>
<g id="glyph-0-0">
<path d="M 2.933594 0 L 2.933594 -9.570312 L 0.898438 -8.347656 L 0.898438 -9.585938 L 2.933594 -10.800781 L 4.050781 -10.800781 L 4.050781 0 Z "/>
</g>
<g id="glyph-0-1">
<path d="M 1.253906 0 L 1.261719 -1.28125 L 2.535156 -1.273438 L 2.542969 0 Z "/>
</g>
<g id="glyph-0-2">
</g>
<g id="glyph-0-3">
<path d="M 1.050781 0 L 1.050781 -10.800781 L 7.246094 -10.800781 L 7.253906 -9.699219 L 2.144531 -9.703125 L 2.152344 -5.949219 L 6.34375 -5.949219 L 6.351562 -4.851562 L 2.144531 -4.851562 L 2.152344 0 Z "/>
</g>
<g id="glyph-0-4">
<path d="M 4.476562 0.226562 C 3.6875 0.226562 3.003906 0.0507812 2.425781 -0.300781 C 1.847656 -0.648438 1.398438 -1.140625 1.078125 -1.777344 C 0.761719 -2.414062 0.601562 -3.15625 0.601562 -4.011719 C 0.601562 -4.898438 0.757812 -5.664062 1.074219 -6.308594 C 1.386719 -6.953125 1.832031 -7.449219 2.402344 -7.800781 C 2.976562 -8.148438 3.652344 -8.324219 4.433594 -8.324219 C 5.234375 -8.324219 5.914062 -8.140625 6.480469 -7.773438 C 7.046875 -7.40625 7.472656 -6.878906 7.761719 -6.195312 C 8.050781 -5.511719 8.183594 -4.691406 8.160156 -3.742188 L 7.035156 -3.742188 L 7.035156 -4.132812 C 7.015625 -5.183594 6.789062 -5.976562 6.355469 -6.511719 C 5.921875 -7.046875 5.292969 -7.3125 4.460938 -7.3125 C 3.59375 -7.3125 2.925781 -7.03125 2.464844 -6.464844 C 2 -5.898438 1.769531 -5.09375 1.769531 -4.050781 C 1.769531 -3.03125 2 -2.238281 2.464844 -1.675781 C 2.925781 -1.113281 3.582031 -0.832031 4.433594 -0.832031 C 5.011719 -0.832031 5.519531 -0.964844 5.953125 -1.234375 C 6.382812 -1.5 6.726562 -1.886719 6.976562 -2.390625 L 8.003906 -1.996094 C 7.683594 -1.289062 7.210938 -0.742188 6.589844 -0.355469 C 5.964844 0.03125 5.261719 0.226562 4.476562 0.226562 M 1.378906 -3.742188 L 1.378906 -4.664062 L 7.566406 -4.664062 L 7.566406 -3.742188 Z "/>
</g>
<g id="glyph-0-5">
<path d="M 1.050781 0 L 1.050781 -8.101562 L 2.039062 -8.101562 L 2.039062 -6.148438 L 1.84375 -6.40625 C 1.933594 -6.644531 2.050781 -6.867188 2.199219 -7.070312 C 2.34375 -7.269531 2.5 -7.4375 2.671875 -7.566406 C 2.878906 -7.753906 3.125 -7.894531 3.40625 -7.992188 C 3.683594 -8.089844 3.96875 -8.144531 4.253906 -8.164062 C 4.539062 -8.179688 4.796875 -8.160156 5.03125 -8.101562 L 5.03125 -7.066406 C 4.738281 -7.140625 4.414062 -7.15625 4.066406 -7.117188 C 3.714844 -7.078125 3.390625 -6.9375 3.097656 -6.699219 C 2.828125 -6.488281 2.625 -6.234375 2.488281 -5.945312 C 2.355469 -5.652344 2.265625 -5.339844 2.21875 -5.015625 C 2.175781 -4.6875 2.152344 -4.363281 2.152344 -4.042969 L 2.152344 0 Z "/>
</g>
<g id="glyph-0-6">
<path d="M 3.367188 0.226562 C 2.757812 0.226562 2.246094 0.113281 1.832031 -0.105469 C 1.421875 -0.324219 1.113281 -0.617188 0.90625 -0.984375 C 0.703125 -1.347656 0.601562 -1.746094 0.601562 -2.175781 C 0.601562 -2.613281 0.6875 -2.992188 0.867188 -3.304688 C 1.042969 -3.617188 1.285156 -3.871094 1.59375 -4.074219 C 1.902344 -4.273438 2.257812 -4.425781 2.664062 -4.53125 C 3.074219 -4.628906 3.527344 -4.71875 4.023438 -4.796875 C 4.519531 -4.875 5.007812 -4.941406 5.484375 -5 C 5.964844 -5.054688 6.382812 -5.113281 6.742188 -5.167969 L 6.351562 -4.925781 C 6.367188 -5.726562 6.210938 -6.320312 5.886719 -6.703125 C 5.5625 -7.089844 4.996094 -7.28125 4.191406 -7.28125 C 3.636719 -7.28125 3.167969 -7.15625 2.785156 -6.90625 C 2.402344 -6.65625 2.136719 -6.261719 1.980469 -5.722656 L 0.90625 -6.039062 C 1.09375 -6.761719 1.464844 -7.324219 2.023438 -7.726562 C 2.585938 -8.125 3.3125 -8.324219 4.207031 -8.324219 C 4.949219 -8.324219 5.578125 -8.1875 6.09375 -7.910156 C 6.609375 -7.632812 6.976562 -7.230469 7.191406 -6.703125 C 7.292969 -6.46875 7.359375 -6.207031 7.386719 -5.917969 C 7.417969 -5.628906 7.433594 -5.332031 7.433594 -5.03125 L 7.433594 0 L 6.449219 0 L 6.449219 -2.03125 L 6.734375 -1.914062 C 6.460938 -1.21875 6.03125 -0.6875 5.453125 -0.324219 C 4.871094 0.0429688 4.175781 0.226562 3.367188 0.226562 M 3.496094 -0.726562 C 4.011719 -0.726562 4.460938 -0.820312 4.84375 -1.003906 C 5.230469 -1.191406 5.539062 -1.445312 5.773438 -1.765625 C 6.011719 -2.089844 6.164062 -2.453125 6.234375 -2.859375 C 6.292969 -3.117188 6.324219 -3.402344 6.328125 -3.714844 C 6.335938 -4.027344 6.335938 -4.261719 6.335938 -4.417969 L 6.757812 -4.199219 C 6.382812 -4.148438 5.976562 -4.101562 5.539062 -4.050781 C 5.101562 -4 4.671875 -3.941406 4.25 -3.878906 C 3.828125 -3.8125 3.445312 -3.734375 3.105469 -3.644531 C 2.875 -3.578125 2.652344 -3.488281 2.4375 -3.371094 C 2.222656 -3.253906 2.046875 -3.097656 1.910156 -2.902344 C 1.769531 -2.707031 1.703125 -2.464844 1.703125 -2.175781 C 1.703125 -1.941406 1.761719 -1.710938 1.878906 -1.492188 C 1.996094 -1.273438 2.1875 -1.089844 2.449219 -0.945312 C 2.710938 -0.800781 3.058594 -0.726562 3.496094 -0.726562 Z "/>
</g>
<g id="glyph-0-7">
<path d="M 10.710938 0 L 10.71875 -5.316406 C 10.71875 -5.941406 10.542969 -6.433594 10.195312 -6.792969 C 9.847656 -7.148438 9.40625 -7.328125 8.871094 -7.328125 C 8.566406 -7.328125 8.269531 -7.257812 7.980469 -7.117188 C 7.691406 -6.976562 7.453125 -6.753906 7.265625 -6.441406 C 7.078125 -6.132812 6.984375 -5.726562 6.984375 -5.226562 L 6.328125 -5.414062 C 6.316406 -5.996094 6.429688 -6.503906 6.671875 -6.9375 C 6.914062 -7.371094 7.25 -7.710938 7.675781 -7.953125 C 8.105469 -8.195312 8.585938 -8.316406 9.128906 -8.316406 C 9.941406 -8.316406 10.59375 -8.066406 11.085938 -7.5625 C 11.574219 -7.0625 11.820312 -6.382812 11.820312 -5.527344 L 11.8125 0 L 10.710938 0 M 1.042969 0 L 1.042969 -8.101562 L 2.03125 -8.101562 L 2.03125 -6.105469 L 2.152344 -6.105469 L 2.152344 0 L 1.042969 0 M 5.886719 0 L 5.894531 -5.242188 C 5.894531 -5.886719 5.722656 -6.394531 5.382812 -6.769531 C 5.039062 -7.140625 4.585938 -7.328125 4.027344 -7.328125 C 3.46875 -7.328125 3.015625 -7.136719 2.671875 -6.753906 C 2.324219 -6.371094 2.152344 -5.863281 2.152344 -5.226562 L 1.492188 -5.585938 C 1.492188 -6.109375 1.613281 -6.574219 1.859375 -6.984375 C 2.105469 -7.398438 2.441406 -7.722656 2.863281 -7.960938 C 3.289062 -8.199219 3.773438 -8.316406 4.3125 -8.316406 C 4.828125 -8.316406 5.285156 -8.207031 5.6875 -7.988281 C 6.089844 -7.765625 6.40625 -7.449219 6.636719 -7.027344 C 6.867188 -6.609375 6.984375 -6.097656 6.984375 -5.496094 L 6.976562 0 Z "/>
</g>
<g id="glyph-0-8">
<path d="M 6.898438 0 L 6.898438 -4.132812 C 6.898438 -4.582031 6.859375 -4.996094 6.773438 -5.375 C 6.6875 -5.75 6.550781 -6.082031 6.363281 -6.363281 C 6.175781 -6.644531 5.933594 -6.863281 5.636719 -7.019531 C 5.339844 -7.175781 4.976562 -7.253906 4.550781 -7.253906 C 4.164062 -7.253906 3.820312 -7.183594 3.519531 -7.050781 C 3.222656 -6.914062 2.972656 -6.722656 2.769531 -6.46875 C 2.570312 -6.214844 2.414062 -5.910156 2.308594 -5.550781 C 2.203125 -5.191406 2.152344 -4.78125 2.152344 -4.320312 L 1.371094 -4.492188 C 1.371094 -5.324219 1.515625 -6.019531 1.808594 -6.585938 C 2.097656 -7.148438 2.496094 -7.578125 3.007812 -7.867188 C 3.515625 -8.15625 4.101562 -8.300781 4.761719 -8.300781 C 5.246094 -8.300781 5.671875 -8.226562 6.035156 -8.078125 C 6.394531 -7.925781 6.703125 -7.726562 6.957031 -7.46875 C 7.207031 -7.214844 7.414062 -6.921875 7.566406 -6.597656 C 7.722656 -6.269531 7.835938 -5.921875 7.90625 -5.554688 C 7.976562 -5.1875 8.011719 -4.820312 8.011719 -4.453125 L 8.011719 0 L 6.898438 0 M 1.042969 0 L 1.042969 -8.101562 L 2.039062 -8.101562 L 2.039062 -6.105469 L 2.152344 -6.105469 L 2.152344 0 Z "/>
</g>
<g id="glyph-0-9">
<path d="M 5.460938 0 C 5.003906 0.09375 4.554688 0.132812 4.113281 0.113281 C 3.671875 0.09375 3.277344 -0.00390625 2.929688 -0.171875 C 2.582031 -0.34375 2.316406 -0.609375 2.136719 -0.96875 C 1.992188 -1.265625 1.914062 -1.570312 1.902344 -1.878906 C 1.890625 -2.1875 1.882812 -2.539062 1.882812 -2.933594 L 1.882812 -10.351562 L 2.976562 -10.351562 L 2.976562 -2.976562 C 2.976562 -2.636719 2.980469 -2.355469 2.988281 -2.125 C 2.996094 -1.898438 3.046875 -1.699219 3.140625 -1.523438 C 3.324219 -1.1875 3.609375 -0.988281 4 -0.921875 C 4.394531 -0.859375 4.878906 -0.871094 5.460938 -0.96875 L 5.460938 0 M 0.148438 -7.15625 L 0.148438 -8.101562 L 5.460938 -8.101562 L 5.460938 -7.15625 Z "/>
</g>
<g id="glyph-0-10">
<path d="M 4.074219 0.21875 C 3.121094 0.21875 2.339844 0.0117188 1.730469 -0.398438 C 1.117188 -0.808594 0.738281 -1.378906 0.601562 -2.109375 L 1.726562 -2.296875 C 1.84375 -1.835938 2.117188 -1.46875 2.546875 -1.195312 C 2.972656 -0.921875 3.503906 -0.789062 4.132812 -0.789062 C 4.746094 -0.789062 5.234375 -0.917969 5.585938 -1.171875 C 5.941406 -1.429688 6.121094 -1.78125 6.121094 -2.226562 C 6.121094 -2.476562 6.0625 -2.679688 5.953125 -2.839844 C 5.839844 -2.996094 5.609375 -3.140625 5.265625 -3.277344 C 4.921875 -3.414062 4.40625 -3.574219 3.71875 -3.757812 C 2.984375 -3.957031 2.410156 -4.15625 1.996094 -4.359375 C 1.578125 -4.558594 1.285156 -4.789062 1.109375 -5.050781 C 0.933594 -5.3125 0.847656 -5.636719 0.847656 -6.015625 C 0.847656 -6.476562 0.976562 -6.878906 1.238281 -7.226562 C 1.496094 -7.574219 1.859375 -7.84375 2.316406 -8.035156 C 2.777344 -8.230469 3.3125 -8.324219 3.921875 -8.324219 C 4.53125 -8.324219 5.078125 -8.226562 5.5625 -8.027344 C 6.042969 -7.832031 6.433594 -7.554688 6.726562 -7.199219 C 7.023438 -6.84375 7.199219 -6.433594 7.253906 -5.960938 L 6.128906 -5.761719 C 6.050781 -6.234375 5.816406 -6.609375 5.417969 -6.890625 C 5.019531 -7.167969 4.515625 -7.308594 3.90625 -7.320312 C 3.332031 -7.335938 2.863281 -7.226562 2.503906 -6.992188 C 2.144531 -6.761719 1.964844 -6.453125 1.964844 -6.066406 C 1.964844 -5.851562 2.03125 -5.667969 2.160156 -5.515625 C 2.289062 -5.363281 2.527344 -5.21875 2.867188 -5.085938 C 3.210938 -4.949219 3.699219 -4.800781 4.335938 -4.640625 C 5.078125 -4.453125 5.664062 -4.253906 6.089844 -4.042969 C 6.515625 -3.832031 6.816406 -3.585938 6.996094 -3.300781 C 7.175781 -3.015625 7.265625 -2.664062 7.265625 -2.242188 C 7.265625 -1.476562 6.984375 -0.875 6.417969 -0.4375 C 5.847656 0 5.066406 0.21875 4.074219 0.21875 Z "/>
</g>
<g id="glyph-0-11">
<path d="M 4.6875 0.226562 C 3.941406 0.226562 3.3125 0.0351562 2.796875 -0.339844 C 2.28125 -0.71875 1.890625 -1.230469 1.628906 -1.878906 C 1.363281 -2.527344 1.230469 -3.253906 1.230469 -4.058594 C 1.230469 -4.878906 1.363281 -5.609375 1.632812 -6.25 C 1.898438 -6.894531 2.292969 -7.398438 2.8125 -7.769531 C 3.332031 -8.140625 3.972656 -8.324219 4.734375 -8.324219 C 5.472656 -8.324219 6.109375 -8.136719 6.636719 -7.761719 C 7.167969 -7.386719 7.574219 -6.878906 7.855469 -6.234375 C 8.140625 -5.585938 8.28125 -4.863281 8.28125 -4.058594 C 8.28125 -3.246094 8.136719 -2.519531 7.851562 -1.875 C 7.566406 -1.230469 7.15625 -0.71875 6.621094 -0.339844 C 6.085938 0.0351562 5.441406 0.226562 4.6875 0.226562 M 1.042969 3.601562 L 1.042969 -8.101562 L 2.03125 -8.101562 L 2.03125 -2.003906 L 2.152344 -2.003906 L 2.152344 3.601562 L 1.042969 3.601562 M 4.574219 -0.800781 C 5.140625 -0.800781 5.609375 -0.945312 5.984375 -1.230469 C 6.359375 -1.515625 6.640625 -1.902344 6.828125 -2.394531 C 7.015625 -2.890625 7.109375 -3.441406 7.109375 -4.058594 C 7.109375 -4.667969 7.015625 -5.21875 6.832031 -5.707031 C 6.648438 -6.199219 6.367188 -6.585938 5.988281 -6.871094 C 5.609375 -7.15625 5.132812 -7.296875 4.550781 -7.296875 C 3.988281 -7.296875 3.519531 -7.160156 3.144531 -6.886719 C 2.773438 -6.609375 2.496094 -6.230469 2.308594 -5.742188 C 2.125 -5.253906 2.03125 -4.691406 2.03125 -4.058594 C 2.03125 -3.433594 2.125 -2.875 2.308594 -2.382812 C 2.496094 -1.890625 2.773438 -1.503906 3.148438 -1.222656 C 3.523438 -0.941406 4 -0.800781 4.574219 -0.800781 Z "/>
</g>
<g id="glyph-0-12">
<path d="M 5.378906 0.226562 C 4.617188 0.226562 3.933594 0.09375 3.324219 -0.171875 C 2.710938 -0.4375 2.195312 -0.816406 1.765625 -1.304688 C 1.339844 -1.796875 1.011719 -2.386719 0.789062 -3.078125 C 0.5625 -3.769531 0.449219 -4.546875 0.449219 -5.398438 C 0.449219 -6.53125 0.644531 -7.515625 1.039062 -8.359375 C 1.429688 -9.203125 1.996094 -9.855469 2.730469 -10.320312 C 3.464844 -10.785156 4.347656 -11.015625 5.378906 -11.015625 C 6.527344 -11.015625 7.464844 -10.75 8.1875 -10.210938 C 8.910156 -9.671875 9.414062 -8.953125 9.699219 -8.046875 L 8.585938 -7.777344 C 8.351562 -8.4375 7.964844 -8.964844 7.429688 -9.359375 C 6.890625 -9.753906 6.222656 -9.953125 5.421875 -9.953125 C 4.578125 -9.957031 3.875 -9.769531 3.316406 -9.386719 C 2.753906 -9.003906 2.332031 -8.46875 2.050781 -7.78125 C 1.769531 -7.09375 1.625 -6.300781 1.621094 -5.398438 C 1.613281 -4.5 1.753906 -3.707031 2.035156 -3.027344 C 2.320312 -2.34375 2.742188 -1.808594 3.308594 -1.421875 C 3.871094 -1.035156 4.578125 -0.835938 5.421875 -0.832031 C 6.199219 -0.832031 6.835938 -0.984375 7.34375 -1.28125 C 7.847656 -1.582031 8.230469 -2.011719 8.492188 -2.574219 C 8.757812 -3.132812 8.90625 -3.796875 8.941406 -4.558594 L 6.449219 -4.558594 L 6.449219 -5.503906 L 10.09375 -5.503906 C 10.109375 -5.390625 10.117188 -5.269531 10.121094 -5.140625 C 10.125 -5.015625 10.125 -4.921875 10.125 -4.867188 C 10.125 -3.890625 9.949219 -3.019531 9.601562 -2.253906 C 9.25 -1.484375 8.722656 -0.882812 8.019531 -0.4375 C 7.320312 0.00390625 6.4375 0.226562 5.378906 0.226562 Z "/>
</g>
<g id="glyph-0-13">
<path d="M 1.050781 0 L 1.050781 -10.800781 L 4.328125 -10.800781 C 4.441406 -10.800781 4.640625 -10.796875 4.917969 -10.792969 C 5.195312 -10.789062 5.460938 -10.765625 5.714844 -10.734375 C 6.535156 -10.617188 7.21875 -10.3125 7.769531 -9.816406 C 8.320312 -9.324219 8.734375 -8.691406 9.007812 -7.925781 C 9.28125 -7.164062 9.421875 -6.320312 9.421875 -5.398438 C 9.421875 -4.480469 9.28125 -3.636719 9.007812 -2.871094 C 8.734375 -2.109375 8.320312 -1.476562 7.769531 -0.984375 C 7.21875 -0.488281 6.535156 -0.183594 5.714844 -0.0664062 C 5.464844 -0.0390625 5.199219 -0.0195312 4.914062 -0.0117188 C 4.628906 -0.00390625 4.433594 0 4.328125 0 L 1.050781 0 M 2.191406 -1.058594 L 4.328125 -1.058594 C 4.53125 -1.058594 4.753906 -1.0625 4.992188 -1.078125 C 5.230469 -1.089844 5.433594 -1.113281 5.601562 -1.148438 C 6.234375 -1.257812 6.742188 -1.511719 7.128906 -1.914062 C 7.515625 -2.3125 7.800781 -2.8125 7.980469 -3.417969 C 8.160156 -4.019531 8.25 -4.679688 8.25 -5.398438 C 8.25 -6.125 8.160156 -6.789062 7.980469 -7.394531 C 7.800781 -8 7.515625 -8.5 7.125 -8.894531 C 6.734375 -9.289062 6.226562 -9.542969 5.601562 -9.652344 C 5.433594 -9.6875 5.226562 -9.710938 4.984375 -9.722656 C 4.742188 -9.734375 4.523438 -9.742188 4.328125 -9.742188 L 2.191406 -9.742188 Z "/>
</g>
<g id="glyph-0-14">
<path d="M 3.238281 0 L 0.300781 -8.101562 L 1.417969 -8.101562 L 3.808594 -1.441406 L 6.1875 -8.101562 L 7.320312 -8.101562 L 4.378906 0 Z "/>
</g>
<g id="glyph-1-0">
<path d="M 0.75 -0.0078125 L 0.757812 -1.011719 L 5.640625 -5.421875 C 6.058594 -5.800781 6.339844 -6.164062 6.476562 -6.507812 C 6.613281 -6.847656 6.683594 -7.207031 6.683594 -7.582031 C 6.683594 -8.027344 6.578125 -8.429688 6.367188 -8.789062 C 6.15625 -9.148438 5.875 -9.4375 5.519531 -9.648438 C 5.164062 -9.859375 4.765625 -9.96875 4.328125 -9.96875 C 3.867188 -9.96875 3.457031 -9.859375 3.097656 -9.636719 C 2.738281 -9.417969 2.453125 -9.128906 2.246094 -8.765625 C 2.039062 -8.40625 1.9375 -8.015625 1.941406 -7.589844 L 0.816406 -7.589844 C 0.816406 -8.246094 0.972656 -8.832031 1.28125 -9.351562 C 1.59375 -9.871094 2.011719 -10.28125 2.542969 -10.578125 C 3.074219 -10.875 3.671875 -11.023438 4.34375 -11.023438 C 4.996094 -11.023438 5.585938 -10.871094 6.109375 -10.5625 C 6.632812 -10.257812 7.042969 -9.839844 7.347656 -9.320312 C 7.648438 -8.796875 7.800781 -8.214844 7.800781 -7.574219 C 7.800781 -7.125 7.746094 -6.730469 7.640625 -6.386719 C 7.53125 -6.042969 7.363281 -5.726562 7.136719 -5.433594 C 6.910156 -5.140625 6.621094 -4.839844 6.269531 -4.53125 L 1.933594 -0.613281 L 1.761719 -1.066406 L 7.800781 -1.066406 L 7.800781 -0.0078125 Z "/>
</g>
<g id="glyph-1-1">
<path d="M 1.253906 0 L 1.261719 -1.28125 L 2.535156 -1.273438 L 2.542969 0 Z "/>
</g>
<g id="glyph-1-2">
</g>
<g id="glyph-1-3">
<path d="M 1.050781 0 L 1.050781 -10.800781 L 7.246094 -10.800781 L 7.253906 -9.699219 L 2.144531 -9.703125 L 2.152344 -5.949219 L 6.34375 -5.949219 L 6.351562 -4.851562 L 2.144531 -4.851562 L 2.152344 0 Z "/>
</g>
<g id="glyph-1-4">
<path d="M 3.367188 0.226562 C 2.757812 0.226562 2.246094 0.113281 1.832031 -0.105469 C 1.421875 -0.324219 1.113281 -0.617188 0.90625 -0.984375 C 0.703125 -1.347656 0.601562 -1.746094 0.601562 -2.175781 C 0.601562 -2.613281 0.6875 -2.992188 0.867188 -3.304688 C 1.042969 -3.617188 1.285156 -3.871094 1.59375 -4.074219 C 1.902344 -4.273438 2.257812 -4.425781 2.664062 -4.53125 C 3.074219 -4.628906 3.527344 -4.71875 4.023438 -4.796875 C 4.519531 -4.875 5.007812 -4.941406 5.484375 -5 C 5.964844 -5.054688 6.382812 -5.113281 6.742188 -5.167969 L 6.351562 -4.925781 C 6.367188 -5.726562 6.210938 -6.320312 5.886719 -6.703125 C 5.5625 -7.089844 4.996094 -7.28125 4.191406 -7.28125 C 3.636719 -7.28125 3.167969 -7.15625 2.785156 -6.90625 C 2.402344 -6.65625 2.136719 -6.261719 1.980469 -5.722656 L 0.90625 -6.039062 C 1.09375 -6.761719 1.464844 -7.324219 2.023438 -7.726562 C 2.585938 -8.125 3.3125 -8.324219 4.207031 -8.324219 C 4.949219 -8.324219 5.578125 -8.1875 6.09375 -7.910156 C 6.609375 -7.632812 6.976562 -7.230469 7.191406 -6.703125 C 7.292969 -6.46875 7.359375 -6.207031 7.386719 -5.917969 C 7.417969 -5.628906 7.433594 -5.332031 7.433594 -5.03125 L 7.433594 0 L 6.449219 0 L 6.449219 -2.03125 L 6.734375 -1.914062 C 6.460938 -1.21875 6.03125 -0.6875 5.453125 -0.324219 C 4.871094 0.0429688 4.175781 0.226562 3.367188 0.226562 M 3.496094 -0.726562 C 4.011719 -0.726562 4.460938 -0.820312 4.84375 -1.003906 C 5.230469 -1.191406 5.539062 -1.445312 5.773438 -1.765625 C 6.011719 -2.089844 6.164062 -2.453125 6.234375 -2.859375 C 6.292969 -3.117188 6.324219 -3.402344 6.328125 -3.714844 C 6.335938 -4.027344 6.335938 -4.261719 6.335938 -4.417969 L 6.757812 -4.199219 C 6.382812 -4.148438 5.976562 -4.101562 5.539062 -4.050781 C 5.101562 -4 4.671875 -3.941406 4.25 -3.878906 C 3.828125 -3.8125 3.445312 -3.734375 3.105469 -3.644531 C 2.875 -3.578125 2.652344 -3.488281 2.4375 -3.371094 C 2.222656 -3.253906 2.046875 -3.097656 1.910156 -2.902344 C 1.769531 -2.707031 1.703125 -2.464844 1.703125 -2.175781 C 1.703125 -1.941406 1.761719 -1.710938 1.878906 -1.492188 C 1.996094 -1.273438 2.1875 -1.089844 2.449219 -0.945312 C 2.710938 -0.800781 3.058594 -0.726562 3.496094 -0.726562 Z "/>
</g>
<g id="glyph-1-5">
<path d="M 10.710938 0 L 10.71875 -5.316406 C 10.71875 -5.941406 10.542969 -6.433594 10.195312 -6.792969 C 9.847656 -7.148438 9.40625 -7.328125 8.871094 -7.328125 C 8.566406 -7.328125 8.269531 -7.257812 7.980469 -7.117188 C 7.691406 -6.976562 7.453125 -6.753906 7.265625 -6.441406 C 7.078125 -6.132812 6.984375 -5.726562 6.984375 -5.226562 L 6.328125 -5.414062 C 6.316406 -5.996094 6.429688 -6.503906 6.671875 -6.9375 C 6.914062 -7.371094 7.25 -7.710938 7.675781 -7.953125 C 8.105469 -8.195312 8.585938 -8.316406 9.128906 -8.316406 C 9.941406 -8.316406 10.59375 -8.066406 11.085938 -7.5625 C 11.574219 -7.0625 11.820312 -6.382812 11.820312 -5.527344 L 11.8125 0 L 10.710938 0 M 1.042969 0 L 1.042969 -8.101562 L 2.03125 -8.101562 L 2.03125 -6.105469 L 2.152344 -6.105469 L 2.152344 0 L 1.042969 0 M 5.886719 0 L 5.894531 -5.242188 C 5.894531 -5.886719 5.722656 -6.394531 5.382812 -6.769531 C 5.039062 -7.140625 4.585938 -7.328125 4.027344 -7.328125 C 3.46875 -7.328125 3.015625 -7.136719 2.671875 -6.753906 C 2.324219 -6.371094 2.152344 -5.863281 2.152344 -5.226562 L 1.492188 -5.585938 C 1.492188 -6.109375 1.613281 -6.574219 1.859375 -6.984375 C 2.105469 -7.398438 2.441406 -7.722656 2.863281 -7.960938 C 3.289062 -8.199219 3.773438 -8.316406 4.3125 -8.316406 C 4.828125 -8.316406 5.285156 -8.207031 5.6875 -7.988281 C 6.089844 -7.765625 6.40625 -7.449219 6.636719 -7.027344 C 6.867188 -6.609375 6.984375 -6.097656 6.984375 -5.496094 L 6.976562 0 Z "/>
</g>
<g id="glyph-1-6">
<path d="M 1.199219 -9.636719 L 1.199219 -10.875 L 2.296875 -10.867188 L 2.300781 -9.636719 L 1.199219 -9.636719 M 1.199219 0 L 1.199219 -8.101562 L 2.296875 -8.101562 L 2.300781 0 Z "/>
</g>
<g id="glyph-1-7">
<path d="M 1.199219 0 L 1.199219 -11.023438 L 2.296875 -11.023438 L 2.300781 0 Z "/>
</g>
<g id="glyph-1-8">
<path d="M 1.050781 0 L 1.050781 -8.101562 L 2.039062 -8.101562 L 2.039062 -6.148438 L 1.84375 -6.40625 C 1.933594 -6.644531 2.050781 -6.867188 2.199219 -7.070312 C 2.34375 -7.269531 2.5 -7.4375 2.671875 -7.566406 C 2.878906 -7.753906 3.125 -7.894531 3.40625 -7.992188 C 3.683594 -8.089844 3.96875 -8.144531 4.253906 -8.164062 C 4.539062 -8.179688 4.796875 -8.160156 5.03125 -8.101562 L 5.03125 -7.066406 C 4.738281 -7.140625 4.414062 -7.15625 4.066406 -7.117188 C 3.714844 -7.078125 3.390625 -6.9375 3.097656 -6.699219 C 2.828125 -6.488281 2.625 -6.234375 2.488281 -5.945312 C 2.355469 -5.652344 2.265625 -5.339844 2.21875 -5.015625 C 2.175781 -4.6875 2.152344 -4.363281 2.152344 -4.042969 L 2.152344 0 Z "/>
</g>
<g id="glyph-1-9">
<path d="M 4.191406 0.226562 C 3.4375 0.226562 2.792969 0.0351562 2.257812 -0.339844 C 1.722656 -0.71875 1.3125 -1.230469 1.027344 -1.875 C 0.742188 -2.519531 0.601562 -3.246094 0.601562 -4.058594 C 0.601562 -4.863281 0.742188 -5.585938 1.023438 -6.234375 C 1.304688 -6.878906 1.710938 -7.386719 2.242188 -7.761719 C 2.773438 -8.136719 3.40625 -8.324219 4.148438 -8.324219 C 4.90625 -8.324219 5.546875 -8.140625 6.066406 -7.769531 C 6.585938 -7.398438 6.980469 -6.894531 7.25 -6.25 C 7.515625 -5.609375 7.648438 -4.878906 7.648438 -4.058594 C 7.648438 -3.253906 7.515625 -2.527344 7.253906 -1.878906 C 6.988281 -1.230469 6.597656 -0.71875 6.082031 -0.339844 C 5.566406 0.0351562 4.9375 0.226562 4.191406 0.226562 M 4.304688 -0.800781 C 4.878906 -0.800781 5.355469 -0.941406 5.730469 -1.222656 C 6.105469 -1.503906 6.386719 -1.890625 6.570312 -2.382812 C 6.753906 -2.875 6.847656 -3.433594 6.847656 -4.058594 C 6.847656 -4.691406 6.753906 -5.253906 6.570312 -5.742188 C 6.386719 -6.230469 6.105469 -6.609375 5.734375 -6.886719 C 5.359375 -7.160156 4.890625 -7.296875 4.328125 -7.296875 C 3.746094 -7.296875 3.265625 -7.15625 2.886719 -6.871094 C 2.507812 -6.585938 2.226562 -6.199219 2.042969 -5.707031 C 1.859375 -5.21875 1.769531 -4.667969 1.769531 -4.058594 C 1.769531 -3.441406 1.863281 -2.890625 2.050781 -2.394531 C 2.238281 -1.902344 2.519531 -1.515625 2.894531 -1.230469 C 3.269531 -0.945312 3.738281 -0.800781 4.304688 -0.800781 M 6.847656 0 L 6.847656 -6.097656 L 6.726562 -6.097656 L 6.726562 -10.800781 L 7.835938 -10.800781 L 7.835938 0 Z "/>
</g>
<g id="glyph-1-10">
<path d="M 4.476562 0.226562 C 3.6875 0.226562 3.003906 0.0507812 2.425781 -0.300781 C 1.847656 -0.648438 1.398438 -1.140625 1.078125 -1.777344 C 0.761719 -2.414062 0.601562 -3.15625 0.601562 -4.011719 C 0.601562 -4.898438 0.757812 -5.664062 1.074219 -6.308594 C 1.386719 -6.953125 1.832031 -7.449219 2.402344 -7.800781 C 2.976562 -8.148438 3.652344 -8.324219 4.433594 -8.324219 C 5.234375 -8.324219 5.914062 -8.140625 6.480469 -7.773438 C 7.046875 -7.40625 7.472656 -6.878906 7.761719 -6.195312 C 8.050781 -5.511719 8.183594 -4.691406 8.160156 -3.742188 L 7.035156 -3.742188 L 7.035156 -4.132812 C 7.015625 -5.183594 6.789062 -5.976562 6.355469 -6.511719 C 5.921875 -7.046875 5.292969 -7.3125 4.460938 -7.3125 C 3.59375 -7.3125 2.925781 -7.03125 2.464844 -6.464844 C 2 -5.898438 1.769531 -5.09375 1.769531 -4.050781 C 1.769531 -3.03125 2 -2.238281 2.464844 -1.675781 C 2.925781 -1.113281 3.582031 -0.832031 4.433594 -0.832031 C 5.011719 -0.832031 5.519531 -0.964844 5.953125 -1.234375 C 6.382812 -1.5 6.726562 -1.886719 6.976562 -2.390625 L 8.003906 -1.996094 C 7.683594 -1.289062 7.210938 -0.742188 6.589844 -0.355469 C 5.964844 0.03125 5.261719 0.226562 4.476562 0.226562 M 1.378906 -3.742188 L 1.378906 -4.664062 L 7.566406 -4.664062 L 7.566406 -3.742188 Z "/>
</g>
<g id="glyph-1-11">
<path d="M 3.164062 -2.949219 C 3.164062 -3.335938 3.183594 -3.679688 3.222656 -3.980469 C 3.257812 -4.277344 3.359375 -4.574219 3.515625 -4.875 C 3.667969 -5.160156 3.851562 -5.394531 4.074219 -5.582031 C 4.292969 -5.769531 4.523438 -5.949219 4.761719 -6.117188 C 5.003906 -6.285156 5.230469 -6.484375 5.445312 -6.710938 C 5.640625 -6.9375 5.769531 -7.164062 5.835938 -7.394531 C 5.898438 -7.625 5.933594 -7.867188 5.933594 -8.121094 C 5.933594 -8.378906 5.902344 -8.605469 5.839844 -8.804688 C 5.777344 -9.003906 5.679688 -9.175781 5.550781 -9.324219 C 5.351562 -9.566406 5.105469 -9.734375 4.816406 -9.824219 C 4.523438 -9.914062 4.222656 -9.960938 3.90625 -9.960938 C 3.597656 -9.960938 3.308594 -9.917969 3.042969 -9.828125 C 2.773438 -9.742188 2.550781 -9.609375 2.378906 -9.425781 C 2.207031 -9.265625 2.082031 -9.074219 2.007812 -8.851562 C 1.929688 -8.625 1.890625 -8.386719 1.890625 -8.136719 L 0.75 -8.136719 C 0.769531 -8.53125 0.855469 -8.917969 1.007812 -9.296875 C 1.160156 -9.671875 1.386719 -9.988281 1.679688 -10.246094 C 1.976562 -10.515625 2.320312 -10.710938 2.710938 -10.832031 C 3.105469 -10.957031 3.5 -11.015625 3.898438 -11.015625 C 4.390625 -11.015625 4.855469 -10.945312 5.296875 -10.796875 C 5.734375 -10.648438 6.105469 -10.402344 6.40625 -10.058594 C 6.644531 -9.800781 6.820312 -9.511719 6.933594 -9.183594 C 7.046875 -8.855469 7.101562 -8.507812 7.101562 -8.136719 C 7.101562 -7.722656 7.023438 -7.332031 6.871094 -6.96875 C 6.714844 -6.601562 6.496094 -6.277344 6.21875 -5.992188 C 6.046875 -5.808594 5.855469 -5.636719 5.640625 -5.480469 C 5.425781 -5.320312 5.21875 -5.160156 5.019531 -4.992188 C 4.824219 -4.824219 4.671875 -4.640625 4.566406 -4.449219 C 4.4375 -4.207031 4.367188 -3.980469 4.355469 -3.765625 C 4.339844 -3.550781 4.335938 -3.277344 4.335938 -2.949219 L 3.164062 -2.949219 M 3.171875 0 L 3.171875 -1.46875 L 4.335938 -1.46875 L 4.335938 0 Z "/>
</g>
</g>
</defs>
<g fill="rgb(100%, 100%, 100%)" fill-opacity="1">
<use xlink:href="#glyph-0-0" x="30" y="35.990234"/>
<use xlink:href="#glyph-0-1" x="35" y="35.990234"/>
<use xlink:href="#glyph-0-2" x="38" y="35.990234"/>
<use xlink:href="#glyph-0-3" x="41" y="35.990234"/>
<use xlink:href="#glyph-0-4" x="48" y="35.990234"/>
<use xlink:href="#glyph-0-5" x="57" y="35.990234"/>
<use xlink:href="#glyph-0-5" x="62" y="35.990234"/>
<use xlink:href="#glyph-0-6" x="67" y="35.990234"/>
<use xlink:href="#glyph-0-7" x="75" y="35.990234"/>
<use xlink:href="#glyph-0-4" x="87" y="35.990234"/>
<use xlink:href="#glyph-0-8" x="95" y="35.990234"/>
<use xlink:href="#glyph-0-9" x="104" y="35.990234"/>
<use xlink:href="#glyph-0-6" x="110" y="35.990234"/>
<use xlink:href="#glyph-0-10" x="118" y="35.990234"/>
<use xlink:href="#glyph-0-2" x="126" y="35.990234"/>
<use xlink:href="#glyph-0-11" x="129" y="35.990234"/>
<use xlink:href="#glyph-0-6" x="138" y="35.990234"/>
<use xlink:href="#glyph-0-5" x="146" y="35.990234"/>
<use xlink:href="#glyph-0-6" x="151" y="35.990234"/>
<use xlink:href="#glyph-0-2" x="159" y="35.990234"/>
<use xlink:href="#glyph-0-12" x="162" y="35.990234"/>
<use xlink:href="#glyph-0-6" x="172" y="35.990234"/>
<use xlink:href="#glyph-0-7" x="180" y="35.990234"/>
<use xlink:href="#glyph-0-4" x="192" y="35.990234"/>
<use xlink:href="#glyph-0-2" x="201" y="35.990234"/>
<use xlink:href="#glyph-0-13" x="204" y="35.990234"/>
<use xlink:href="#glyph-0-4" x="214" y="35.990234"/>
<use xlink:href="#glyph-0-14" x="222" y="35.990234"/>
<use xlink:href="#glyph-0-2" x="229" y="35.990234"/>
</g>
<g fill="rgb(100%, 100%, 100%)" fill-opacity="1">
<use xlink:href="#glyph-1-0" x="30" y="65.240234"/>
<use xlink:href="#glyph-1-1" x="38" y="65.240234"/>
<use xlink:href="#glyph-1-2" x="41" y="65.240234"/>
<use xlink:href="#glyph-1-3" x="44" y="65.240234"/>
<use xlink:href="#glyph-1-4" x="51" y="65.240234"/>
<use xlink:href="#glyph-1-5" x="59" y="65.240234"/>
<use xlink:href="#glyph-1-6" x="71" y="65.240234"/>
<use xlink:href="#glyph-1-7" x="74" y="65.240234"/>
<use xlink:href="#glyph-1-6" x="77" y="65.240234"/>
<use xlink:href="#glyph-1-4" x="80" y="65.240234"/>
<use xlink:href="#glyph-1-8" x="88" y="65.240234"/>
<use xlink:href="#glyph-1-6" x="93" y="65.240234"/>
<use xlink:href="#glyph-1-9" x="96" y="65.240234"/>
<use xlink:href="#glyph-1-4" x="105" y="65.240234"/>
<use xlink:href="#glyph-1-9" x="113" y="65.240234"/>
<use xlink:href="#glyph-1-10" x="122" y="65.240234"/>
<use xlink:href="#glyph-1-11" x="131" y="65.240234"/>
</g>
</svg>
