<?xml version="1.0" encoding="UTF-8"?>
<svg xmlns="http://www.w3.org/2000/svg" xmlns:xlink="http://www.w3.org/1999/xlink" width="1920" height="1080" viewBox="0 0 1920 1080">
<defs>
<g>
<g id="glyph-0-0">
</g>
<g id="glyph-0-1">
<path d="M 1.042969 -0.0117188 L 1.050781 -1.40625 L 7.832031 -7.53125 C 8.417969 -8.058594 8.804688 -8.5625 8.996094 -9.035156 C 9.1875 -9.511719 9.28125 -10.011719 9.28125 -10.53125 C 9.28125 -11.148438 9.136719 -11.707031 8.84375 -12.207031 C 8.550781 -12.707031 8.160156 -13.105469 7.667969 -13.402344 C 7.171875 -13.695312 6.621094 -13.84375 6.011719 -13.84375 C 5.371094 -13.84375 4.800781 -13.691406 4.300781 -13.386719 C 3.800781 -13.078125 3.40625 -12.675781 3.121094 -12.175781 C 2.832031 -11.675781 2.691406 -11.132812 2.699219 -10.542969 L 1.136719 -10.542969 C 1.136719 -11.453125 1.351562 -12.265625 1.78125 -12.988281 C 2.210938 -13.710938 2.796875 -14.28125 3.53125 -14.691406 C 4.265625 -15.105469 5.101562 -15.3125 6.03125 -15.3125 C 6.941406 -15.3125 7.757812 -15.097656 8.484375 -14.671875 C 9.210938 -14.246094 9.78125 -13.667969 10.203125 -12.941406 C 10.625 -12.21875 10.832031 -11.410156 10.832031 -10.519531 C 10.832031 -9.894531 10.757812 -9.34375 10.609375 -8.871094 C 10.460938 -8.394531 10.226562 -7.953125 9.910156 -7.546875 C 9.59375 -7.140625 9.195312 -6.722656 8.707031 -6.292969 L 2.6875 -0.855469 L 2.449219 -1.480469 L 10.832031 -1.480469 L 10.832031 -0.0117188 Z "/>
</g>
<g id="glyph-0-2">
<path d="M 1.738281 0 L 1.75 -1.78125 L 3.519531 -1.769531 L 3.53125 0 Z "/>
</g>
<g id="glyph-0-3">
<path d="M 7.53125 0.3125 C 6.039062 0.3125 4.777344 -0.0195312 3.75 -0.683594 C 2.722656 -1.34375 1.945312 -2.265625 1.417969 -3.4375 C 0.890625 -4.609375 0.625 -5.964844 0.625 -7.5 C 0.625 -9.035156 0.890625 -10.390625 1.417969 -11.5625 C 1.945312 -12.734375 2.722656 -13.65625 3.75 -14.316406 C 4.777344 -14.980469 6.039062 -15.3125 7.53125 -15.3125 C 9.273438 -15.3125 10.699219 -14.867188 11.800781 -13.972656 C 12.90625 -13.082031 13.664062 -11.886719 14.074219 -10.386719 L 12.511719 -9.980469 C 12.191406 -11.167969 11.617188 -12.109375 10.792969 -12.800781 C 9.964844 -13.496094 8.878906 -13.84375 7.53125 -13.84375 C 6.359375 -13.84375 5.382812 -13.578125 4.605469 -13.042969 C 3.828125 -12.507812 3.242188 -11.761719 2.847656 -10.808594 C 2.457031 -9.851562 2.253906 -8.75 2.238281 -7.5 C 2.234375 -6.25 2.425781 -5.148438 2.816406 -4.199219 C 3.210938 -3.246094 3.800781 -2.5 4.589844 -1.964844 C 5.375 -1.425781 6.359375 -1.15625 7.53125 -1.15625 C 8.878906 -1.15625 9.964844 -1.503906 10.792969 -2.203125 C 11.617188 -2.902344 12.191406 -3.839844 12.511719 -5.019531 L 14.074219 -4.613281 C 13.664062 -3.113281 12.90625 -1.917969 11.800781 -1.027344 C 10.699219 -0.132812 9.273438 0.3125 7.53125 0.3125 Z "/>
</g>
<g id="glyph-0-4">
<path d="M 6.15625 0.3125 C 5.039062 0.3125 4.082031 0.0585938 3.292969 -0.449219 C 2.5 -0.953125 1.890625 -1.65625 1.46875 -2.550781 C 1.046875 -3.449219 0.832031 -4.476562 0.832031 -5.636719 C 0.832031 -6.816406 1.046875 -7.851562 1.480469 -8.738281 C 1.910156 -9.628906 2.523438 -10.320312 3.316406 -10.816406 C 4.113281 -11.3125 5.058594 -11.5625 6.15625 -11.5625 C 7.28125 -11.5625 8.242188 -11.3125 9.035156 -10.808594 C 9.832031 -10.304688 10.4375 -9.605469 10.859375 -8.714844 C 11.28125 -7.820312 11.488281 -6.796875 11.488281 -5.636719 C 11.488281 -4.453125 11.277344 -3.417969 10.855469 -2.527344 C 10.429688 -1.632812 9.820312 -0.9375 9.019531 -0.4375 C 8.222656 0.0625 7.265625 0.3125 6.15625 0.3125 M 6.15625 -1.15625 C 7.40625 -1.15625 8.335938 -1.570312 8.949219 -2.402344 C 9.558594 -3.230469 9.863281 -4.308594 9.863281 -5.636719 C 9.863281 -6.996094 9.558594 -8.078125 8.941406 -8.886719 C 8.328125 -9.691406 7.398438 -10.09375 6.15625 -10.09375 C 5.316406 -10.09375 4.625 -9.90625 4.078125 -9.527344 C 3.53125 -9.148438 3.125 -8.625 2.859375 -7.953125 C 2.59375 -7.28125 2.457031 -6.511719 2.457031 -5.636719 C 2.457031 -4.28125 2.769531 -3.195312 3.394531 -2.378906 C 4.019531 -1.5625 4.941406 -1.15625 6.15625 -1.15625 Z "/>
</g>
<g id="glyph-0-5">
<path d="M 9.582031 0 L 9.582031 -5.738281 C 9.582031 -6.363281 9.523438 -6.9375 9.40625 -7.464844 C 9.289062 -7.988281 9.097656 -8.445312 8.839844 -8.839844 C 8.578125 -9.230469 8.242188 -9.535156 7.828125 -9.75 C 7.414062 -9.964844 6.914062 -10.074219 6.324219 -10.074219 C 5.78125 -10.074219 5.304688 -9.980469 4.890625 -9.792969 C 4.476562 -9.605469 4.128906 -9.335938 3.847656 -8.984375 C 3.566406 -8.632812 3.355469 -8.207031 3.207031 -7.707031 C 3.0625 -7.207031 2.988281 -6.640625 2.988281 -6 L 1.90625 -6.238281 C 1.90625 -7.390625 2.109375 -8.359375 2.511719 -9.144531 C 2.914062 -9.929688 3.46875 -10.523438 4.175781 -10.925781 C 4.886719 -11.328125 5.699219 -11.53125 6.613281 -11.53125 C 7.289062 -11.53125 7.875 -11.425781 8.378906 -11.21875 C 8.882812 -11.011719 9.3125 -10.730469 9.660156 -10.375 C 10.011719 -10.019531 10.296875 -9.617188 10.511719 -9.160156 C 10.726562 -8.707031 10.882812 -8.222656 10.980469 -7.714844 C 11.078125 -7.203125 11.125 -6.695312 11.125 -6.1875 L 11.125 0 L 9.582031 0 M 1.449219 0 L 1.449219 -11.25 L 2.832031 -11.25 L 2.832031 -8.480469 L 2.988281 -8.480469 L 2.988281 0 Z "/>
</g>
<g id="glyph-0-6">
<path d="M 2.574219 0 L 2.574219 -12.082031 C 2.574219 -12.375 2.589844 -12.664062 2.621094 -12.949219 C 2.652344 -13.234375 2.714844 -13.503906 2.8125 -13.765625 C 2.910156 -14.027344 3.0625 -14.265625 3.269531 -14.488281 C 3.5 -14.738281 3.75 -14.921875 4.019531 -15.035156 C 4.292969 -15.152344 4.574219 -15.226562 4.871094 -15.261719 C 5.164062 -15.296875 5.453125 -15.3125 5.738281 -15.3125 L 7.175781 -15.3125 L 7.175781 -14.019531 L 5.84375 -14.019531 C 5.261719 -14.019531 4.824219 -13.878906 4.535156 -13.59375 C 4.25 -13.308594 4.105469 -12.859375 4.105469 -12.25 L 4.105469 0 L 2.574219 0 M 0.625 -9.9375 L 0.625 -11.25 L 7.175781 -11.25 L 7.175781 -9.9375 L 0.625 -9.9375 M 9.363281 -13.386719 L 9.363281 -15.105469 L 10.886719 -15.09375 L 10.894531 -13.386719 L 9.363281 -13.386719 M 9.363281 0 L 9.363281 -11.25 L 10.886719 -11.25 L 10.894531 0 Z "/>
</g>
<g id="glyph-0-7">
<path d="M 4.675781 0.3125 C 3.828125 0.3125 3.121094 0.160156 2.546875 -0.144531 C 1.972656 -0.453125 1.546875 -0.859375 1.261719 -1.363281 C 0.976562 -1.871094 0.832031 -2.421875 0.832031 -3.019531 C 0.832031 -3.632812 0.957031 -4.15625 1.203125 -4.589844 C 1.449219 -5.023438 1.785156 -5.378906 2.214844 -5.65625 C 2.640625 -5.933594 3.136719 -6.144531 3.699219 -6.292969 C 4.265625 -6.429688 4.898438 -6.554688 5.589844 -6.660156 C 6.28125 -6.769531 6.957031 -6.863281 7.621094 -6.941406 C 8.28125 -7.023438 8.863281 -7.101562 9.363281 -7.175781 L 8.824219 -6.84375 C 8.84375 -7.953125 8.628906 -8.777344 8.175781 -9.3125 C 7.726562 -9.847656 6.941406 -10.113281 5.824219 -10.113281 C 5.050781 -10.113281 4.402344 -9.941406 3.871094 -9.59375 C 3.339844 -9.246094 2.964844 -8.699219 2.75 -7.949219 L 1.261719 -8.386719 C 1.515625 -9.390625 2.035156 -10.171875 2.8125 -10.730469 C 3.589844 -11.285156 4.601562 -11.5625 5.84375 -11.5625 C 6.871094 -11.5625 7.746094 -11.371094 8.464844 -10.984375 C 9.183594 -10.597656 9.691406 -10.042969 9.988281 -9.3125 C 10.128906 -8.984375 10.21875 -8.621094 10.261719 -8.21875 C 10.300781 -7.816406 10.324219 -7.40625 10.324219 -6.988281 L 10.324219 0 L 8.957031 0 L 8.957031 -2.824219 L 9.355469 -2.65625 C 8.972656 -1.691406 8.378906 -0.953125 7.574219 -0.449219 C 6.765625 0.0585938 5.800781 0.3125 4.675781 0.3125 M 4.855469 -1.011719 C 5.570312 -1.011719 6.195312 -1.140625 6.730469 -1.394531 C 7.265625 -1.652344 7.695312 -2.003906 8.019531 -2.453125 C 8.347656 -2.902344 8.558594 -3.40625 8.65625 -3.96875 C 8.738281 -4.328125 8.785156 -4.726562 8.792969 -5.160156 C 8.796875 -5.59375 8.800781 -5.921875 8.800781 -6.136719 L 9.386719 -5.832031 C 8.863281 -5.765625 8.300781 -5.695312 7.691406 -5.625 C 7.085938 -5.554688 6.488281 -5.476562 5.902344 -5.386719 C 5.3125 -5.296875 4.785156 -5.1875 4.3125 -5.0625 C 3.992188 -4.972656 3.683594 -4.84375 3.386719 -4.683594 C 3.085938 -4.519531 2.84375 -4.300781 2.652344 -4.03125 C 2.460938 -3.761719 2.363281 -3.421875 2.363281 -3.019531 C 2.363281 -2.695312 2.445312 -2.378906 2.609375 -2.074219 C 2.773438 -1.765625 3.035156 -1.515625 3.402344 -1.3125 C 3.765625 -1.109375 4.25 -1.011719 4.855469 -1.011719 Z "/>
</g>
<g id="glyph-0-8">
<path d="M 6.511719 0.3125 C 5.476562 0.3125 4.601562 0.0507812 3.886719 -0.472656 C 3.171875 -1 2.628906 -1.710938 2.261719 -2.609375 C 1.890625 -3.507812 1.707031 -4.515625 1.707031 -5.636719 C 1.707031 -6.773438 1.894531 -7.789062 2.265625 -8.683594 C 2.636719 -9.574219 3.183594 -10.277344 3.90625 -10.792969 C 4.628906 -11.304688 5.515625 -11.5625 6.574219 -11.5625 C 7.601562 -11.5625 8.484375 -11.300781 9.21875 -10.78125 C 9.953125 -10.261719 10.519531 -9.550781 10.910156 -8.65625 C 11.304688 -7.761719 11.5 -6.753906 11.5 -5.636719 C 11.5 -4.511719 11.300781 -3.5 10.90625 -2.605469 C 10.511719 -1.707031 9.941406 -1 9.199219 -0.472656 C 8.453125 0.0507812 7.558594 0.3125 6.511719 0.3125 M 1.449219 0 L 1.449219 -15 L 2.988281 -15 L 2.988281 -8.46875 L 2.824219 -8.46875 L 2.824219 0 L 1.449219 0 M 6.355469 -1.113281 C 7.140625 -1.113281 7.792969 -1.3125 8.3125 -1.707031 C 8.832031 -2.105469 9.222656 -2.644531 9.484375 -3.328125 C 9.746094 -4.011719 9.875 -4.78125 9.875 -5.636719 C 9.875 -6.484375 9.746094 -7.246094 9.488281 -7.925781 C 9.234375 -8.609375 8.84375 -9.144531 8.316406 -9.542969 C 7.792969 -9.9375 7.128906 -10.136719 6.324219 -10.136719 C 5.539062 -10.136719 4.886719 -9.945312 4.371094 -9.5625 C 3.851562 -9.179688 3.464844 -8.652344 3.207031 -7.972656 C 2.953125 -7.296875 2.824219 -6.515625 2.824219 -5.636719 C 2.824219 -4.765625 2.953125 -3.992188 3.207031 -3.308594 C 3.464844 -2.625 3.855469 -2.085938 4.375 -1.699219 C 4.894531 -1.308594 5.554688 -1.113281 6.355469 -1.113281 Z "/>
</g>
<g id="glyph-0-9">
<path d="M 1.667969 -13.386719 L 1.667969 -15.105469 L 3.1875 -15.09375 L 3.199219 -13.386719 L 1.667969 -13.386719 M 1.667969 0 L 1.667969 -11.25 L 3.1875 -11.25 L 3.199219 0 Z "/>
</g>
<g id="glyph-0-10">
<path d="M 1.667969 0 L 1.667969 -15.3125 L 3.1875 -15.3125 L 3.199219 0 Z "/>
</g>
<g id="glyph-0-11">
<path d="M 5.824219 0.3125 C 4.773438 0.3125 3.878906 0.0507812 3.136719 -0.472656 C 2.390625 -1 1.824219 -1.707031 1.425781 -2.605469 C 1.03125 -3.5 0.832031 -4.511719 0.832031 -5.636719 C 0.832031 -6.753906 1.03125 -7.761719 1.421875 -8.65625 C 1.8125 -9.550781 2.378906 -10.261719 3.113281 -10.78125 C 3.851562 -11.300781 4.734375 -11.5625 5.761719 -11.5625 C 6.816406 -11.5625 7.703125 -11.304688 8.425781 -10.792969 C 9.148438 -10.277344 9.695312 -9.574219 10.066406 -8.683594 C 10.4375 -7.789062 10.625 -6.773438 10.625 -5.636719 C 10.625 -4.515625 10.441406 -3.507812 10.074219 -2.609375 C 9.703125 -1.710938 9.164062 -1 8.449219 -0.472656 C 7.734375 0.0507812 6.859375 0.3125 5.824219 0.3125 M 5.980469 -1.113281 C 6.777344 -1.113281 7.4375 -1.308594 7.957031 -1.699219 C 8.480469 -2.085938 8.867188 -2.625 9.125 -3.308594 C 9.382812 -3.992188 9.511719 -4.765625 9.511719 -5.636719 C 9.511719 -6.515625 9.382812 -7.296875 9.125 -7.972656 C 8.867188 -8.652344 8.480469 -9.179688 7.964844 -9.5625 C 7.445312 -9.945312 6.796875 -10.136719 6.011719 -10.136719 C 5.203125 -10.136719 4.539062 -9.9375 4.011719 -9.542969 C 3.484375 -9.144531 3.09375 -8.609375 2.839844 -7.925781 C 2.585938 -7.246094 2.457031 -6.484375 2.457031 -5.636719 C 2.457031 -4.78125 2.589844 -4.011719 2.847656 -3.328125 C 3.109375 -2.644531 3.5 -2.105469 4.019531 -1.707031 C 4.542969 -1.3125 5.195312 -1.113281 5.980469 -1.113281 M 9.511719 0 L 9.511719 -8.46875 L 9.34375 -8.46875 L 9.34375 -15 L 10.886719 -15 L 10.886719 0 Z "/>
</g>
<g id="glyph-0-12">
<path d="M 6.21875 0.3125 C 5.121094 0.3125 4.171875 0.0703125 3.371094 -0.417969 C 2.566406 -0.902344 1.945312 -1.585938 1.5 -2.46875 C 1.054688 -3.351562 0.832031 -4.386719 0.832031 -5.574219 C 0.832031 -6.800781 1.050781 -7.863281 1.488281 -8.761719 C 1.925781 -9.65625 2.542969 -10.347656 3.339844 -10.832031 C 4.132812 -11.320312 5.074219 -11.5625 6.15625 -11.5625 C 7.265625 -11.5625 8.214844 -11.308594 9 -10.796875 C 9.785156 -10.285156 10.378906 -9.554688 10.78125 -8.605469 C 11.183594 -7.652344 11.367188 -6.515625 11.332031 -5.199219 L 9.769531 -5.199219 L 9.769531 -5.738281 C 9.742188 -7.199219 9.429688 -8.296875 8.828125 -9.042969 C 8.226562 -9.785156 7.351562 -10.15625 6.199219 -10.15625 C 4.988281 -10.15625 4.0625 -9.765625 3.421875 -8.980469 C 2.78125 -8.195312 2.457031 -7.078125 2.457031 -5.625 C 2.457031 -4.207031 2.78125 -3.109375 3.421875 -2.328125 C 4.0625 -1.546875 4.976562 -1.15625 6.15625 -1.15625 C 6.960938 -1.15625 7.664062 -1.34375 8.265625 -1.714844 C 8.867188 -2.085938 9.339844 -2.621094 9.6875 -3.324219 L 11.113281 -2.769531 C 10.671875 -1.792969 10.015625 -1.03125 9.152344 -0.496094 C 8.285156 0.0429688 7.308594 0.3125 6.21875 0.3125 M 1.917969 -5.199219 L 1.917969 -6.480469 L 10.511719 -6.480469 L 10.511719 -5.199219 Z "/>
</g>
</g>
</defs>
<g fill="rgb(100%, 100%, 100%)" fill-opacity="1">
<use xlink:href="#glyph-0-0" x="30" y="42.208008"/>
<use xlink:href="#glyph-0-1" x="34" y="42.208008"/>
<use xlink:href="#glyph-0-2" x="46" y="42.208008"/>
<use xlink:href="#glyph-0-0" x="51" y="42.208008"/>
<use xlink:href="#glyph-0-3" x="55" y="42.208008"/>
<use xlink:href="#glyph-0-4" x="70" y="42.208008"/>
<use xlink:href="#glyph-0-5" x="82" y="42.208008"/>
<use xlink:href="#glyph-0-6" x="94" y="42.208008"/>
<use xlink:href="#glyph-0-7" x="106" y="42.208008"/>
<use xlink:href="#glyph-0-8" x="117" y="42.208008"/>
<use xlink:href="#glyph-0-9" x="129" y="42.208008"/>
<use xlink:href="#glyph-0-10" x="133" y="42.208008"/>
<use xlink:href="#glyph-0-9" x="137" y="42.208008"/>
<use xlink:href="#glyph-0-11" x="141" y="42.208008"/>
<use xlink:href="#glyph-0-7" x="153" y="42.208008"/>
<use xlink:href="#glyph-0-11" x="164" y="42.208008"/>
<use xlink:href="#glyph-0-12" x="176" y="42.208008"/>
</g>
</svg>
