<?xml version="1.0" encoding="UTF-8"?>
<svg xmlns="http://www.w3.org/2000/svg" xmlns:xlink="http://www.w3.org/1999/xlink" width="1920" height="1080" viewBox="0 0 1920 1080">
<defs>
<g>
<g id="glyph-0-0">
</g>
<g id="glyph-0-1">
<path d="M 2.261719 0 L 7.78125 -13.511719 L 0.832031 -13.511719 L 0.832031 -15 L 9.417969 -15 L 9.417969 -13.511719 L 3.90625 0 Z "/>
</g>
<g id="glyph-0-2">
<path d="M 1.738281 0 L 1.75 -1.78125 L 3.519531 -1.769531 L 3.53125 0 Z "/>
</g>
<g id="glyph-0-3">
<path d="M 1.457031 0 L 1.457031 -15 L 7.25 -15 C 7.394531 -15 7.5625 -14.996094 7.746094 -14.984375 C 7.929688 -14.972656 8.113281 -14.953125 8.300781 -14.917969 C 9.085938 -14.796875 9.75 -14.527344 10.296875 -14.097656 C 10.84375 -13.671875 11.253906 -13.136719 11.535156 -12.488281 C 11.816406 -11.84375 11.957031 -11.128906 11.957031 -10.34375 C 11.957031 -9.566406 11.816406 -8.855469 11.53125 -8.207031 C 11.246094 -7.5625 10.832031 -7.027344 10.285156 -6.597656 C 9.742188 -6.171875 9.078125 -5.898438 8.300781 -5.78125 C 8.113281 -5.753906 7.929688 -5.734375 7.746094 -5.71875 C 7.5625 -5.703125 7.394531 -5.699219 7.25 -5.699219 L 2.988281 -5.699219 L 2.988281 0 L 1.457031 0 M 2.988281 -7.15625 L 7.207031 -7.15625 C 7.332031 -7.15625 7.480469 -7.164062 7.644531 -7.175781 C 7.8125 -7.191406 7.976562 -7.214844 8.136719 -7.25 C 8.648438 -7.359375 9.070312 -7.574219 9.402344 -7.886719 C 9.730469 -8.199219 9.976562 -8.570312 10.140625 -9 C 10.304688 -9.429688 10.386719 -9.878906 10.386719 -10.34375 C 10.386719 -10.808594 10.304688 -11.257812 10.140625 -11.691406 C 9.976562 -12.125 9.730469 -12.5 9.402344 -12.8125 C 9.070312 -13.125 8.648438 -13.335938 8.136719 -13.449219 C 7.976562 -13.484375 7.8125 -13.503906 7.644531 -13.515625 C 7.480469 -13.527344 7.332031 -13.53125 7.207031 -13.53125 L 2.988281 -13.53125 Z "/>
</g>
<g id="glyph-0-4">
<path d="M 1.457031 0 L 1.457031 -11.25 L 2.832031 -11.25 L 2.832031 -8.542969 L 2.5625 -8.894531 C 2.6875 -9.230469 2.851562 -9.535156 3.050781 -9.816406 C 3.253906 -10.097656 3.472656 -10.328125 3.707031 -10.511719 C 4 -10.765625 4.339844 -10.964844 4.730469 -11.097656 C 5.117188 -11.234375 5.511719 -11.3125 5.90625 -11.339844 C 6.300781 -11.363281 6.664062 -11.332031 6.988281 -11.25 L 6.988281 -9.8125 C 6.578125 -9.917969 6.132812 -9.941406 5.644531 -9.886719 C 5.160156 -9.828125 4.710938 -9.636719 4.300781 -9.300781 C 3.925781 -9.011719 3.644531 -8.660156 3.457031 -8.253906 C 3.269531 -7.847656 3.144531 -7.417969 3.082031 -6.964844 C 3.019531 -6.507812 2.988281 -6.058594 2.988281 -5.613281 L 2.988281 0 Z "/>
</g>
<g id="glyph-0-5">
<path d="M 1.667969 -13.386719 L 1.667969 -15.105469 L 3.1875 -15.09375 L 3.199219 -13.386719 L 1.667969 -13.386719 M 1.667969 0 L 1.667969 -11.25 L 3.1875 -11.25 L 3.199219 0 Z "/>
</g>
<g id="glyph-0-6">
<path d="M 4.5 0 L 0.417969 -11.25 L 1.96875 -11.25 L 5.292969 -2 L 8.59375 -11.25 L 10.167969 -11.25 L 6.082031 0 Z "/>
</g>
<g id="glyph-0-7">
<path d="M 4.675781 0.3125 C 3.828125 0.3125 3.121094 0.160156 2.546875 -0.144531 C 1.972656 -0.453125 1.546875 -0.859375 1.261719 -1.363281 C 0.976562 -1.871094 0.832031 -2.421875 0.832031 -3.019531 C 0.832031 -3.632812 0.957031 -4.15625 1.203125 -4.589844 C 1.449219 -5.023438 1.785156 -5.378906 2.214844 -5.65625 C 2.640625 -5.933594 3.136719 -6.144531 3.699219 -6.292969 C 4.265625 -6.429688 4.898438 -6.554688 5.589844 -6.660156 C 6.28125 -6.769531 6.957031 -6.863281 7.621094 -6.941406 C 8.28125 -7.023438 8.863281 -7.101562 9.363281 -7.175781 L 8.824219 -6.84375 C 8.84375 -7.953125 8.628906 -8.777344 8.175781 -9.3125 C 7.726562 -9.847656 6.941406 -10.113281 5.824219 -10.113281 C 5.050781 -10.113281 4.402344 -9.941406 3.871094 -9.59375 C 3.339844 -9.246094 2.964844 -8.699219 2.75 -7.949219 L 1.261719 -8.386719 C 1.515625 -9.390625 2.035156 -10.171875 2.8125 -10.730469 C 3.589844 -11.285156 4.601562 -11.5625 5.84375 -11.5625 C 6.871094 -11.5625 7.746094 -11.371094 8.464844 -10.984375 C 9.183594 -10.597656 9.691406 -10.042969 9.988281 -9.3125 C 10.128906 -8.984375 10.21875 -8.621094 10.261719 -8.21875 C 10.300781 -7.816406 10.324219 -7.40625 10.324219 -6.988281 L 10.324219 0 L 8.957031 0 L 8.957031 -2.824219 L 9.355469 -2.65625 C 8.972656 -1.691406 8.378906 -0.953125 7.574219 -0.449219 C 6.765625 0.0585938 5.800781 0.3125 4.675781 0.3125 M 4.855469 -1.011719 C 5.570312 -1.011719 6.195312 -1.140625 6.730469 -1.394531 C 7.265625 -1.652344 7.695312 -2.003906 8.019531 -2.453125 C 8.347656 -2.902344 8.558594 -3.40625 8.65625 -3.96875 C 8.738281 -4.328125 8.785156 -4.726562 8.792969 -5.160156 C 8.796875 -5.59375 8.800781 -5.921875 8.800781 -6.136719 L 9.386719 -5.832031 C 8.863281 -5.765625 8.300781 -5.695312 7.691406 -5.625 C 7.085938 -5.554688 6.488281 -5.476562 5.902344 -5.386719 C 5.3125 -5.296875 4.785156 -5.1875 4.3125 -5.0625 C 3.992188 -4.972656 3.683594 -4.84375 3.386719 -4.683594 C 3.085938 -4.519531 2.84375 -4.300781 2.652344 -4.03125 C 2.460938 -3.761719 2.363281 -3.421875 2.363281 -3.019531 C 2.363281 -2.695312 2.445312 -2.378906 2.609375 -2.074219 C 2.773438 -1.765625 3.035156 -1.515625 3.402344 -1.3125 C 3.765625 -1.109375 4.25 -1.011719 4.855469 -1.011719 Z "/>
</g>
<g id="glyph-0-8">
<path d="M 6.125 0.3125 C 4.992188 0.3125 4.035156 0.0585938 3.25 -0.449219 C 2.464844 -0.953125 1.871094 -1.65625 1.464844 -2.546875 C 1.058594 -3.4375 0.847656 -4.464844 0.832031 -5.625 C 0.847656 -6.804688 1.0625 -7.84375 1.480469 -8.734375 C 1.894531 -9.625 2.496094 -10.320312 3.28125 -10.816406 C 4.066406 -11.3125 5.015625 -11.5625 6.136719 -11.5625 C 7.273438 -11.5625 8.265625 -11.285156 9.109375 -10.730469 C 9.953125 -10.171875 10.53125 -9.414062 10.84375 -8.449219 L 9.34375 -7.96875 C 9.078125 -8.640625 8.660156 -9.164062 8.089844 -9.535156 C 7.515625 -9.90625 6.859375 -10.09375 6.125 -10.09375 C 5.296875 -10.09375 4.613281 -9.90625 4.074219 -9.527344 C 3.53125 -9.148438 3.128906 -8.621094 2.863281 -7.949219 C 2.601562 -7.273438 2.464844 -6.5 2.457031 -5.625 C 2.472656 -4.277344 2.785156 -3.195312 3.394531 -2.378906 C 4.007812 -1.5625 4.917969 -1.15625 6.125 -1.15625 C 6.890625 -1.15625 7.539062 -1.332031 8.078125 -1.683594 C 8.617188 -2.03125 9.023438 -2.546875 9.300781 -3.21875 L 10.84375 -2.761719 C 10.425781 -1.761719 9.816406 -1 9.011719 -0.472656 C 8.203125 0.0507812 7.242188 0.3125 6.125 0.3125 Z "/>
</g>
<g id="glyph-0-9">
<path d="M 5.824219 0.3125 C 4.773438 0.3125 3.878906 0.0507812 3.136719 -0.472656 C 2.390625 -1 1.824219 -1.707031 1.425781 -2.605469 C 1.03125 -3.5 0.832031 -4.511719 0.832031 -5.636719 C 0.832031 -6.753906 1.03125 -7.761719 1.421875 -8.65625 C 1.8125 -9.550781 2.378906 -10.261719 3.113281 -10.78125 C 3.851562 -11.300781 4.734375 -11.5625 5.761719 -11.5625 C 6.816406 -11.5625 7.703125 -11.304688 8.425781 -10.792969 C 9.148438 -10.277344 9.695312 -9.574219 10.066406 -8.683594 C 10.4375 -7.789062 10.625 -6.773438 10.625 -5.636719 C 10.625 -4.515625 10.441406 -3.507812 10.074219 -2.609375 C 9.703125 -1.710938 9.164062 -1 8.449219 -0.472656 C 7.734375 0.0507812 6.859375 0.3125 5.824219 0.3125 M 5.980469 -1.113281 C 6.777344 -1.113281 7.4375 -1.308594 7.957031 -1.699219 C 8.480469 -2.085938 8.867188 -2.625 9.125 -3.308594 C 9.382812 -3.992188 9.511719 -4.765625 9.511719 -5.636719 C 9.511719 -6.515625 9.382812 -7.296875 9.125 -7.972656 C 8.867188 -8.652344 8.480469 -9.179688 7.964844 -9.5625 C 7.445312 -9.945312 6.796875 -10.136719 6.011719 -10.136719 C 5.203125 -10.136719 4.539062 -9.9375 4.011719 -9.542969 C 3.484375 -9.144531 3.09375 -8.609375 2.839844 -7.925781 C 2.585938 -7.246094 2.457031 -6.484375 2.457031 -5.636719 C 2.457031 -4.78125 2.589844 -4.011719 2.847656 -3.328125 C 3.109375 -2.644531 3.5 -2.105469 4.019531 -1.707031 C 4.542969 -1.3125 5.195312 -1.113281 5.980469 -1.113281 M 9.511719 0 L 9.511719 -8.46875 L 9.34375 -8.46875 L 9.34375 -15 L 10.886719 -15 L 10.886719 0 Z "/>
</g>
<g id="glyph-0-10">
<path d="M 6.21875 0.3125 C 5.121094 0.3125 4.171875 0.0703125 3.371094 -0.417969 C 2.566406 -0.902344 1.945312 -1.585938 1.5 -2.46875 C 1.054688 -3.351562 0.832031 -4.386719 0.832031 -5.574219 C 0.832031 -6.800781 1.050781 -7.863281 1.488281 -8.761719 C 1.925781 -9.65625 2.542969 -10.347656 3.339844 -10.832031 C 4.132812 -11.320312 5.074219 -11.5625 6.15625 -11.5625 C 7.265625 -11.5625 8.214844 -11.308594 9 -10.796875 C 9.785156 -10.285156 10.378906 -9.554688 10.78125 -8.605469 C 11.183594 -7.652344 11.367188 -6.515625 11.332031 -5.199219 L 9.769531 -5.199219 L 9.769531 -5.738281 C 9.742188 -7.199219 9.429688 -8.296875 8.828125 -9.042969 C 8.226562 -9.785156 7.351562 -10.15625 6.199219 -10.15625 C 4.988281 -10.15625 4.0625 -9.765625 3.421875 -8.980469 C 2.78125 -8.195312 2.457031 -7.078125 2.457031 -5.625 C 2.457031 -4.207031 2.78125 -3.109375 3.421875 -2.328125 C 4.0625 -1.546875 4.976562 -1.15625 6.15625 -1.15625 C 6.960938 -1.15625 7.664062 -1.34375 8.265625 -1.714844 C 8.867188 -2.085938 9.339844 -2.621094 9.6875 -3.324219 L 11.113281 -2.769531 C 10.671875 -1.792969 10.015625 -1.03125 9.152344 -0.496094 C 8.285156 0.0429688 7.308594 0.3125 6.21875 0.3125 M 1.917969 -5.199219 L 1.917969 -6.480469 L 10.511719 -6.480469 L 10.511719 -5.199219 Z "/>
</g>
</g>
</defs>
<g fill="rgb(100%, 100%, 100%)" fill-opacity="1">
<use xlink:href="#glyph-0-0" x="30" y="42.208008"/>
<use xlink:href="#glyph-0-1" x="34" y="42.208008"/>
<use xlink:href="#glyph-0-2" x="42" y="42.208008"/>
<use xlink:href="#glyph-0-0" x="47" y="42.208008"/>
<use xlink:href="#glyph-0-3" x="51" y="42.208008"/>
<use xlink:href="#glyph-0-4" x="63" y="42.208008"/>
<use xlink:href="#glyph-0-5" x="70" y="42.208008"/>
<use xlink:href="#glyph-0-6" x="74" y="42.208008"/>
<use xlink:href="#glyph-0-7" x="83" y="42.208008"/>
<use xlink:href="#glyph-0-8" x="94" y="42.208008"/>
<use xlink:href="#glyph-0-5" x="105" y="42.208008"/>
<use xlink:href="#glyph-0-9" x="109" y="42.208008"/>
<use xlink:href="#glyph-0-7" x="121" y="42.208008"/>
<use xlink:href="#glyph-0-9" x="132" y="42.208008"/>
<use xlink:href="#glyph-0-10" x="144" y="42.208008"/>
</g>
</svg>
