<?xml version="1.0" encoding="UTF-8"?>
<svg id="Camada_1" data-name="Camada 1" xmlns="http://www.w3.org/2000/svg" viewBox="0 0 582.53 646.09">
  <defs>
    <style>
      .cls-1 {
        fill: #e6e7ea;
      }

      .cls-2 {
        fill: #aa77c7;
      }

      .cls-3 {
        fill: #aeafbc;
      }

      .cls-4 {
        fill: #cea2ea;
      }
    </style>
  </defs>
  <path class="cls-3" d="M380.2,411.29l7.9-.22,23.1,19.94v-120.5l-78.56-78.44-1.42-2.58V60.53c14.99-17.73,33.36-33.08,48.98-50.52h-23.5c-1.45,0-18.52,20.36-20.87,19.93-.34-.06-5.32-3.76-5.5-4.06-1.84-3.16,10.12-12.79,11.86-15.87h-24v170c-2.58-.37-8.91,1.25-9.86-1.64l.86-40.36c-1.73-.45-2,.72-3,1.49-2.01,1.54-9.59,9.03-9.97,11.03l-.23,177.77-56.8,57.2v145.5c6.57-6.07,13.88-12.34,18.98-19.52l.23-118.77,56.79-56.21v-88.5c25.3,23.84,50.03,48.29,74.48,73.02l-1.58,90.04-7.9.22-.02-84.76c-4.73-6.8-11.77-12.82-17.98-18.52-.49-2.64-6.61-9.52-10-9,.09-1.36-.72-2.06-1.43-3.03-5.86-8.02-18.14-17.08-25.57-23.97v31.68l-.95,36.39s-37.12,38.02-55.11,55.37c-2.27,3.95-.35,13.47-.95,18.55-.68,5.8-1.5,5.62-1,13,1.98,29.29.77,58.89.8,88.3l-28.8,29.7h-10c.48-54.08-.53-108.21.2-162.3l56.8-58.2v-101.5c-1.68-.36-2.02.53-2.98,1.52-3.77,3.88-12.21,15.06-16.02,17.48-1.33.85-3.78.53-6.07,2.44s-3.3,5.6-4.93,7.56c-20.52,24.68-48.45,46.38-70,70.5v97.5c-1.75.44-2-.72-3.01-1.49-12.8-9.8-24.73-26.96-37.47-37.52-.66-12.59-.92-25.39-.52-37.98.09-2.73,1.65-5.55.98-9.51-.39-2.29-1.94-2.33-1.98-2.49-.26-1.02.7-18.73,1-21,.38-2.83,3.38-5.99,2-10,4.47-1.82,6.86-6.11,10-9s9.07-5.23,9-10c3.5-.56,7.6-6.27,10-9,2.77-1.45,5-3.09,7.05-5.5,1.1-1.29.76-3.24.95-3.5,3.05-4.14,20.52-19.5,26-25,3.15-3.16,8.98-4.74,8-10,1.43.21,2.35-.2,3.52-.94,1.25-.78,17.88-17.37,18.53-18.5.38-.67.93-1.23.92-2.08V64.52l-1.42-2.58L180.66,3.01l-1.49-3.01h224l-1.49,3.01-60.3,60.7-.26,160.85c.59,4.57,6.2,7.35,9.05,10.45,3.7,4.03,6.38,6.35,10,10,6.29,6.34,15.22,17.64,21.97,22.57.97.71,1.66,1.53,3.03,1.43-.28,3.55,6.14,9.54,9,10,3.24,3.24,11.03,13.36,15,14-.25,5.28,6.17,6.98,9,10,3.53,3.77,3.85,8.95,3,14-.15.89-2.13,2.12-2.11,4.5.02,2.16,1.83,3.47,2.11,5.5.55,3.99-.03,9.71,0,14,.03,3.24-.04,6.7,0,10,.4,30.64-.3,61.36,0,92-2.14-.49-11,0-11,0l-30-31.72M227.2,10c-1.67-1.07-21.18.8-25,0l48.8,49.7c-.14,50.88,1.32,102.26-.74,152.85-26.78,26.21-52.82,53.18-79.53,79.47-5.03,4.95-12,8.96-15.28,15.72l-.04,68.55,20.8,20.7v-78.5l109.8-110.2.41-62.59c6.97-8.59,16.51-15.29,22.77-24.23.03-12.34.02-24.68.06-37.02.02-4.29.02-8.63,0-12.92-.08-20.62-.43-41.01-1.04-61.54h-35v120.01h-9V47.5l-35.57-34.48c-1.03-.46-1.29-2.93-1.43-3.02h-.01ZM264.2,10h-24l24,24V10Z"/>
  <g>
    <path class="cls-2" d="M267.2,242l-.2,70.3-56.28,56.72-.72,105.28c-3.32,5.58-36.31,34.59-36.52,37.19-.06.75,6.24,12.96,6.88,13.35.76.47,7.3.13,10.4,1.1,11.96,3.75,14.18,22.03,3.38,29.49-13.74,9.49-30.21-2.79-26.5-18.51.64-2.71,4.35-6.58,4.12-7.98-.15-.87-3.78-7.62-4.55-8.45-1.23-1.31-1.06-1.88-2.52-.52-1.02.94-6.26,7.5-6.46,8.55l-.06,39.81c25.74,8.99,6.46,45.97-14.46,30.66-12.66-9.27-8.23-24.02,4.34-30.65l.6-44.4c14.11-16.38,30.8-30.27,44.55-46.95h-23.5l-47.05,47.94c-.82,2.63-.74,8.96.54,11.31.68,1.26,6.43,3.19,8.47,5.78,6.77,8.61,3.07,21.85-6.77,26.15-17.64,7.7-32.46-15.18-18.23-28.23,1.74-1.6,5.92-3.2,6.39-4.61,1.27-3.85-1.19-13.3.66-16.34.52-.85,2.9-1.81,4.03-2.97,5.69-5.88,44.57-48.03,47.97-48.03h34.5v-101.5l56.48-56.52c.8-17.46.72-35.02.54-52.5-.02-1.69.64-4.45-1.02-5.49,1.63-1.96,2.66-5.66,4.93-7.56s4.74-1.59,6.07-2.44v.02ZM178.52,536.31c-6.6,7.2,3.39,17.38,10.65,11.15,7.15-6.14-3.18-19.3-10.65-11.15ZM123.9,557.71c5.94-7.38-5.07-17.67-11.72-10.23-7.32,8.18,6.1,17.21,11.72,10.23ZM158.92,590.72c7.53-7.51-4.96-17.94-11.19-10.69s4.63,17.22,11.19,10.69Z"/>
    <path class="cls-2" d="M427.3,547.56v-64.59c-8.31-9.93-19.17-17.95-26.77-28.23l-.02-24.08c-4.55-4.05-9.43-7.77-13.88-11.94l-38.63,38.52-23.48-24.55c-2.1-1.15-9.23,5.71-6.08,8.12l34.85,35.16c.67,23.93-.17,47.9.16,71.83.04,3.32,2.11,4.49-.37,7.52-5.24,6.4-9.35-.51-15.06-1.09-6.63-.68-12.76,2.05-16.35,7.69-11.36,17.83,12.65,35.5,26.83,20.83,6.11-6.32,2.33-11.02,4.5-15.5,1.16-2.39,9.55-5.35,10.34-7.66l.19-84.86c1.19-4.11-8.35-9.55-7.95-11.84l35.93-34.64v31.5c0,2.02,8.16,3.65,6.32,11.31-.25,1.05-3.9,9.87-4.35,10.19-.2.15-2.39-1.05-4.98-.6-11.03,1.92-17.1,13-13.28,23.4,7.04,19.14,37.19,11.91,31.86-10.87-1.6-6.81-8.42-7.97-.07-16.91,2.23,3.24,8.86,7.47,10.55,10.43,3.91,6.82-.98,45.62.92,56.03-15.15,16.72-31.85,32.87-48.06,48.99-2.5,2.45-4.34-.2-7.39-.5-14.59-1.42-24.43,13.71-16.37,26.37,9.93,15.6,32.87,5.99,30.79-12.79-.22-2-2.4-3.73-1.51-5.52l51.35-51.73h.01ZM337.96,578.25c-12.29,2.28-12.13-13.89-2.81-14.72,8.86-.79,11.43,13.12,2.81,14.72ZM392.78,505.06c-10.39,2.32-12.5-12.79-3.54-14.62,10.04-2.05,12.77,12.56,3.54,14.62ZM362.96,615.25c-12.38,2.28-12.66-13.91-2.71-14.8,8.43-.76,11.05,13.26,2.71,14.8Z"/>
    <path class="cls-2" d="M465.2,442c-.14-.14-3.85-.14-4,0-1.03.98,2.54,11.18-3.57,12.03-8.58,1.2-3.84-9.59-5.94-13.02-.55-.89-2.9-1.75-4.04-2.96s-2.15-3.92-3.44-4.56c-3.71-1.83-11.6,3.17-11.97-4.09s6.85-5.22,11.96-5.4c2.29-8.01-8.99-.92-11.51-5.99-4.73-9.48,10.92-6.39,11.51-7.01.14-.14.14-3.85,0-3.99-1.01-1.06-11.63,2.72-11.94-4.57-.35-8.09,8.13-4.2,12.28-5.59,1.34-.45,2.28-3.07,3.68-4.34,1-.91,3.53-1.19,3.83-1.65,1.57-2.45-2.59-12,3.72-12.87,8.58-1.19,4.31,10.96,5.44,12.03.14.14,3.85.14,3.99,0,1.04-.99-3.06-14.91,7.3-11.81,4.84,1.45,1.79,10.93,2.71,11.81.14.14,3.85.14,3.99,0,.98-.93-3.03-14.58,6.29-11.83,4.68,1.38,1.57,8.52,3.2,11.84.6,1.21,3.24,2.26,4.51,3.49.97.94,1.48,2.85,2.46,3.61,2.12,1.63,15.47-3.27,12.34,7.19-1.27,4.25-8.31,2.34-11.81,2.71-2.3,8.01,9.02.92,11.5,5.99,5.15,10.52-10.43,5.88-11.5,7.01-.12.13-.1,2.74,0,3.49.24,1.69,11.7-2.13,12.11,5,.49,8.54-9.55,3.85-13.1,6.01-.94.58-1.47,2.62-2.45,3.55-1.28,1.22-3.93,2.27-4.39,3.61-1.28,3.74,2.51,14.73-6.2,11.92-6.84-2.21,1.41-12.18-6.96-12.58v68c2.15-.3,13-7.72,13-8.5v-29.5h10v34.5c-6.94,6.26-16.1,10.01-22.81,16.19l-.25,16.68c14.99,4.39,16.88,26.34,2.05,32.11-17.98,7-33.17-15.64-17.01-29.01,1.87-1.55,5.02-2.2,5.02-2.48v-97.02ZM454.2,400v32h31.5c3.29,0,.5-13.98.46-16.45-.09-5.44,1.17-10.14.92-15.44-10.63-1.04-21.94.46-32.88-.11ZM468.93,547.17c-8.89,1.85-7.85,17.11,3.54,14.63,9.22-2.01,6.5-16.72-3.54-14.63Z"/>
    <path class="cls-2" d="M147.2,300c1.38,4.01-1.62,7.17-2,10-8.61,1.69-33.38-2.48-39.98.52-.83.38-12.83,12.06-12.84,12.97l14.75,18.87-28.4,28.7c-2.33,2.52-7.97-4.29-7.42-6.36.87-3.34,22.36-20.72,22.82-23.34-1.29-2.01-7.48-10.61-9.29-10.29-3.37.6-39.07,40.82-45.69,45.37-1.2,2.09-1.57,15.33-.96,17.85.14.6,7.69,4.84,9.48,7.74,10.47,17-12.99,35.61-26.99,20.99-5.95-6.21-6.18-17.16-.48-23.55,1.55-1.74,7.92-4.58,8.06-5.15,1.48-6.13-2.3-16.28,1.51-22.29,15.47-13.66,28.9-29.45,43.45-44.05h-39.5c-.87,0-5.07,10.28-12.23,11.77-24.64,5.11-29.36-30.05-7.53-33.54,5.11-.82,11.05,1.18,14.75,4.78,2.15,2.09,3.2,6.47,6,7,14.62-1.47,32.91,1.93,47.06.05,5.52-.74,14.66-14.64,20.15-17.85l45.3-.2h-.02ZM21.91,317.3c-7.89-6.36-18.12,5.35-10.24,11.73,8.73,7.07,17.03-6.26,10.24-11.73ZM29.91,404.21c-6.09,1.82-6.38,12.93,1.26,14.4,12.52,2.41,12.23-18.44-1.26-14.4Z"/>
    <path class="cls-2" d="M409.2,293l67.3-.2,30.96-30.04c11.82-1.7,24.11-.34,36.08-.71,4.55-8.54,10.95-14.12,21.22-11.09,21.4,6.33,12.77,40.16-11.1,32.09-6.75-2.28-9.37-10.91-10.12-11.09-2.43-.58-28.95-.49-31.81.06-3.77.72-6.87,7.03-9.48,9.52-3.89,3.72-9.06,6.64-12.05,11.45h24.5c1.77,0,21.43,23.69,25.2,24.8,1.43.42,8.1.58,9.1,0,.42-.24,3.29-5.91,5.7-7.79,4.76-3.72,10.28-4.88,16.06-3.06,19.55,6.14,13.45,36.55-8.83,32.81-8.96-1.51-11.2-10.87-13.39-11.6-3.36-1.11-8.79.93-12.32-.68l-24.72-24.28-93.3-.2c-2.83-3.02-9.25-4.72-9-10h0ZM556.91,260.21c-7.89,2.36-5.22,17.69,5.34,14.36,8.84-2.79,5.88-17.72-5.34-14.36ZM562.92,316.21c-6.6,1.5-6.65,12.65.86,13.75,13.36,1.94,12.64-16.81-.86-13.75Z"/>
    <path class="cls-2" d="M145.2,343l-64.48,64.02-.52,82.49c.5,2.61,6.41,4.74,8.84,8.16,11.12,15.66-7.88,35.65-24.33,23.33-10.25-7.68-8.31-22.23,2.62-28.42,1.08-.61,2.87-.43,2.87-.58v-15h-32v-36h32v-36.5c24.7-24.51,48.49-49.88,74-73.5.04.15,1.6.2,1.98,2.49.67,3.97-.89,6.78-.98,9.51ZM70.2,450h-22v18h22v-18ZM72.93,500.2c-6.06,1.34-7.01,12.4-.77,14.35,13.71,4.29,14.55-17.39.77-14.35Z"/>
    <path class="cls-2" d="M421.2,341l58.98.52,47.02,47.98v51.5h29.5c2.18,0,2.18,10,0,10h-29.5v25c0,.4,4.39.86,6.99,3.51,17.19,17.49-9.9,41.6-24.84,23.84-8.21-9.77-4.03-24.14,7.91-27.97v-80.93l-1.01-3-40.76-40.24-54.3-.2c-.04-3.3.03-6.76,0-10h.01ZM521.85,484.3c-14.28.78-4.13,23.73,5.89,12.75,5.08-5.57.34-13.09-5.89-12.75Z"/>
    <path class="cls-2" d="M268.2,414l55.48,55.02.57,58.53-1,3c-8.91,9.33-19.27,17.86-27.03,27.97l-.08,53.85c25.25,8.95,6.37,45.22-14.87,30.06-11.85-8.46-8.06-25.46,4.98-30.1l.16-57.63,28.59-29.41-.31-51.28c-14.19-14.96-28.27-30.56-43.47-44.53-1.23-1.13-2.06-2.5-4.02-2.48-.5-7.38.32-7.2,1-13h0ZM285.46,623.26c-6.33,6.75,4.91,18.68,11.76,10.28,6.05-7.42-5.05-17.44-11.76-10.28h0Z"/>
    <path class="cls-2" d="M121.2,413.01h2.99c-.97-17.61,11.99-17.39,10.01,0,.97-.17,3.73.24,3.99,0,.99-.94-2.42-12.15,3.73-12.83,8.79-.96,4.96,8.76,6.79,12.81.18.4,5.31,6.58,5.69,6.8,2.64,1.54,11.14-2.1,12.62,2.93,2.76,9.37-11.59,5.12-11.85,6.87-.2,1.37.15,3,.03,4.42,4.69-1.42,12.13-1.73,12.06,4.54-.08,6.88-11.2,3.55-12.07,4.47-.14.14-.14,3.85,0,3.99.93.98,14.58-3.03,11.83,6.29-1.49,5.06-10.36,1.4-12.67,2.87-.28.18-1.09,3.17-2.12,4.38-1.1,1.29-3.64,2.36-3.82,2.67-1.11,1.9,1.73,16.56-6.91,13.07-5.06-2.04-2.95-7.88-3.31-12.28-6.89-1.51-2.82,4.53-4.21,9.29-2.75,9.48-14.48-1.44-8.79-9.28h-5c-1.13,1.11,3.52,16.64-7,11.49-3.97-1.94-.75-9.8-2.21-12.29-.23-.39-2.42-1.14-3.34-2.13-1.22-1.32-2.93-4.51-4.11-4.91-3.33-1.14-10.78,1.83-12.17-2.87-2.82-9.59,11.76-5.16,12.83-6.29.24-.26-.17-3.02,0-3.99-17.89,2.97-17.25-12.64,0-10.01.59-8.43-12.44.57-12.88-8.5-.34-7.01,10.09-3.2,12.68-4.71.38-.22,1.14-2.42,2.13-3.34,1.32-1.22,4.51-2.93,4.91-4.11,1.14-3.33-1.83-10.78,2.87-12.17,7.41-2.18,7.09,7.87,7.29,12.84v-.02ZM145.2,422h-32v32h32v-32Z"/>
    <path class="cls-2" d="M421.2,317l77.98.52,59.07,58.93c2.61,4.5-.39,12.48,1.11,16.89.5,1.48,7.16,4.73,9.27,7.73,5.56,7.92,3.85,18.24-3.94,23.93-16.49,12.05-38.66-11.12-20-28.01,1.39-1.26,3.81-1.45,4.52-2.73,1.22-2.21,1.54-9.9.47-12.24l-54.5-54.5-73.98-.52c-.28-2.04-2.08-3.34-2.11-5.5-.02-2.38,1.96-3.6,2.11-4.5ZM551.92,404.21c-7.36,1.67-5.95,14.1,1.94,14.5,11.32.56,11.86-17.63-1.94-14.5Z"/>
    <path class="cls-2" d="M421.2,443c1.75.4,24.64,23.76,24.98,25.52l.07,102.03c.13,1.21-.44,2.02-1,3-2.58,4.49-15.8,13.46-17.6,17.43-.5,1.1,1.33,2.9,1.49,4.57,2.74,29.01-37.71,26.08-32.72-.82,1.23-6.64,8.79-12.46,15.36-12.63,2.74-.07,7.4,2.25,9.38,1.43,1.05-.44,15.5-15.14,15.82-16.23l-.24-95.35c-7.54-9.27-16.65-17.42-25.12-25.92-1.07-1.07-1.24-2.83-1.43-3.02,1.64-1.05,8.86-.49,11,0h0ZM409.91,592.21c-6.38,1.91-6.46,14.08,1.95,14.5,11.99.6,10.94-18.35-1.95-14.5Z"/>
    <path class="cls-2" d="M157.2,291l-76.3-.2c-6.04-3.41-18.79-22.73-24.23-23.77-1.81-.35-11.33-.36-12.82.14-1.58.52-2.65,4.2-4.13,5.87-15.46,17.43-40.92-4.8-26.05-22.05,6.2-7.2,17.58-7.92,24.43-1.37,1.63,1.56,4.24,7.32,4.77,7.44,4.51,1.09,12.96-1.23,17.63.16s20.24,22.82,25.23,23.77l80.48.02c.07,4.77-5.82,7.07-9,10h-.01ZM23.91,255.19c-8.56,2.55-4.42,19.38,6.57,13.59,7.88-4.16,2.25-16.21-6.57-13.59Z"/>
    <path class="cls-2" d="M394.2,279c-2.86-.46-9.28-6.45-9-10l68.3-.2,31.73-31.27c2.46-2.42,4.48-6.34,8.02-8,1.69-.79,3.89-.16,4.78-.71.51-.31,3.14-7.17,6.84-9.66,18-12.13,37.17,13.1,20.81,26.81-10.33,8.66-22.74,3.24-27.97-7.96l-40.2,40.78-63.3.2h-.01ZM513.95,225.19c-9.21.78-9.43,15.66.75,15.67s9.58-16.54-.75-15.67Z"/>
    <path class="cls-2" d="M176.2,272l-77.3-.2-23.73-23.35c-8.74,2.44-16.25,3.22-22.49-4.42-10.25-12.55.45-30.55,16.78-27.78,6.48,1.1,12.61,8.14,13.52,14.51.53,3.69-1.75,8.99-1.25,10.29,1.59,4.16,17.71,15.21,20.17,20.97,25.59.22,51.22-.35,76.81-.04,1.69.02,4.44-.64,5.49,1.02-.19.26.14,2.22-.95,3.5-2.05,2.4-4.27,4.05-7.05,5.5h0ZM62.92,226.21c-6.92,1.57-6.36,12.92,1.25,14.4,11.51,2.24,13.23-17.68-1.25-14.4Z"/>
    <path class="cls-2" d="M362.2,308l-.2,81.3c-1.01,3.39-12.83,11.37-14.33,14.74-1.06,2.39,1.96,7.81,1.32,12.2-1.44,9.9-11.74,16.61-21.34,13.8-14.02-4.11-17.57-22.31-5.38-30.47,8.01-5.36,15.06-.29,18.9-2.05,1.24-.57,10.48-11.04,10.83-12.22l.2-86.3c3.39-.52,9.51,6.36,10,9h0ZM330.93,406.2c-9.5,1.25-8.15,15.46,1.72,14.78,9.75-.67,8.05-16.06-1.72-14.78Z"/>
    <path class="cls-2" d="M350.2,235l76.33.04c4.51-16.61,29.94-17.05,33.44-.31,4.71,22.55-25.9,30.27-33.44,9.23-20.27.25-40.57-.19-60.85.02-1.69.02-4.45-.64-5.49,1.02-3.62-3.65-6.3-5.97-10-10h0ZM440.93,232.2c-11.28,2.48-1.05,23.04,8.28,11.32,4.85-6.1-1.05-12.91-8.28-11.32Z"/>
    <path class="cls-2" d="M218.2,228c.98,5.26-4.85,6.84-8,10h-58.5c-2.83.34-2.8,3.61-4.49,5.5-15.56,17.42-40.48-2.98-27-21,7.29-9.74,19.92-7.96,27.43.55,1.41,1.59,1.3,4.79,4.06,4.94h66.5ZM130.91,226.22c-7.37,1.69-5.93,14.1,1.94,14.49,11.81.59,10.93-17.45-1.94-14.49Z"/>
    <path class="cls-2" d="M239.2,545l-.52,28.98-26.02,26.06c-.49,4.23,1.98,6.6,1.47,11.35-1.44,13.32-19.11,19.59-28.97,10.14-10.43-10-3.52-28.49,10.64-29.49,3.15-.22,5.69,1.66,8.08,1.69,5.44.07,19.05-19.59,24.37-23.17,1.95-3.4.9-20.22.95-25.55h10,0ZM191.48,614.72c5.14,5.13,15.02.34,12.51-8.01-3.27-10.92-21.57-1.02-12.51,8.01Z"/>
    <path class="cls-2" d="M294.9,511.11c2.12-.55,6.34,3.55,6.33,5.39,0,2.98-30.37,29.8-33.83,35.21l-.41,54.59c-3.32,3.29-26.21,27.98-28.16,27.63-.63-.11-6.67-5.45-5.2-6.92l24.35-24.71.41-54.59c5.93-4.61,32.29-35.5,36.5-36.6h.01Z"/>
  </g>
  <g>
    <path class="cls-1" d="M388.1,411.06l1.58-90.04c-24.45-24.73-49.18-49.18-74.48-73.02v88.5l-56.79,56.21-.23,118.77c-5.1,7.18-12.41,13.45-18.98,19.52v-145.5l56.8-57.2.23-177.77c.38-2,7.96-9.48,9.97-11.03,1-.77,1.27-1.94,3-1.49l-.86,40.36c.95,2.89,7.28,1.27,9.86,1.64V10.01h24c-1.74,3.08-13.7,12.71-11.86,15.87.17.3,5.16,4,5.5,4.06,2.35.43,19.42-19.93,20.87-19.93h23.5c-15.61,17.45-33.99,32.79-48.98,50.52v168.96l1.42,2.58,78.56,78.44v120.5l-23.1-19.94h-.01Z"/>
    <path class="cls-1" d="M227.2,10c.14.09.4,2.56,1.43,3.02l35.57,34.48v82.5h9.01V10h35c.62,20.53.96,40.92,1.04,61.54.02,4.29.02,8.63,0,12.92-.04,12.34-.03,24.68-.06,37.02-6.27,8.93-15.8,15.64-22.77,24.23l-.41,62.59-109.8,110.2v78.5l-20.8-20.7.04-68.55c3.29-6.75,10.26-10.77,15.28-15.72,26.7-26.29,52.75-53.26,79.53-79.47,2.06-50.59.6-101.97.74-152.85l-48.8-49.7c3.82.8,23.33-1.07,25,0h0Z"/>
  </g>
  <polygon class="cls-1" points="264.2 10 264.2 34 240.2 10 264.2 10"/>
  <g>
    <path class="cls-4" d="M454.2,400c10.94.58,22.25-.92,32.88.11.25,5.3-1.02,10-.92,15.44.04,2.47,2.83,16.45-.46,16.45h-31.5v-32Z"/>
    <rect class="cls-4" x="113.2" y="422" width="32" height="32"/>
  </g>
</svg>