<?xml version="1.0" encoding="UTF-8"?>
<!-- Generator: Adobe Illustrator 26.2.1, SVG Export Plug-In . SVG Version: 6.00 Build 0)  -->
<svg enable-background="new 0 0 444.8 440.5" version="1.1" viewBox="0 0 444.8 440.5" xml:space="preserve" xmlns="http://www.w3.org/2000/svg">
<style type="text/css">
	.st0{fill:url(#SVGID_1_);stroke:#170A09;stroke-width:5;stroke-miterlimit:10;}
	.st1{fill:#FFFFFF;stroke:#170A09;stroke-width:5;stroke-miterlimit:10;}
	.st2{fill:none;stroke:#000000;stroke-width:5;stroke-linecap:round;stroke-miterlimit:10;}
	.st3{opacity:0.9;fill:url(#SVGID_00000102542227922398304530000004685652384956103088_);enable-background:new    ;}
	.st4{stroke:#170A09;stroke-miterlimit:10;}
</style>
<linearGradient id="SVGID_1_" x1="147.52" x2="343.84" y1="482.47" y2="876.02" gradientTransform="translate(0 -401)" gradientUnits="userSpaceOnUse">
	<stop stop-color="#B30E05" offset="0"/>
	<stop stop-color="#A90A04" offset=".31"/>
	<stop stop-color="#920402" offset=".73"/>
	<stop stop-color="#8A0201" offset="1"/>
</linearGradient>
<path class="st0" d="m123.4 261.9c3.1 0.4 7 2.9 13.8 8.9 12.6 11.1 23.8 26.4 31.2 39.6 3.1 5.6 8.3 20.6 9.4 37.1 0.9 13.7-1 25.7-5.1 32.7-7.6 12.9-14.2 17.8-13.8 20.4 0.6 4 49.2 39.7 61.2 37.2s28.2-5.1 37.1-16.5 4.9-45.5 6.1-50.4 17.4-38.6 30.6-38.6 22.8 9.5 33.9 20.9 12.6 20 23.1 25.5c14.9 7.9 45.9 3.2 58.2 2.3s31.3-22.3 31.3-23.5c0-0.7-7.1-10.6-17-18.5-8.3-6.6-19.1-11.3-24.5-11.6-12-0.7-21.5 20-30.8 20s-28.6-13.5-29.9-21.9-1.3-29.9 1-36.5c3.1-8.5 27.3-33 34.7-32.1s22.2 22.4 33 22.1 33.2-33.2 35.3-48-30.6-45.3-37.6-45.9-25.4 16.9-28.2 17.2-21.4-19-21.4-19-52.7 4.1-60.4 2.6-38.9-17.7-38.9-45.1c0-18.5 35.5-76.3 37.9-86.2s-20-45.3-44.7-46.5c-7.3-0.4-20.6 16.6-27.5 30.5-7.4 14.8-12.1 20.7-10.5 69.1 0.1 3.8-18.2 23.8-28.5 19.7-2-0.8-5-58.3-5.3-61.4s-4.3-10.2-19.4-17.2-17.8-10-18.8-15.4c-2.3-12-2.8-31-10.4-31-9.2 0-20.1 31-29.4 37.6-18.5 13-33.4 23.5-44.7 25.5-13 2.3-42-1.1-43.7 6.9-1.7 8.2 28.3 29.8 31.4 34.6 3 4.6 3.8 43.5 14.6 52.1s50.7 16.7 53.4 22.9 7.1 13.4-3.1 24.6c-4.1 4.6-60-22.7-76.3-19.6-8.3 1.5-28.3 26.2-28.3 48.2 0 9.9 27.3 38.8 36.8 38.8 44.5-0.1 71.5-13.6 84.2-12.1z"/>
<path class="st1" d="m68.7 121.6s-14.5-38.9-3.9-44c8.6-5 36.5 25.5 36.5 25.5"/>
<polygon points="85.8 102 80.6 100.7 82 95.1 78.1 94.2 76.7 99.7 71.1 98.4 70.2 102.3 75.8 103.6 74.5 108.8 78.4 109.8 79.7 104.6 84.8 105.9"/>
<path d="m97.7 111.5c-1.8-0.7 2.5-7.3 7.5-11.4 5.4-4.5 11.2-5.8 12.9-4.7 2 1.2-2.1 17-2.1 17s-16.4-0.2-18.3-0.9z"/>
<path class="st2" d="m118.7 138.6 0.6 7c2.4 0.7 4.7 1.3 7.2 1.8 2.4 0.3 9.8-2.5 9.8-2.5 4.2-1.2 13-12.8 10-15.1l-6.2-5.2"/>
<linearGradient id="SVGID_00000087384626955012005680000013603214129230825908_" x1="91.889" x2="141.46" y1="472.12" y2="565.58" gradientTransform="translate(0 -401)" gradientUnits="userSpaceOnUse">
	<stop stop-color="#fff" stop-opacity="0" offset="0"/>
	<stop stop-color="#fff" stop-opacity=".08" offset=".07"/>
	<stop stop-color="#fff" stop-opacity=".1" offset=".15"/>
	<stop stop-color="#fff" stop-opacity=".33" offset=".32"/>
	<stop stop-color="#fff" stop-opacity=".54" offset=".55"/>
	<stop stop-color="#fff" stop-opacity=".68" offset=".74"/>
	<stop stop-color="#fff" stop-opacity=".77" offset=".9"/>
</linearGradient>
<polygon points="58.4 155.8 68 122.3 88.4 111.4 116.3 112.2 122.7 91.3 142.9 73.8 175.1 80.2 174.4 105 157.3 119 132.4 123.9 124 123.8 113 154.5 87 169.5" enable-background="new" fill="url(#SVGID_00000087384626955012005680000013603214129230825908_)" opacity=".9"/>
<path class="st1" d="m144.1 69.3c-0.6 12.3-13.7 22.3-27.8 23-16 0.7-32.7-11.5-31.8-24.2 0.9-12.3 17.1-22.7 31.6-22.6 15.1 0.1 28.5 11.9 28 23.8z"/>
<path class="st4" d="m129.8 77.1c-0.2-0.2-0.4-0.4-0.6-0.5l-9.9-5.2 7.8-8.1s0.6-2.1-0.6-2.7-3.1 0.5-3.1 0.5l-7.3 8.6-8.4-4.4s-2.2-1.2-2.9 0c-0.3 0.9-0.1 1.8 0.5 2.5l8.2 4.8-3.8 4.5s-2 2.2-0.9 3.1c1.4 1 3.7-1.6 3.7-1.6l4-4.2 10.5 6.1c0.3 0.2 0.7 0.3 1.1 0.3 0.8 0 2.1-0.1 2.6-1s-0.4-2.2-0.9-2.7z"/>
</svg>
