<?xml version="1.0" encoding="UTF-8"?>
<!-- Uploaded to: SVG Repo, www.svgrepo.com, Transformed by: SVG Repo Mixer Tools -->
<svg width="800px" height="800px" fill="#f7f7f7" stroke="#f7f7f7" preserveAspectRatio="xMidYMid" version="1.1" viewBox="0 -21 256 256" xmlns="http://www.w3.org/2000/svg">
 <g id="SVGRepo_iconCarrier">
  <defs>
   <linearGradient id="linearGradient-1" x1="5.6035%" x2="91.025%" y1="10.334%" y2="83.141%">
    <stop stop-color="#AA4A9B" offset="0"/>
    <stop stop-color="#F05922" offset="1"/>
   </linearGradient>
   <linearGradient id="linearGradient-2" x1="1.9629%" x2="97.366%" y1="101.05%" y2="13.164%">
    <stop stop-color="#FFE42E" offset="0"/>
    <stop stop-color="#ED417C" offset="1"/>
   </linearGradient>
   <linearGradient id="linearGradient-3" x1="12.267%" x2="99.472%" y1="92.394%" y2="-3.9445%">
    <stop stop-color="#FFE42E" offset="0"/>
    <stop stop-color="#F05922" offset="1"/>
   </linearGradient>
  </defs>
  <path d="m145.92 103.06-112.29-97.652c-5.5652-5.2365-13.656-6.7844-20.761-3.9718-7.1051 2.8125-11.944 9.4785-12.417 17.105-0.47322 7.6268 3.5047 14.84 10.208 18.509l126.3 78.408 0.57337 0.35836c3.5229 2.3156 8.2559 1.3369 10.571-2.186 2.3156-3.5229 1.3369-8.2559-2.186-10.571z" fill="url(#linearGradient-1)"/>
  <path d="m255.79 118.66c-0.3947-9.8623-5.9745-18.781-14.671-23.449-8.6963-4.6685-19.213-4.391-27.651 0.72963l-157.68 89.75-0.26877 0.14334c-4.6538 1.9684-7.904 6.2701-8.5262 11.285s1.4781 9.9801 5.5097 13.026 9.3821 3.71 14.036 1.7416l171.8-66.296 0.43003-0.17918c10.686-4.5085 17.464-15.162 17.022-26.751z" fill="url(#linearGradient-2)"/>
  <path d="m128.81 114.49c1.828-3.5453 0.61804-7.9002-2.7768-9.9944-3.3948-2.0942-7.8297-1.2214-10.178 2.0031l-66.564 84.464-0.14334 0.28668c-2.896 4.3951-3.1106 10.035-0.55682 14.638 2.5538 4.6024 7.4529 7.405 12.715 7.2735 5.2618-0.13147 10.015-3.1753 12.336-7.8995l54.703-90.019c0.16958-0.24172 0.32512-0.49298 0.46586-0.75255z" fill="url(#linearGradient-3)"/>
  <rect x="81.718" y="63.783" width="91.416" height="91.416" fill="#000"/>
  <path d="m101.3 94.924c0.62906 0.64572 0.97138 1.5177 0.94964 2.4189 0.030662 1.484-0.89394 2.8203-2.2935 3.3148 1.7312 0.30748 2.9835 1.8255 2.9564 3.5836 0 2.5622-2.0785 4.1032-5.6441 4.1032h-7.6867v-14.746h7.6509c1.4782-0.11678 2.942 0.3604 4.0673 1.3259zm-4.5332 7.5075h-3.1535v2.7414h3.1894c1.2722 0 1.971-0.48378 1.971-1.3617 0.017918-0.89589-0.6092-1.3797-2.0068-1.3797zm-0.35836-5.5008h-2.7056v2.616h2.5981c1.2542 0 1.971-0.43003 1.971-1.2901l-0.071671-0.053753c0-0.82422-0.66296-1.2722-1.7918-1.2722zm29.17-3.4402 6.3429 15.015h-4.4257l-1.0571-2.6877h-5.7874l-1.0571 2.6877h-4.3182l0.015096-0.035836h-2.7565l-3.0102-4.5153h-1.7918v4.5153h-4.1211v-14.872h6.97c1.7671-0.14285 3.5173 0.43194 4.8557 1.5947 0.90553 0.92427 1.3859 2.1835 1.3259 3.476 0.081638 2.0359-1.1545 3.8937-3.0639 4.6049l2.3471 3.4033 5.5546-13.186h3.9777zm-2.0605 4.8915-1.6843 4.2107h3.3506l-1.6664-4.2107zm-13.116-1.2005h-2.7235v3.5836h2.7414c0.54387 0.13471 1.1194 0.007258 1.5556-0.34448 0.43615-0.35173 0.68265-0.88724 0.66621-1.4473 0.017996-0.5641-0.23084-1.1037-0.67155-1.4563s-1.0218-0.47689-1.5682-0.3355zm-20.803 40.87h34.277v5.7158h-34.277v-5.7158zm-0.37627-50.206 2.6518-2.5085c0.51783 0.80767 1.3897 1.3201 2.3472 1.3797 0.51041-0.023984 0.98629-0.26474 1.308-0.66173 0.3217-0.39699 0.4586-0.91244 0.37628-1.4167v-9.4247h4.1032v9.4427c0.11705 1.5414-0.41566 3.0616-1.4693 4.1928-1.1035 1.0314-2.5764 1.574-4.0852 1.5051-2.0558 0.10137-4.0237-0.84217-5.232-2.5085zm11.736-12.632h11.987v3.494h-7.9017v2.2756h7.1671v3.261h-7.1671v2.3651h8.0092v3.5836h-12.094v-14.908-0.071671zm17.398 3.6194h-4.4436v-3.5836h13.044v3.5836h-4.4615v11.288h-4.1211v-11.288h-0.017918zm14.048 14.764h4.1211v14.908h-4.1211v-14.908zm5.1603 0h3.8523l6.1279 7.8838v-7.8838h4.0852v14.908h-3.5836l-6.3787-8.1705v8.1705h-4.0852v-14.908h-0.017918zm14.316 12.686 2.2935-2.7414c1.3595 1.1342 3.0675 1.7667 4.8378 1.7918 1.1288 0 1.7918-0.37627 1.7918-1.0213s-0.48378-0.94964-2.5264-1.4513c-3.1714-0.71671-5.6262-1.6126-5.6262-4.6586 0-2.7593 2.186-4.7661 5.7695-4.7661 2.2113-0.087184 4.382 0.61102 6.1279 1.971l-2.0605 2.9206c-1.2064-0.90936-2.6648-1.4226-4.1748-1.4693-1.0034 0-1.4872 0.41211-1.4872 0.94964 0 0.68087 0.51962 0.98548 2.5981 1.4513 3.4044 0.75255 5.5366 1.7918 5.5366 4.6407 0 3.046-2.401 4.8557-6.0204 4.8557-2.5777 0.07545-5.0923-0.80528-7.0596-2.4726z" fill="#fff"/>
 </g>
</svg>
