<?xml version="1.0" encoding="UTF-8"?>
<!-- Uploaded to: SVG Repo, www.svgrepo.com, Transformed by: SVG Repo Mixer Tools -->
<svg width="800px" height="800px" fill="#000000" preserveAspectRatio="xMidYMid" version="1.1" viewBox="0 -182 512 512" xmlns="http://www.w3.org/2000/svg">
 <g id="SVGRepo_iconCarrier">
  <defs>
   <linearGradient id="linearGradient-1" x1="50%" x2="50%" y2="100%">
    <stop stop-color="#16B0ED" stop-opacity=".80024" offset="0"/>
    <stop stop-color="#0F59B2" stop-opacity=".837" offset="1"/>
   </linearGradient>
   <linearGradient id="linearGradient-2" x1="50%" x2="50%" y2="100%">
    <stop stop-color="#7DB643" offset="0"/>
    <stop stop-color="#367533" offset="1"/>
   </linearGradient>
   <linearGradient id="linearGradient-3" x1="50%" x2="50%" y2="100%">
    <stop stop-color="#88C649" stop-opacity=".8" offset="0"/>
    <stop stop-color="#439240" stop-opacity=".84" offset="1"/>
   </linearGradient>
  </defs>
  <path d="m0.018804 32.188 31.313-31.615-6e-7 147-31.313-31.25v-84.134z" fill="url(#linearGradient-1)"/>
  <path transform="translate(105.25 74.081) scale(-1 1) translate(-105.25 -74.081)" d="m89.484 32.486 31.742-31.896-0.64343 146.98-31.313-31.25 0.21448-83.835z" fill="url(#linearGradient-2)"/>
  <path d="m31.311 0.59813 81.412 124.23-22.781 22.781-81.454-123.96 22.824-23.056z" fill="url(#linearGradient-3)"/>
  <path d="m31.339 58.22-0.043302 4.8931-25.136-37.11 2.3275-2.371 22.852 34.587z" fill="#000" fill-opacity=".13"/>
  <g transform="translate(156.58 20.785)" fill="#444">
   <g transform="translate(0 20.092)">
    <path d="m0 65.819v-62.05h3.2249c1.0741 0 1.6943 0.52009 1.8605 1.559l0.55816 9.3542c2.8119-3.5746 6.0877-6.4544 9.8298-8.6371 3.7409-2.1826 7.9073-3.274 12.497-3.274 3.3899 0 6.3779 0.5413 8.9616 1.6214 2.5837 1.0813 4.7233 2.6404 6.4188 4.6771 1.6956 2.038 2.9769 4.49 3.8451 7.3586 0.86825 2.8686 1.3024 6.1114 1.3024 9.7284v39.662h-5.8917v-39.662c0-5.8208-1.3235-10.383-3.9691-13.688-2.6469-3.3052-6.6979-4.9577-12.156-4.9577-4.0535 0-7.8143 1.0502-11.287 3.1492-3.473 2.1003-6.5739 4.9789-9.3027 8.6371v46.522h-5.8917z"/>
    <path d="m85.65 2.7713c3.5103 0 6.7586 0.6013 9.7474 1.8051 2.9875 1.2038 5.5789 2.9567 7.7729 5.2598 2.194 2.3031 3.9065 5.1353 5.1401 8.4966 1.2324 3.3613 1.8492 7.2206 1.8492 11.578 0 0.91253-0.1354 1.535-0.40745 1.8674-0.27205 0.3324-0.69956 0.49797-1.2825 0.49797h-45.01v1.1827c0 4.6473 0.54285 8.7356 1.6298 12.263 1.0857 3.5269 2.6327 6.4836 4.6386 8.8701 2.0059 2.3865 4.4293 4.1805 7.2714 5.3843 2.8409 1.2038 6.0177 1.8051 9.528 1.8051 3.1342 0 5.851-0.34235 8.149-1.0271 2.298-0.68471 4.2312-1.4528 5.7983-2.3031 1.5671-0.85028 2.8108-1.6184 3.7297-2.3031 0.91896-0.68471 1.5884-1.0271 2.0059-1.0271 0.54285 0 0.96158 0.2079 1.2537 0.62246l1.6298 1.9919c-1.003 1.2449-2.3294 2.4077-3.9805 3.4858-1.6511 1.0794-3.4903 2.0031-5.5162 2.77-2.0272 0.76812-4.1999 1.3794-6.5192 1.8363-2.3193 0.45564-4.6487 0.68471-6.9893 0.68471-4.2625 0-8.149-0.737-11.659-2.2097-3.5103-1.4727-6.5229-3.6202-9.0366-6.4425-2.5149-2.8222-4.4581-6.2769-5.8297-10.364-1.3728-4.0871-2.0586-8.7668-2.0586-14.037 0-4.4394 0.63687-8.5377 1.9119-12.294 1.275-3.7559 3.1129-6.9927 5.5162-9.7104 2.4021-2.7177 5.3482-4.844 8.8385-6.3802 3.4878-1.535 7.4482-2.3031 11.879-2.3031zm0.39687 4.157c-3.2532 0-6.1688 0.4862-8.7455 1.4586-2.578 0.97239-4.8056 2.3702-6.6854 4.1934-1.8798 1.8232-3.4005 4.0111-4.5631 6.5636-1.1627 2.5525-1.9319 5.4089-2.3127 8.5692h41.57c0-3.2417-0.46583-6.1479-1.395-8.7211-0.9304-2.572-2.2391-4.7501-3.9285-6.5332-1.6894-1.7819-3.7178-3.1493-6.0838-4.1023-2.3647-0.95173-4.9833-1.4282-7.8557-1.4282z"/>
    <path d="m144.49 2.7713c4.5218 0 8.5693 0.75691 12.141 2.272 3.5707 1.5151 6.5823 3.6626 9.0346 6.4425 2.4511 2.7799 4.3214 6.1313 5.611 10.053 1.2896 3.9215 1.9337 8.3099 1.9337 13.165s-0.64542 9.2336-1.9337 13.134c-1.2896 3.9016-3.1599 7.2417-5.611 10.022-2.4524 2.7799-5.4639 4.9175-9.0346 6.4114-3.572 1.4939-7.6195 2.2409-12.141 2.2409-4.523 0-8.5693-0.74696-12.141-2.2409-3.572-1.4939-6.5937-3.6314-9.0663-6.4114-2.4726-2.7799-4.3544-6.1213-5.6427-10.022-1.2896-3.9004-1.9337-8.2788-1.9337-13.134s0.64416-9.2436 1.9337-13.165c1.2896-3.9215 3.1701-7.2716 5.6427-10.053 2.4726-2.7799 5.4943-4.9274 9.0663-6.4425 3.572-1.5138 7.6183-2.272 12.141-2.272zm-0.34693 59.583c3.7007 0 6.9324-0.63626 9.6976-1.91 2.764-1.2738 5.0715-3.0999 6.9224-5.4796 1.8497-2.3797 3.2317-5.2491 4.1472-8.6108 0.91301-3.3604 1.372-7.1279 1.372-11.304 0-4.1332-0.45775-7.8906-1.372-11.272-0.91551-3.3817-2.2975-6.2724-4.1472-8.6734-1.8497-2.3998-4.1572-4.2472-6.9224-5.5422-2.7652-1.2938-5.9982-1.9413-9.6976-1.9413-3.6994 0-6.9337 0.64753-9.6976 1.9413-2.7652 1.2951-5.0727 3.1425-6.9224 5.5422-1.851 2.401-3.2429 5.2917-4.1784 8.6734-0.93546 3.3817-1.4032 7.1391-1.4032 11.272 0 4.1745 0.46773 7.9432 1.4032 11.304 0.93546 3.3617 2.3274 6.2311 4.1784 8.6108 1.8497 2.3797 4.1572 4.2058 6.9224 5.4796 2.764 1.2738 5.9969 1.91 9.6976 1.91z"/>
    <path d="m210.32 64.433h-13.891l-25.302-63.74h12.713c1.1163 0 2.0564 0.26962 2.8217 0.80762 0.76402 0.53924 1.2924 1.2214 1.5814 2.0501l12.279 34.044c0.702 1.988 1.2924 3.935 1.7674 5.8397 0.47503 1.906 0.89921 3.8107 1.2713 5.7155 0.37209-1.9048 0.79503-3.8095 1.2713-5.7155 0.47503-1.9048 1.0853-3.8517 1.8294-5.8397l12.589-34.044c0.28899-0.82875 0.80619-1.5109 1.5504-2.0501 0.74417-0.538 1.6322-0.80762 2.6666-0.80762h12.093l-25.24 63.74z"/>
    <rect x="239.03" y="1.3857" width="15.935" height="63.74"/>
    <path d="m265.35 65.126v-64.126h9.439c2.0001 0 3.3113 0.93751 3.9364 2.8125l1 4.7501c1.125-1.25 2.3026-2.3963 3.5314-3.4375 1.2288-1.0413 2.5413-1.9375 3.9376-2.6875 1.395-0.75001 2.8951-1.3438 4.5001-1.7813 1.6038-0.43751 3.3638-0.65626 5.2827-0.65626 4.0401 0 7.364 1.0938 9.969 3.2813 2.6038 2.1875 4.5526 5.0938 5.8439 8.7189 1-2.125 2.2501-3.9476 3.7501-5.4688 1.5-1.52 3.1463-2.76 4.9376-3.7188 1.7913-0.95751 3.6976-1.6663 5.7189-2.125 2.0201-0.45876 4.0514-0.68751 6.0939-0.68751 3.5414 0 6.6877 0.54251 9.4378 1.625 2.7501 1.0838 5.0626 2.6663 6.9377 4.7501 1.8751 2.0838 3.3026 4.6251 4.2814 7.6251 0.97878 3 1.47 6.4376 1.47 10.313v40.813h-15.439v-40.813c0-4.0838-0.89628-7.1563-2.6863-9.2189-1.7926-2.0625-4.4176-3.0938-7.8765-3.0938-1.5838 0-3.0513 0.27125-4.4051 0.81251-1.355 0.54251-2.5426 1.3238-3.5639 2.3438-1.02 1.0213-1.8226 2.3025-2.4063 3.8438-0.58377 1.5413-0.87503 3.3125-0.87503 5.3126v40.813h-15.499v-40.813c0-4.2913-0.86503-7.4163-2.5938-9.3751-1.7301-1.9575-4.2814-2.9375-7.6565-2.9375-2.2101 0-4.2814 0.55251-6.2189 1.6563-1.9388 1.1038-3.7401 2.615-5.4064 4.5313v46.938h-15.44z"/>
   </g>
   <rect x="239.03" width="15.935" height="13.164"/>
  </g>
 </g>
</svg>
