<?xml version="1.0" encoding="UTF-8"?>
<!-- Uploaded to: SVG Repo, www.svgrepo.com, Generator: SVG Repo Mixer Tools -->
<svg width="800px" height="800px" fill="none" version="1.1" viewBox="0 0 32 32" xmlns="http://www.w3.org/2000/svg">
 <g clip-path="url(#clip0_87_8030)">
  <path d="m22.446 5.0288 9.3258 7.8172-3.3372 6.8114-5.6686-1.5543h-4.8457l4.5257-13.074z" fill="url(#paint0_linear_87_8030)"/>
  <path d="m13.029 10.103-1.8286 9.5542-0.1829 3.2915-4.5257 1.9657-6.4914 0.6857 1.9657-20.709 11.703-4.8914 7.2228 4.7543-7.8628 5.3486z" fill="url(#paint1_linear_87_8030)"/>
  <path d="m13.029 10.103 0.8685 18.469-2.9257 3.4286-10.971-6.4 9.0057-13.44 4.0229-2.0572z" fill="url(#paint2_linear_87_8030)"/>
  <path d="m25.097 8.7314h-11.109l9.8286-8.7314 1.28 8.7314z" fill="url(#paint3_linear_87_8030)"/>
  <path d="m32 28.617-9.7829 3.3372-12.983-3.6572 3.7943-18.194 1.5085-1.3715 7.9086-0.73143-0.7314 7.9543 6.3085-2.4229 3.9772 15.086z" fill="url(#paint4_linear_87_8030)"/>
  <path d="m6.126 6.1255h19.749v19.749h-19.749v-19.749z" fill="#000"/>
  <g fill="#fff">
   <path d="M8 22.1714H15.4057V23.4057H8V22.1714Z"/>
   <path d="m7.9551 8.7314h3.2914c1.9657 0 3.1543 1.1428 3.1543 2.8342 0 1.8743-1.4629 2.9257-3.2914 2.9257h-1.3715v2.4229h-1.7829v-8.1828zm3.2 4.1142c0.9143 0 1.4171-0.5943 1.4171-1.28 0-0.8228-0.5486-1.2343-1.4628-1.2343h-1.3715v2.5143h1.4172z"/>
   <path d="m15.132 12.846c0-2.3315 1.7372-4.2515 4.2515-4.2515 1.5543 0 2.4685 0.50286 3.2457 1.28l-1.1429 1.3258c-0.64-0.5943-1.28-0.9143-2.1028-0.9143-1.3715 0-2.3772 1.1428-2.3772 2.56 0 1.4171 0.96 2.5143 2.3772 2.5143 0.9143 0 1.5085-0.3658 2.1485-0.96l1.1429 1.1428c-0.8229 0.9143-1.7829 1.4629-3.3371 1.4629-2.4229 0.0457-4.2058-1.8286-4.2058-4.16z"/>
  </g>
 </g>
 <defs>
  <linearGradient id="paint0_linear_87_8030" x1="11.428" x2="30.471" y1="12.364" y2="12.364" gradientUnits="userSpaceOnUse">
   <stop stop-color="#21D789" offset="0"/>
   <stop stop-color="#07C3F2" offset="1"/>
  </linearGradient>
  <linearGradient id="paint1_linear_87_8030" x1="-11.227" x2="27.986" y1="27.008" y2="-1.9388" gradientUnits="userSpaceOnUse">
   <stop stop-color="#FCF84A" offset=".011"/>
   <stop stop-color="#A7EB62" offset=".112"/>
   <stop stop-color="#5FE077" offset=".206"/>
   <stop stop-color="#32DA84" offset=".273"/>
   <stop stop-color="#21D789" offset=".306"/>
   <stop stop-color="#21D789" offset=".577"/>
   <stop stop-color="#21D789" offset=".597"/>
   <stop stop-color="#20D68C" offset=".686"/>
   <stop stop-color="#1ED497" offset=".763"/>
   <stop stop-color="#19D1A9" offset=".835"/>
   <stop stop-color="#13CCC2" offset=".904"/>
   <stop stop-color="#0BC6E1" offset=".971"/>
   <stop stop-color="#07C3F2" offset="1"/>
  </linearGradient>
  <linearGradient id="paint2_linear_87_8030" x1="4.2651" x2="10.806" y1="35.499" y2="14.976" gradientUnits="userSpaceOnUse">
   <stop stop-color="#21D789" offset="0"/>
   <stop stop-color="#24D788" offset=".164"/>
   <stop stop-color="#2FD886" offset=".305"/>
   <stop stop-color="#41DA82" offset=".437"/>
   <stop stop-color="#5ADC7D" offset=".564"/>
   <stop stop-color="#7AE077" offset=".688"/>
   <stop stop-color="#A1E36E" offset=".809"/>
   <stop stop-color="#CFE865" offset=".925"/>
   <stop stop-color="#F1EB5E" offset="1"/>
  </linearGradient>
  <linearGradient id="paint3_linear_87_8030" x1="12.925" x2="27.158" y1="17.656" y2="-1.4793" gradientUnits="userSpaceOnUse">
   <stop stop-color="#21D789" offset="0"/>
   <stop stop-color="#24D788" offset=".061"/>
   <stop stop-color="#2FD886" offset=".113"/>
   <stop stop-color="#41DA82" offset=".162"/>
   <stop stop-color="#5ADD7D" offset=".209"/>
   <stop stop-color="#79E077" offset=".255"/>
   <stop stop-color="#7CE076" offset=".258"/>
   <stop stop-color="#8CE173" offset=".499"/>
   <stop stop-color="#B2E56B" offset=".925"/>
  </linearGradient>
  <linearGradient id="paint4_linear_87_8030" x1="34.692" x2="6.0152" y1="20.091" y2="19.826" gradientUnits="userSpaceOnUse">
   <stop stop-color="#FCF84A" offset=".387"/>
   <stop stop-color="#ECF451" offset=".536"/>
   <stop stop-color="#C2E964" offset=".826"/>
   <stop stop-color="#B2E56B" offset=".925"/>
  </linearGradient>
  <clipPath id="clip0_87_8030">
   <rect width="32" height="32" fill="#fff"/>
  </clipPath>
 </defs>
</svg>
