<!DOCTYPE svg PUBLIC "-//W3C//DTD SVG 1.1//EN" "http://www.w3.org/Graphics/SVG/1.1/DTD/svg11.dtd">
<!-- Uploaded to: SVG Repo, www.svgrepo.com, Transformed by: SVG Repo Mixer Tools -->
<svg version="1.1" id="Layer_1" xmlns="http://www.w3.org/2000/svg" xmlns:xlink="http://www.w3.org/1999/xlink" viewBox="0 0 501.333 501.333" xml:space="preserve" width="800px" height="800px" fill="#ffffff" stroke="#ffffff" stroke-width="2.5066650000000004" data-darkreader-inline-fill="" data-darkreader-inline-stroke="" style="--darkreader-inline-fill: var(--darkreader-background-ffffff, #0a0c0d); --darkreader-inline-stroke: var(--darkreader-text-ffffff, #ffffff);">
<g id="SVGRepo_bgCarrier" stroke-width="0"/>
<g id="SVGRepo_tracerCarrier" stroke-linecap="round" stroke-linejoin="round" stroke="#CCCCCC" stroke-width="1.002666" data-darkreader-inline-stroke="" style="--darkreader-inline-stroke: var(--darkreader-text-cccccc, #ded8d0);"/>
<g id="SVGRepo_iconCarrier"> <path style="fill: rgb(30, 30, 31); --darkreader-inline-fill: var(--darkreader-text-1e1e1f, #eee9e3);" d="M458.667,241.067c0,11.733-8.533,21.333-20.267,21.333H62.933c-10.667,0-20.267-9.6-20.267-21.333 V21.333C42.667,9.6,51.2,0,62.933,0H438.4c10.667,0,20.267,9.6,20.267,21.333L458.667,241.067L458.667,241.067z" data-darkreader-inline-fill=""/> <path style="fill: rgb(30, 30, 31); --darkreader-inline-fill: var(--darkreader-text-1e1e1f, #eee9e3);" d="M62.933,249.6c-5.333,0-8.533-4.267-8.533-9.6V21.333c0-5.333,4.267-9.6,8.533-9.6H438.4 c5.333,0,8.533,4.267,8.533,9.6v219.733c0,5.333-4.267,9.6-8.533,9.6H62.933V249.6z" data-darkreader-inline-fill=""/> <rect x="166.4" y="262.4" style="fill: rgb(30, 30, 31); --darkreader-inline-fill: var(--darkreader-text-1e1e1f, #eee9e3);" width="168.533" height="61.867" data-darkreader-inline-fill=""/> <path style="fill: rgb(30, 30, 31); --darkreader-inline-fill: var(--darkreader-text-1e1e1f, #eee9e3);" d="M363.733,317.867H137.6c-18.133,0-34.133,10.667-34.133,23.467h294.4 C397.867,328.533,382.933,317.867,363.733,317.867z" data-darkreader-inline-fill=""/> <rect y="342.4" style="fill: rgb(30, 30, 31); --darkreader-inline-fill: var(--darkreader-text-1e1e1f, #eee9e3);" width="501.333" height="158.933" data-darkreader-inline-fill=""/> <g> <rect x="268.8" y="375.467" style="fill: rgb(30, 30, 31); --darkreader-inline-fill: var(--darkreader-text-1e1e1f, #eee9e3);" width="194.133" height="45.867" data-darkreader-inline-fill=""/> <rect x="28.8" y="364.8" style="fill: rgb(30, 30, 31); --darkreader-inline-fill: var(--darkreader-text-1e1e1f, #eee9e3);" width="11.733" height="113.067" data-darkreader-inline-fill=""/> <rect x="60.8" y="364.8" style="fill: rgb(30, 30, 31); --darkreader-inline-fill: var(--darkreader-text-1e1e1f, #eee9e3);" width="11.733" height="113.067" data-darkreader-inline-fill=""/> <rect x="91.733" y="364.8" style="fill: rgb(30, 30, 31); --darkreader-inline-fill: var(--darkreader-text-1e1e1f, #eee9e3);" width="11.733" height="113.067" data-darkreader-inline-fill=""/> <rect x="122.667" y="364.8" style="fill: rgb(30, 30, 31); --darkreader-inline-fill: var(--darkreader-text-1e1e1f, #eee9e3);" width="11.733" height="113.067" data-darkreader-inline-fill=""/> <rect x="153.6" y="364.8" style="fill: rgb(30, 30, 31); --darkreader-inline-fill: var(--darkreader-text-1e1e1f, #eee9e3);" width="11.733" height="113.067" data-darkreader-inline-fill=""/> </g> <circle style="fill: rgb(178, 31, 31); --darkreader-inline-fill: var(--darkreader-text-b21f1f, #fe5656);" cx="225.067" cy="400" r="11.733" data-darkreader-inline-fill=""/> <circle style="fill: rgb(60, 119, 104); --darkreader-inline-fill: var(--darkreader-text-3c7768, #94dac7);" cx="225.067" cy="443.733" r="11.733" data-darkreader-inline-fill=""/> </g>
</svg>