<?xml version="1.0" encoding="UTF-8"?>
<svg id="Layer_1" data-name="Layer 1" xmlns="http://www.w3.org/2000/svg" viewBox="0 0 960 960">
  <defs>
    <style>
      .cls-1, .cls-2, .cls-3, .cls-4 {
        stroke-width: 0px;
      }

      .cls-1, .cls-4 {
        fill: #12519b;
      }

      .cls-2, .cls-3 {
        fill: #209ed5;
      }

      .cls-2, .cls-4 {
        fill-rule: evenodd;
      }
    </style>
  </defs>
  <path class="cls-3" d="M651.14,304.37c-3.35,3.65-6.43,7.54-9.21,11.64-2.77,4.08-5.2,8.39-7.26,12.87-4.31,9.4-6.81,19.53-7.35,29.85-.18,3.43-.16,6.87.05,10.3.23,3.65.66,7.28,1.3,10.88.7,3.87,1.61,7.7,2.71,11.48,1.23,4.1,2.66,8.13,4.29,12.09l28.73-4.79c-1.72-3.64-3.21-7.22-4.46-10.73-1.2-3.35-2.23-6.76-3.07-10.22-.78-3.21-1.39-6.47-1.81-9.75-.39-3.07-.59-6.16-.62-9.26-.11-9.26,1.56-18.46,4.91-27.1,1.61-4.1,3.57-8.06,5.86-11.82,2.31-3.77,4.91-7.35,7.77-10.72l-21.84-4.72Z"/>
  <path class="cls-1" d="M441.33,374.14l-25.21,12.36c9.73,7.14,20.14,13.3,31.08,18.4,13.1,6.15,26.67,11.25,40.58,15.27,16.11,4.69,32.52,8.31,49.12,10.81,18.49,2.82,37.13,4.52,55.82,5.1l3.86-20.23c-16.23-.47-32.41-1.89-48.47-4.25-14.47-2.09-28.8-5.09-42.89-9-12.25-3.4-24.24-7.69-35.86-12.84-9.8-4.34-19.18-9.57-28.03-15.62Z"/>
  <path class="cls-2" d="M877.21,646.86c-12.01-22.11-25.59-43.32-40.65-63.48-13.32-17.83-27.94-34.65-43.73-50.34-14.46-14.35-29.96-27.62-46.37-39.7-15.59-11.45-31.98-21.75-49.06-30.82l-20.16,18.88c15.6,8.78,30.52,18.73,44.61,29.77,14.71,11.57,28.51,24.25,41.28,37.94,13.83,14.86,26.51,30.75,37.91,47.55,12.77,18.86,24.12,38.64,33.94,59.19"/>
  <g>
    <path class="cls-1" d="M854.04,386.88c-13.81,0-27.45.57-40.83,1.75s-26.73,3-39.77,5.4c-13.14,2.44-26.14,5.58-38.95,9.41-13.06,3.91-25.88,8.58-38.39,14l19.06,16.94c11.52-5.25,23.35-9.79,35.43-13.57,11.88-3.72,23.96-6.77,36.18-9.13,12.28-2.38,24.67-4.14,37.12-5.26,12.51-1.15,25.28-1.7,38.24-1.7h7.29s4.9.1,7.37.18,4.94.18,7.41.29,5,.26,7.47.41l-6.14-17.79c-2.67-.16-5.31-.31-8-.43s-5.26-.22-7.89-.3-5.24-.14-7.85-.19-5.12-.01-7.75-.01h0Z"/>
    <g>
      <path class="cls-4" d="M152.67,557.64h-6.6c-17.29,0-47.18,1.31-47.18,19.4,0,11.53,11.79,16.51,22,16.51,21.51,0,31.78-11.27,31.78-28.82v-7.09ZM154.49,596.69h-.82c-8.91,14.16-23.59,20.45-40.36,20.45-23.32,0-45.86-12.84-45.86-37.75,0-40.87,47.7-43.77,79.15-43.77h7.85v-3.4c0-15.46-12-23.59-28.82-23.59-12.43,0-24.41,4.68-33.54,13.12l-16.53-16.53c13.91-14.14,33.56-20.17,53.48-20.17,53.72,0,53.72,38.79,53.72,56.6v72.34h-28.31l.04-17.3Z"/>
      <path class="cls-4" d="M282.35,523.06c-6-8.39-13.89-12.86-24.63-12.86-8.4,0-18.35,3.93-18.35,13.37,0,22.54,67.87,4.2,67.87,53.21,0,29.87-28.56,40.36-54.24,40.36-19.4,0-36.17-5-49-19.39l21-19.66c8.12,8.91,16.51,15.46,29.87,15.46,9.18,0,21-4.46,21-14.41,0-26-67.88-5.51-67.88-53.48,0-28,25.16-40.61,50.58-40.61,16.78,0,34.6,5.24,44.82,19.12l-21.04,18.89Z"/>
      <path class="cls-4" d="M316.94,514.92v-26.73h26v-36.44h31.45v36.44h34.59v26.73h-34.64v55c0,12.59,3.67,20.46,17.56,20.46,5.51,0,13.11-1.06,17-3.94v26.47c-6.54,3.15-17.56,4.2-24.9,4.2-33.29,0-41.14-14.93-41.14-44.55v-57.64h-25.92Z"/>
      <path class="cls-4" d="M507.74,557.64h-6.56c-17.3,0-47.17,1.31-47.17,19.4,0,11.53,11.79,16.51,22,16.51,21.51,0,31.73-11.27,31.73-28.82v-7.09ZM509.57,596.69h-.8c-8.89,14.16-23.58,20.45-40.35,20.45-23.33,0-45.86-12.84-45.86-37.75,0-40.87,47.69-43.77,79.15-43.77h7.86v-3.4c0-15.46-12-23.59-28.83-23.59-12.43,0-24.41,4.68-33.54,13.12l-16.53-16.53c13.88-14.14,33.54-20.17,53.46-20.17,53.73,0,53.73,38.79,53.73,56.6v72.34h-28.29v-17.3Z"/>
      <path class="cls-4" d="M596.58,505.76h.52c5-10.5,17.56-20.71,37-20.71,33.81,0,45.87,23.84,45.87,49.54v79.4h-31.5v-63.71c0-13.91-1-37-23.07-37-20.7,0-28.82,15.21-28.82,32v68.66h-31.45v-198.09h31.45v89.91Z"/>
    </g>
  </g>
</svg>