<?xml version="1.0" encoding="UTF-8"?>
<svg xmlns="http://www.w3.org/2000/svg" xmlns:xlink="http://www.w3.org/1999/xlink" width="2625" height="1304" viewBox="0 0 2625 1304">
<path fill-rule="nonzero" fill="rgb(100%, 70.117188%, 50.193787%)" fill-opacity="1" d="M 469.820312 772.519531 L 691.003906 844.332031 L 843.242188 936.25 L 1399.890625 1221.65625 L 1443.070312 1259.652344 C 1443.070312 1259.652344 1457.480469 1287.429688 1473.511719 1295.632812 C 1495.820312 1307.046875 1527.089844 1305.246094 1547.71875 1293.878906 C 1573.878906 1279.464844 1595.839844 1233.742188 1591.53125 1217.039062 C 1610.820312 1233.242188 1632.480469 1236.75 1655.261719 1235.273438 C 1685.75 1230.226562 1698.46875 1222.21875 1710.441406 1208.644531 C 1710.441406 1208.644531 1721.070312 1199.152344 1730.921875 1179.808594 C 1738.929688 1164.074219 1733.71875 1131.582031 1733.71875 1131.582031 C 1733.71875 1131.582031 1749.839844 1135.757812 1775.191406 1142.699219 C 1796.449219 1148.519531 1843.679688 1131.996094 1857.78125 1115.046875 C 1877 1091.945312 1882.679688 1088.734375 1886.601562 1059.832031 C 1889.128906 1041.203125 1882.851562 1029.351562 1874.21875 1006.511719 C 1866.800781 986.847656 1854.359375 964.976562 1854.359375 964.976562 C 1854.359375 964.976562 1871.878906 984.789062 1905.449219 1008.632812 C 1921.699219 1020.167969 1936.398438 1024.832031 1955.070312 1031.800781 C 1964.089844 1035.164062 2005.808594 1033.261719 2014.621094 1029.394531 C 2036.539062 1019.769531 2050.941406 1016.332031 2055.550781 988.121094 C 2059.109375 966.304688 2051.160156 959.871094 2042.390625 939.574219 C 2030.671875 912.425781 2029.328125 900.144531 2012.351562 875.929688 C 1978.839844 828.136719 1939.558594 784.210938 1897.449219 743.792969 C 1804.558594 654.640625 1595.839844 502.503906 1595.839844 502.503906 C 1595.839844 502.503906 1527.460938 443.472656 1489.558594 419.203125 C 1473.671875 409.03125 1457.589844 397.628906 1439.210938 393.367188 C 1406.339844 385.738281 1338 395.207031 1338 395.207031 C 1338 395.207031 1365.859375 357.394531 1386.140625 347.390625 C 1482.328125 299.949219 1704.988281 304.304688 1704.988281 304.304688 C 1704.988281 304.304688 1821 374.898438 1862.980469 347.390625 C 1876.589844 338.46875 1878.058594 304.6875 1862.980469 298.558594 C 1794.390625 270.679688 1707.871094 258.339844 1707.871094 258.339844 L 1187.941406 241.109375 L 1029.960938 281.320312 L 896.625 281.320312 L 653.660156 327.289062 Z M 469.820312 772.519531 "/>
<path fill-rule="nonzero" fill="rgb(84.375%, 58.789062%, 42.358398%)" fill-opacity="1" d="M 1611.769531 184.101562 C 1611.769531 184.101562 1443.320312 199.160156 1384.660156 198.519531 C 1316.21875 197.78125 1312.699219 193.960938 1277.898438 201.488281 C 1266.21875 204.019531 1254.558594 208.410156 1244.871094 215.398438 C 1219.890625 233.429688 1196.179688 278.871094 1196.179688 278.871094 C 1196.179688 278.871094 1086.628906 307.5625 1079.671875 331.90625 C 1064 364.734375 1081.109375 394.113281 1109.238281 422.328125 C 1131.628906 444.789062 1203.128906 441.457031 1241.390625 437.980469 C 1279.640625 434.503906 1338 395.210938 1338 395.210938 C 1408.558594 385.972656 1448.558594 389.777344 1490.050781 420.589844 C 1713.261719 605.910156 1912.738281 716.566406 2028.089844 900.796875 L 1997.988281 492.015625 C 1993.878906 455.273438 1977.671875 417.015625 1947.328125 376.996094 L 1918.5 366.054688 L 1820.429688 340.601562 Z M 1642.699219 776.171875 C 1641 776.3125 1639.429688 777.125 1638.328125 778.425781 C 1636.039062 781.132812 1636.378906 785.183594 1639.078125 787.472656 L 1769.691406 898 L 1839.578125 961.738281 C 1842.199219 964.121094 1846.261719 963.933594 1848.648438 961.3125 C 1851.039062 958.691406 1850.859375 954.632812 1848.238281 952.238281 L 1778.269531 888.429688 C 1778.199219 888.375 1778.140625 888.320312 1778.078125 888.269531 L 1647.390625 777.675781 C 1646.089844 776.574219 1644.398438 776.035156 1642.699219 776.175781 Z M 623.609375 822.453125 C 612.34375 834.175781 600.882812 850.496094 597.4375 864.585938 C 596.269531 869.363281 595.925781 913.894531 615.882812 928.523438 C 638.976562 945.457031 686.863281 945.617188 715.476562 944.507812 C 726.007812 944.101562 736.234375 940.503906 746.21875 937.132812 C 762.367188 931.679688 787.75 923.210938 808.285156 915.148438 L 691 844.332031 Z M 985.90625 865.441406 C 972.167969 865.507812 956.722656 868.617188 940.488281 873.195312 C 933.109375 876.882812 879.011719 919.914062 879.011719 919.914062 C 879.011719 919.914062 851.792969 948.957031 843.355469 966.640625 C 836.632812 980.726562 832.761719 996.535156 832.285156 1012.132812 C 831.792969 1028.367188 836.257812 1044.523438 840.894531 1060.089844 C 845.089844 1074.171875 849.371094 1088.847656 858.105469 1100.664062 C 866.0625 1111.421875 876.742188 1120.777344 888.847656 1126.484375 C 903.175781 1133.234375 919.78125 1136.285156 935.570312 1135.089844 C 946.8125 1134.238281 957.304688 1128.761719 967.539062 1124.027344 C 969.535156 1123.101562 971.539062 1122.160156 973.535156 1121.199219 L 975.152344 1120.6875 L 979.417969 1118.230469 C 981.679688 1117.03125 983.902344 1115.773438 986.050781 1114.414062 L 1014.578125 1097.984375 C 1012 1127.828125 1010.71875 1158.570312 1024.089844 1184.273438 C 1035.269531 1205.734375 1057.949219 1221.394531 1080.660156 1229.769531 C 1093.730469 1234.59375 1108.78125 1233.65625 1122.460938 1230.996094 C 1135.808594 1228.398438 1152.710938 1226.59375 1163.78125 1219.09375 L 1169.421875 1217.3125 L 1220.730469 1187.761719 C 1220.648438 1205.878906 1221.25 1224.378906 1228.191406 1240.839844 C 1233.75 1253.992188 1243.71875 1265.617188 1255.25 1274.035156 C 1265.210938 1281.308594 1277.5 1285.644531 1289.679688 1287.558594 C 1302.660156 1289.601562 1316.070312 1287.328125 1329.019531 1285.105469 C 1340.78125 1283.078125 1352.171875 1279.171875 1363.449219 1275.265625 C 1372.648438 1272.078125 1381.910156 1268.796875 1390.5 1264.199219 C 1405.328125 1256.257812 1424.308594 1242.988281 1424.308594 1242.988281 L 1424.070312 1242.988281 L 1399.859375 1221.679688 L 1363.730469 1203.160156 C 1365.601562 1193.152344 1369.839844 1182.5625 1372.03125 1173.226562 C 1376.96875 1152.261719 1392.398438 1134.308594 1395.390625 1112.976562 C 1398.710938 1089.410156 1402.808594 1062.214844 1396.660156 1039.335938 C 1441.761719 1066.910156 1485.261719 1096.828125 1522.378906 1133.300781 C 1547.179688 1157.667969 1581.480469 1211.570312 1581.480469 1211.570312 C 1583.371094 1214.570312 1587.339844 1215.46875 1590.339844 1213.578125 C 1591.78125 1212.667969 1592.800781 1211.21875 1593.171875 1209.554688 C 1593.550781 1207.890625 1593.238281 1206.148438 1592.328125 1204.707031 C 1592.328125 1204.707031 1558.640625 1150.910156 1531.390625 1124.140625 C 1488.601562 1082.09375 1438.109375 1048.960938 1386.871094 1018.445312 C 1386.808594 1018.382812 1386.800781 1018.351562 1386.78125 1018.304688 C 1326.878906 954.019531 1283.570312 995.253906 1252.761719 1053.960938 C 1240.121094 1077.625 1233.019531 1104.0625 1226.941406 1130.195312 C 1226.738281 1131.039062 1226.558594 1131.886719 1226.378906 1132.734375 L 1172.878906 1105.300781 C 1174.019531 1095.222656 1170.710938 1084.777344 1172.808594 1074.863281 C 1179.730469 1042.765625 1204.699219 1016.769531 1213.390625 985.105469 C 1219.269531 963.628906 1226.03125 940.34375 1220.761719 918.707031 C 1216.570312 901.476562 1207.039062 882.523438 1191.25 874.441406 C 1171.171875 864.164062 1143.699219 866.613281 1123.628906 876.902344 C 1096.851562 890.628906 1068.300781 948.214844 1068.300781 948.214844 C 1068.300781 948.214844 1037.171875 1001.300781 1026.589844 1030.316406 L 1003.128906 1018.289062 C 1012.238281 1000.367188 1041.238281 971.578125 1041.238281 971.578125 C 1048.738281 888.996094 1023.808594 865.367188 985.839844 865.460938 Z M 1516.019531 908.308594 C 1513.980469 908.113281 1511.960938 908.910156 1510.601562 910.453125 C 1509.46875 911.730469 1508.890625 913.40625 1509 915.109375 C 1509.109375 916.808594 1509.878906 918.398438 1511.160156 919.527344 L 1584.238281 983.992188 L 1719.910156 1123.160156 C 1722.378906 1125.699219 1726.449219 1125.75 1728.988281 1123.273438 C 1730.210938 1122.085938 1730.910156 1120.460938 1730.929688 1118.757812 C 1730.949219 1117.054688 1730.300781 1115.410156 1729.109375 1114.1875 L 1593.28125 974.859375 C 1593.160156 974.742188 1593.050781 974.625 1592.929688 974.515625 L 1519.671875 909.886719 C 1518.660156 908.988281 1517.378906 908.433594 1516.03125 908.304688 Z M 170.46875 935.535156 L 143.0625 1019.640625 C 162.886719 1013.742188 182.410156 993.757812 203.976562 960.792969 C 191.050781 952.4375 179.636719 944.019531 170.46875 935.535156 Z M 170.46875 935.535156 "/>
<path fill-rule="nonzero" fill="rgb(90.234375%, 90.234375%, 90.234375%)" fill-opacity="1" d="M 638.035156 146.601562 C 483.394531 393.765625 284.070312 624.039062 171.703125 931.75 L 170.46875 935.542969 C 212.652344 974.703125 302.582031 1012.476562 371.566406 1049.09375 L 896.621094 281.320312 C 816.0625 230.488281 732.914062 173.941406 638.035156 146.601562 Z M 638.035156 146.601562 "/>
<path fill-rule="nonzero" fill="rgb(86.326599%, 75.389099%, 62.304688%)" fill-opacity="1" d="M 325.867188 0 L 650.851562 125.929688 C 494.570312 381.019531 287.195312 615.476562 171.703125 931.75 L 143.0625 1019.644531 L 0 828.160156 Z M 325.867188 0 "/>
<path fill-rule="nonzero" fill="rgb(47.851562%, 65.039062%, 60.351562%)" fill-opacity="1" d="M 2479.910156 321.113281 L 1947.339844 376.992188 L 2020.46875 888.695312 C 2030.109375 905.34375 2032.929688 917.648438 2042.398438 939.578125 C 2047.96875 952.480469 2053.230469 965.011719 2055.398438 978.027344 C 2055.808594 978.953125 2056.230469 979.863281 2056.601562 980.824219 L 2588.109375 962.949219 L 2625 822.78125 Z M 2479.910156 321.113281 "/>
</svg>
