<?xml version="1.0" encoding="UTF-8"?>
<svg id="Camada_1" data-name="Camada 1" xmlns="http://www.w3.org/2000/svg" viewBox="0 0 574.03 640.17">
  <defs>
    <style>
      .cls-1 {
        fill: #e6e7ea;
      }

      .cls-2 {
        fill: #aa77c7;
      }

      .cls-3 {
        fill: #aeafbc;
      }

      .cls-4 {
        fill: #cea2ea;
      }
    </style>
  </defs>
  <g>
    <path class="cls-2" d="M107.06,535.74l-.07-16.75,52-51h34.5v-101.5l56.48-56.52-.45-56.87s9.64-10.27,10.97-11.12l-.21,70.32-56.28,56.72-.72,105.28-36.52,37.19,6.88,13.35-8.6,4.1-4.83-10.41-8.7,9.99-.06,39.81h-10.12s.6-44.39.6-44.39l44.55-46.95h-23.5l-46.4,44.33-.1,14.42"/>
    <path class="cls-2" d="M410.84,486.7l.92,56.03-49.93,49.67,7.39,6.88,51.35-51.73h.01s0-64.58,0-64.58l-26.77-28.23-.02-24.08c-4.55-4.05-9.43-7.77-13.88-11.94l-38.63,38.52-23.48-24.55-6.08,8.12,34.24,34.54.07,68.01-13.58,16.72,6.91,6.81,16.15-18.63-.48-77.32-7.13-7.11,36.9-35.57v31.5M353.53,600.45"/>
    <path class="cls-2" d="M468.86,440.73v68c2.15-.3,13-7.72,13-8.5v-29.5h10v34.5c-6.94,6.26-16.1,10.01-22.81,16.19l-.25,16.68-9.94.62v-97.99M447.48,398.78v32h32.91l-.03-31.89-32.88-.11Z"/>
    <path class="cls-2" d="M27.99,317.99l47.06.05,20.15-17.85,44.79-.19v9.93l-41.49.6-12.84,12.97,14.75,18.87-28.4,28.7-7.42-6.36,22.82-23.34-9.29-10.29-45.69,45.37-.33,10.9h-8.59l.61-14.93,42.38-44.43H28"/>
    <path class="cls-2" d="M541.55,324.82l-12.05-.04-24.72-24.28-89.1-.66-9.03-8.83,63.13-.89,30.96-30.04,36.08-.71v9.91l-31.81.06-21.53,20.97h24.5c1.77,0,25.2,24.8,25.2,24.8h8.24"/>
    <path class="cls-2" d="M63.48,492v-15H31.48v-36h32v-36.5s76.65-73.64,76.51-73.5c.04.15,0,12.3,0,12.3l-65.99,63.72-.54,85.46M63.48,450h-22v18h22v-18ZM66.21,500.2"/>
    <path class="cls-2" d="M511.47,475.38v-80.93l-1.01-3-40.76-40.24-54.3-.2c-.04-3.3.03-6.76,0-10h.01s58.98.51,58.98.51l47.02,47.98v51.5h25.41v10h-25.41v24.5"/>
    <path class="cls-2" d="M263.37,416.66l53.59,52.36.57,58.53-1,3c-8.91,9.33-19.27,17.86-27.03,27.97l-.08,53.85-9.89-.04.16-57.63,28.59-29.41-.31-51.28c-14.19-14.96-44.65-45.71-44.65-45.71l.05-11.64ZM278.74,623.26"/>
    <path class="cls-2" d="M415.55,317l77.98.52,59.07,58.93-.24,16.89h-8.76s.43-11.32.43-11.32l-54.5-54.5-73.98-.52c-.28-2.04-.15-9.1,0-10h0Z"/>
    <path class="cls-2" d="M438.8,469.23l.73,101.32-17.52,17.54-6.62-5.53,14.87-15.26-.24-96.64-25.53-27.65h9.98s24.33,26.22,24.33,26.22Z"/>
    <path class="cls-2" d="M37,257.07l16.77.15,25.23,23.77,80.48.02-10.3,10-75.01-.21-24.23-23.77-12.82.14"/>
    <path class="cls-2" d="M493.96,237.74l-40.2,40.78h-59.48l-10.06-9.8,65.53-.19s43.17-42.22,44.06-42.77"/>
    <path class="cls-2" d="M75.01,241.05l20.17,20.97,83.38.28-9.92,9.7-76.46-.2-23.73-23.35"/>
    <path class="cls-2" d="M334.45,397.52l10.83-12.22,1.07-86.87,9.13,9.06-.2,81.81-14.33,14.74"/>
    <path class="cls-2" d="M419.81,244.16c-20.27.25-62.08-1.98-62.08-1.98l-9.41-8.9,71.49,1.96"/>
    <path class="cls-2" d="M144.98,227.99h68.67l-10.17,10.01h-58.5"/>
    <path class="cls-2" d="M231.96,573.98l-26.84,26.88-8.77-7.13,25.18-23.17s2.11-20.24,2.16-25.57h10l-1.73,28.99Z"/>
    <path class="cls-2" d="M294.51,516.5l-33.83,35.21-.41,54.59-28.16,27.63-5.2-6.92,24.35-24.71.41-54.59,36.5-36.6,6.34,5.39Z"/>
    <g>
      <path class="cls-2" d="M128.44,215.66c-9.59,0-17.36,7.77-17.36,17.36s7.77,17.36,17.36,17.36,17.36-7.77,17.36-17.36-7.77-17.36-17.36-17.36ZM128.44,241.26c-4.56,0-8.26-3.7-8.26-8.26s3.7-8.26,8.26-8.26,8.26,3.7,8.26,8.26-3.7,8.26-8.26,8.26Z"/>
      <path class="cls-2" d="M24.12,243.8c-9.59,0-17.36,7.77-17.36,17.36s7.77,17.36,17.36,17.36,17.36-7.77,17.36-17.36-7.77-17.36-17.36-17.36ZM24.12,269.43c-4.56,0-8.26-3.7-8.26-8.26s3.7-8.26,8.26-8.26,8.26,3.7,8.26,8.26-3.7,8.26-8.26,8.26Z"/>
      <path class="cls-2" d="M17.36,305.69c-9.59,0-17.36,7.77-17.36,17.36s7.77,17.36,17.36,17.36,17.36-7.77,17.36-17.36-7.77-17.36-17.36-17.36ZM17.36,331.31c-4.56,0-8.26-3.7-8.26-8.26s3.7-8.26,8.26-8.26,8.26,3.7,8.26,8.26-3.7,8.26-8.26,8.26Z"/>
      <path class="cls-2" d="M27.96,386.28c-9.59,0-17.36,7.77-17.36,17.36s7.77,17.36,17.36,17.36,17.36-7.77,17.36-17.36-7.77-17.36-17.36-17.36ZM27.96,411.91c-4.56,0-8.26-3.7-8.26-8.26s3.7-8.26,8.26-8.26,8.26,3.7,8.26,8.26-3.7,8.26-8.26,8.26Z"/>
      <path class="cls-2" d="M68.45,482.84c-9.59,0-17.36,7.77-17.36,17.36s7.77,17.36,17.36,17.36,17.36-7.77,17.36-17.36-7.77-17.36-17.36-17.36ZM68.45,508.46c-4.56,0-8.26-3.7-8.26-8.26s3.7-8.26,8.26-8.26,8.26,3.7,8.26,8.26-3.7,8.26-8.26,8.26Z"/>
      <path class="cls-2" d="M112.59,527.68c-9.59,0-17.36,7.77-17.36,17.36s7.77,17.36,17.36,17.36,17.36-7.77,17.36-17.36-7.77-17.36-17.36-17.36ZM112.59,553.3c-4.56,0-8.26-3.7-8.26-8.26s3.7-8.26,8.26-8.26,8.26,3.7,8.26,8.26-3.7,8.26-8.26,8.26Z"/>
      <path class="cls-2" d="M175.27,520.98c-9.59,0-17.36,7.77-17.36,17.36s7.77,17.36,17.36,17.36,17.36-7.77,17.36-17.36-7.77-17.36-17.36-17.36ZM175.27,546.6c-4.56,0-8.26-3.7-8.26-8.26s3.7-8.26,8.26-8.26,8.26,3.7,8.26,8.26-3.7,8.26-8.26,8.26Z"/>
      <path class="cls-2" d="M147.31,560.08c-9.59,0-17.36,7.77-17.36,17.36s7.77,17.36,17.36,17.36,17.36-7.77,17.36-17.36-7.77-17.36-17.36-17.36ZM147.31,585.7c-4.56,0-8.26-3.7-8.26-8.26s3.7-8.26,8.26-8.26,8.26,3.7,8.26,8.26-3.7,8.26-8.26,8.26Z"/>
      <path class="cls-2" d="M192.63,588.09c-9.59,0-17.36,7.77-17.36,17.36s7.77,17.36,17.36,17.36,17.36-7.77,17.36-17.36-7.77-17.36-17.36-17.36ZM192.63,613.71c-4.56,0-8.26-3.7-8.26-8.26s3.7-8.26,8.26-8.26,8.26,3.7,8.26,8.26-3.7,8.26-8.26,8.26Z"/>
      <path class="cls-2" d="M284.54,605.45c-9.59,0-17.36,7.77-17.36,17.36s7.77,17.36,17.36,17.36,17.36-7.77,17.36-17.36-7.77-17.36-17.36-17.36ZM284.54,631.07c-4.56,0-8.26-3.7-8.26-8.26s3.7-8.26,8.26-8.26,8.26,3.7,8.26,8.26-3.7,8.26-8.26,8.26Z"/>
      <path class="cls-2" d="M328.49,554.46c-9.59,0-17.36,7.77-17.36,17.36s7.77,17.36,17.36,17.36,17.36-7.77,17.36-17.36-7.77-17.36-17.36-17.36ZM328.49,580.09c-4.56,0-8.26-3.7-8.26-8.26s3.7-8.26,8.26-8.26,8.26,3.7,8.26,8.26-3.7,8.26-8.26,8.26Z"/>
      <path class="cls-2" d="M358.55,583.5c-9.59,0-17.36,7.77-17.36,17.36s7.77,17.36,17.36,17.36,17.36-7.77,17.36-17.36-7.77-17.36-17.36-17.36ZM358.55,609.13c-4.56,0-8.26-3.7-8.26-8.26s3.7-8.26,8.26-8.26,8.26,3.7,8.26,8.26-3.7,8.26-8.26,8.26Z"/>
      <path class="cls-2" d="M410.71,577.54c-9.59,0-17.36,7.77-17.36,17.36s7.77,17.36,17.36,17.36,17.36-7.77,17.36-17.36-7.77-17.36-17.36-17.36ZM410.71,603.16c-4.56,0-8.26-3.7-8.26-8.26s3.7-8.26,8.26-8.26,8.26,3.7,8.26,8.26-3.7,8.26-8.26,8.26Z"/>
      <path class="cls-2" d="M464.15,533.42c-9.59,0-17.36,7.77-17.36,17.36s7.77,17.36,17.36,17.36,17.36-7.77,17.36-17.36-7.77-17.36-17.36-17.36ZM463.54,559.04c-4.56,0-8.26-3.7-8.26-8.26s3.7-8.26,8.26-8.26,8.26,3.7,8.26,8.26-3.7,8.26-8.26,8.26Z"/>
      <path class="cls-2" d="M517.7,469.22c-9.59,0-17.36,7.77-17.36,17.36s7.77,17.36,17.36,17.36,17.36-7.77,17.36-17.36-7.77-17.36-17.36-17.36ZM517.7,494.85c-4.56,0-8.26-3.7-8.26-8.26s3.7-8.26,8.26-8.26,8.26,3.7,8.26,8.26-3.7,8.26-8.26,8.26Z"/>
      <path class="cls-2" d="M556.67,428.34c-9.59,0-17.36,7.77-17.36,17.36s7.77,17.36,17.36,17.36,17.36-7.77,17.36-17.36-7.77-17.36-17.36-17.36ZM556.67,453.96c-4.56,0-8.26-3.7-8.26-8.26s3.7-8.26,8.26-8.26,8.26,3.7,8.26,8.26-3.7,8.26-8.26,8.26Z"/>
      <path class="cls-2" d="M546.82,388.53c-9.59,0-17.36,7.77-17.36,17.36s7.77,17.36,17.36,17.36,17.36-7.77,17.36-17.36-7.77-17.36-17.36-17.36ZM546.82,413.42c-4.56,0-8.26-3.7-8.26-8.26s3.7-8.26,8.26-8.26,8.26,3.7,8.26,8.26-3.7,8.26-8.26,8.26Z"/>
      <path class="cls-2" d="M552.6,302.01c-9.59,0-17.36,7.77-17.36,17.36s7.77,17.36,17.36,17.36,17.36-7.77,17.36-17.36-7.77-17.36-17.36-17.36ZM552.6,327.63c-4.56,0-8.26-3.7-8.26-8.26s3.7-8.26,8.26-8.26,8.26,3.7,8.26,8.26-3.7,8.26-8.26,8.26Z"/>
      <path class="cls-2" d="M545.67,247.8c-9.59,0-17.36,7.77-17.36,17.36s7.77,17.36,17.36,17.36,17.36-7.77,17.36-17.36-7.77-17.36-17.36-17.36ZM545.67,273.43c-4.56,0-8.26-3.7-8.26-8.26s3.7-8.26,8.26-8.26,8.26,3.7,8.26,8.26-3.7,8.26-8.26,8.26Z"/>
      <path class="cls-2" d="M506.37,214.8c-9.59,0-17.36,7.77-17.36,17.36s7.77,17.36,17.36,17.36,17.36-7.77,17.36-17.36-7.77-17.36-17.36-17.36ZM506.37,240.43c-4.56,0-8.26-3.7-8.26-8.26s3.7-8.26,8.26-8.26,8.26,3.7,8.26,8.26-3.7,8.26-8.26,8.26Z"/>
      <path class="cls-2" d="M433.05,218.62c-9.59,0-17.36,7.77-17.36,17.36s7.77,17.36,17.36,17.36,17.36-7.77,17.36-17.36-7.77-17.36-17.36-17.36ZM433.05,244.24c-4.56,0-8.26-3.7-8.26-8.26s3.7-8.26,8.26-8.26,8.26,3.7,8.26,8.26-3.7,8.26-8.26,8.26Z"/>
      <path class="cls-2" d="M330.96,390.89c-9.59,0-17.36,7.77-17.36,17.36s7.77,17.36,17.36,17.36,17.36-7.77,17.36-17.36-7.77-17.36-17.36-17.36ZM330.96,416.51c-4.56,0-8.26-3.7-8.26-8.26s3.7-8.26,8.26-8.26,8.26,3.7,8.26,8.26-3.7,8.26-8.26,8.26Z"/>
      <path class="cls-2" d="M63.55,217.14c-9.59,0-17.36,7.77-17.36,17.36s7.77,17.36,17.36,17.36,17.36-7.77,17.36-17.36-7.77-17.36-17.36-17.36ZM63.55,242.75c-4.56,0-8.26-3.7-8.26-8.26s3.7-8.26,8.26-8.26,8.26,3.7,8.26,8.26-3.7,8.26-8.26,8.26Z"/>
    </g>
    <g>
      <rect class="cls-2" x="437.91" y="390.92" width="52.16" height="50.01" rx="10" ry="10"/>
      <g>
        <path class="cls-4" d="M447.48,400l32.88.11.03,31.89h-32.91v-32Z"/>
        <g>
          <path class="cls-2" d="M448.69,380.14h3.6c1.66,0,3,1.34,3,3v9.22h-9.6v-9.22c0-1.66,1.34-3,3-3Z"/>
          <path class="cls-2" d="M462.03,380.14h3.6c1.66,0,3,1.34,3,3v9.22h-9.6v-9.22c0-1.66,1.34-3,3-3Z"/>
          <path class="cls-2" d="M475.69,380.14h3.6c1.66,0,3,1.34,3,3v9.22h-9.6v-9.22c0-1.66,1.34-3,3-3Z"/>
          <path class="cls-2" d="M492.43,396.7h3.6c1.66,0,3,1.34,3,3v9.22h-9.6v-9.22c0-1.66,1.34-3,3-3Z" transform="translate(897.04 -91.42) rotate(90)"/>
          <path class="cls-2" d="M492.43,409.89h3.6c1.66,0,3,1.34,3,3v9.22h-9.6v-9.22c0-1.66,1.34-3,3-3Z" transform="translate(910.23 -78.23) rotate(90)"/>
          <path class="cls-2" d="M492.43,423.08h3.6c1.66,0,3,1.34,3,3v9.22h-9.6v-9.22c0-1.66,1.34-3,3-3Z" transform="translate(923.42 -65.04) rotate(90)"/>
          <path class="cls-2" d="M428.62,424.13h9.6v9.22c0,1.66-1.34,3-3,3h-3.6c-1.66,0-3-1.34-3-3v-9.22h0Z" transform="translate(863.66 -3.18) rotate(90)"/>
          <path class="cls-2" d="M428.62,410.94h9.6v9.22c0,1.66-1.34,3-3,3h-3.6c-1.66,0-3-1.34-3-3v-9.22h0Z" transform="translate(850.46 -16.37) rotate(90)"/>
          <path class="cls-2" d="M428.62,397.05h9.6v9.22c0,1.66-1.34,3-3,3h-3.6c-1.66,0-3-1.34-3-3v-9.22h0Z" transform="translate(836.57 -30.26) rotate(90)"/>
          <path class="cls-2" d="M472.73,439.59h9.6v9.22c0,1.66-1.34,3-3,3h-3.6c-1.66,0-3-1.34-3-3v-9.22h0Z"/>
          <path class="cls-2" d="M443.96,439.59h9.6v9.22c0,1.66-1.34,3-3,3h-3.6c-1.66,0-3-1.34-3-3v-9.22h0Z"/>
        </g>
      </g>
    </g>
  </g>
  <g>
    <path class="cls-1" d="M382.38,411.04l1.58-90.04-74.48-73.02v88.5l-56.79,56.21-.23,118.77-18.98,19.52v-145.5l56.8-57.2.23-177.77,12.97-12.52.29,41.95,8.71.05V9.99h26.63s-14.49,15.87-14.49,15.87l5.5,4.06,20.87-19.93h23.5l-48.98,50.52.22,164.83,79.76,77.73v127.92s-23.1-19.94-23.1-19.94h-.01,0Z"/>
    <path class="cls-1" d="M257.48,47.5v82.5h9.01V10h35c.62,20.53.96,40.92,1.04,61.54.02,4.29.02,8.63,0,12.92-.04,12.34-.03,24.68-.06,37.02-6.27,8.93-15.8,15.64-22.77,24.23l-.41,62.59-109.8,110.2v78.5l-20.8-20.7.04-68.55,94.81-95.19.74-152.85-48.8-49.7h25s37,37.49,37,37.49Z"/>
    <polygon class="cls-1" points="257.48 10 257.48 34 233.48 10 257.48 10"/>
    <path class="cls-3" d="M374.5,413.56l8.09-2.49,23.11,19.94-.22-127.94-79.76-77.73V60.53l48.98-50.52h-23.5l-20.87,19.93-5.5-4.06,14.49-15.87h-26.63v170l-8.93-.07-.07-41.93-12.97,12.52-.23,177.77-56.8,57.2v145.5l18.98-19.52.23-118.77,56.79-56.21v-88.5l74.48,73.02.1,92.54h-9.77l.17-87.04-54.98-54.52-.95,68.07-55.11,55.37-1.15,119.85-28.8,29.7h-10l.2-162.3,56.8-58.2v-101.5c-1.68-.36-100,99.5-100,99.5v97.5l-40.48-39.01-.21-80.98,95.66-93.52V64.52L173.67,0h224l-61.79,63.71,1.67,158.67,78.15,77.62-1.22,143h-9.99M220.48,10h-25l48.8,49.7c-.14,50.88-.74,152.85-.74,152.85l-94.81,95.19-.04,68.55,20.8,20.7v-78.5l109.8-110.2.41-62.59,22.77-24.23-.98-111.48h-35v120.01h-9V47.5s-36.86-37.41-37-37.5h0ZM257.48,10h-24l24,24V10Z"/>
  </g>
  <g>
    <rect class="cls-2" x="101.19" y="406.95" width="52.16" height="50.01" rx="10" ry="10"/>
    <g>
      <path class="cls-4" d="M110.76,416.03l32.88.11.03,31.89h-32.91v-32Z"/>
      <g>
        <path class="cls-2" d="M111.98,396.16h3.6c1.66,0,3,1.34,3,3v9.22h-9.6v-9.22c0-1.66,1.34-3,3-3Z"/>
        <path class="cls-2" d="M125.31,396.16h3.6c1.66,0,3,1.34,3,3v9.22h-9.6v-9.22c0-1.66,1.34-3,3-3Z"/>
        <path class="cls-2" d="M138.97,396.16h3.6c1.66,0,3,1.34,3,3v9.22h-9.6v-9.22c0-1.66,1.34-3,3-3Z"/>
        <path class="cls-2" d="M155.71,412.72h3.6c1.66,0,3,1.34,3,3v9.22h-9.6v-9.22c0-1.66,1.34-3,3-3Z" transform="translate(576.34 261.32) rotate(90)"/>
        <path class="cls-2" d="M155.71,425.92h3.6c1.66,0,3,1.34,3,3v9.22h-9.6v-9.22c0-1.66,1.34-3,3-3Z" transform="translate(589.54 274.52) rotate(90)"/>
        <path class="cls-2" d="M155.71,439.11h3.6c1.66,0,3,1.34,3,3v9.22h-9.6v-9.22c0-1.66,1.34-3,3-3Z" transform="translate(602.73 287.71) rotate(90)"/>
        <path class="cls-2" d="M91.9,440.16h9.6v9.22c0,1.66-1.34,3-3,3h-3.6c-1.66,0-3-1.34-3-3v-9.22h0Z" transform="translate(542.96 349.57) rotate(90)"/>
        <path class="cls-2" d="M91.9,426.96h9.6v9.22c0,1.66-1.34,3-3,3h-3.6c-1.66,0-3-1.34-3-3v-9.22h0Z" transform="translate(529.77 336.37) rotate(90)"/>
        <path class="cls-2" d="M91.9,413.07h9.6v9.22c0,1.66-1.34,3-3,3h-3.6c-1.66,0-3-1.34-3-3v-9.22h0Z" transform="translate(515.88 322.48) rotate(90)"/>
        <path class="cls-2" d="M136.01,455.62h9.6v9.22c0,1.66-1.34,3-3,3h-3.6c-1.66,0-3-1.34-3-3v-9.22h0Z"/>
        <path class="cls-2" d="M107.24,455.62h9.6v9.22c0,1.66-1.34,3-3,3h-3.6c-1.66,0-3-1.34-3-3v-9.22h0Z"/>
        <path class="cls-2" d="M121.75,455.62h9.6v9.22c0,1.66-1.34,3-3,3h-3.6c-1.66,0-3-1.34-3-3v-9.22h0Z"/>
      </g>
    </g>
  </g>
</svg>