<?xml version="1.0" encoding="UTF-8"?>
<svg xmlns="http://www.w3.org/2000/svg" xmlns:xlink="http://www.w3.org/1999/xlink" width="1920" height="1080" viewBox="0 0 1920 1080">
<defs>
<g>
<g id="glyph-0-0">
<path d="M 5.675781 0 L 5.664062 -14.074219 L 0.214844 -14.082031 L 0.214844 -15.601562 L 12.707031 -15.601562 L 12.707031 -14.074219 L 7.246094 -14.082031 L 7.257812 0 Z "/>
</g>
<g id="glyph-0-1">
<path d="M 6.46875 0.324219 C 5.328125 0.324219 4.339844 0.0703125 3.503906 -0.433594 C 2.671875 -0.9375 2.023438 -1.648438 1.558594 -2.566406 C 1.097656 -3.484375 0.867188 -4.5625 0.867188 -5.796875 C 0.867188 -7.074219 1.09375 -8.179688 1.550781 -9.109375 C 2.003906 -10.042969 2.644531 -10.761719 3.472656 -11.265625 C 4.300781 -11.773438 5.277344 -12.023438 6.402344 -12.023438 C 7.558594 -12.023438 8.542969 -11.757812 9.359375 -11.230469 C 10.175781 -10.699219 10.792969 -9.9375 11.210938 -8.949219 C 11.632812 -7.957031 11.824219 -6.777344 11.785156 -5.40625 L 10.160156 -5.40625 L 10.160156 -5.96875 C 10.132812 -7.484375 9.804688 -8.628906 9.179688 -9.402344 C 8.554688 -10.175781 7.644531 -10.5625 6.445312 -10.5625 C 5.1875 -10.5625 4.226562 -10.15625 3.558594 -9.339844 C 2.890625 -8.523438 2.558594 -7.359375 2.558594 -5.851562 C 2.558594 -4.375 2.890625 -3.234375 3.558594 -2.421875 C 4.226562 -1.609375 5.175781 -1.203125 6.402344 -1.203125 C 7.242188 -1.203125 7.972656 -1.394531 8.597656 -1.78125 C 9.222656 -2.167969 9.714844 -2.726562 10.074219 -3.457031 L 11.558594 -2.882812 C 11.097656 -1.863281 10.417969 -1.074219 9.515625 -0.515625 C 8.617188 0.046875 7.601562 0.324219 6.46875 0.324219 M 1.992188 -5.40625 L 1.992188 -6.738281 L 10.929688 -6.738281 L 10.929688 -5.40625 Z "/>
</g>
<g id="glyph-0-2">
<path d="M 1.515625 0 L 1.515625 -11.699219 L 2.945312 -11.699219 L 2.945312 -8.882812 L 2.664062 -9.25 C 2.796875 -9.597656 2.964844 -9.917969 3.175781 -10.210938 C 3.382812 -10.503906 3.609375 -10.742188 3.855469 -10.929688 C 4.160156 -11.199219 4.515625 -11.402344 4.917969 -11.542969 C 5.324219 -11.683594 5.730469 -11.765625 6.140625 -11.792969 C 6.554688 -11.816406 6.929688 -11.785156 7.269531 -11.699219 L 7.269531 -10.203125 C 6.84375 -10.3125 6.378906 -10.339844 5.871094 -10.28125 C 5.367188 -10.222656 4.898438 -10.019531 4.472656 -9.675781 C 4.085938 -9.371094 3.792969 -9.007812 3.597656 -8.585938 C 3.402344 -8.164062 3.273438 -7.714844 3.207031 -7.242188 C 3.140625 -6.769531 3.109375 -6.300781 3.109375 -5.839844 L 3.109375 0 Z "/>
</g>
<g id="glyph-0-3">
<path d="M 15.46875 0 L 15.480469 -7.679688 C 15.480469 -8.582031 15.230469 -9.292969 14.726562 -9.808594 C 14.226562 -10.324219 13.589844 -10.585938 12.816406 -10.585938 C 12.375 -10.585938 11.945312 -10.484375 11.527344 -10.28125 C 11.109375 -10.078125 10.761719 -9.753906 10.492188 -9.304688 C 10.222656 -8.859375 10.085938 -8.273438 10.085938 -7.550781 L 9.144531 -7.820312 C 9.121094 -8.660156 9.285156 -9.390625 9.636719 -10.019531 C 9.988281 -10.648438 10.46875 -11.136719 11.089844 -11.488281 C 11.707031 -11.839844 12.402344 -12.015625 13.183594 -12.015625 C 14.363281 -12.015625 15.304688 -11.652344 16.011719 -10.925781 C 16.71875 -10.199219 17.074219 -9.21875 17.074219 -7.984375 L 17.0625 0 L 15.46875 0 M 1.503906 0 L 1.503906 -11.699219 L 2.9375 -11.699219 L 2.9375 -8.816406 L 3.109375 -8.816406 L 3.109375 0 L 1.503906 0 M 8.503906 0 L 8.515625 -7.574219 C 8.515625 -8.503906 8.269531 -9.238281 7.773438 -9.777344 C 7.277344 -10.316406 6.625 -10.585938 5.816406 -10.585938 C 5.007812 -10.585938 4.355469 -10.308594 3.855469 -9.753906 C 3.359375 -9.203125 3.109375 -8.46875 3.109375 -7.550781 L 2.15625 -8.070312 C 2.15625 -8.820312 2.332031 -9.496094 2.6875 -10.089844 C 3.039062 -10.6875 3.523438 -11.15625 4.136719 -11.5 C 4.753906 -11.84375 5.449219 -12.015625 6.230469 -12.015625 C 6.972656 -12.015625 7.636719 -11.855469 8.21875 -11.539062 C 8.796875 -11.21875 9.253906 -10.757812 9.585938 -10.152344 C 9.917969 -9.542969 10.085938 -8.808594 10.085938 -7.941406 L 10.074219 0 Z "/>
</g>
<g id="glyph-0-4">
<path d="M 1.734375 -13.921875 L 1.734375 -15.707031 L 3.316406 -15.699219 L 3.324219 -13.921875 L 1.734375 -13.921875 M 1.734375 0 L 1.734375 -11.699219 L 3.316406 -11.699219 L 3.324219 0 Z "/>
</g>
<g id="glyph-0-5">
<path d="M 9.964844 0 L 9.964844 -5.96875 C 9.964844 -6.621094 9.90625 -7.21875 9.78125 -7.761719 C 9.660156 -8.308594 9.464844 -8.785156 9.191406 -9.191406 C 8.921875 -9.601562 8.570312 -9.917969 8.140625 -10.140625 C 7.710938 -10.363281 7.191406 -10.476562 6.574219 -10.476562 C 6.011719 -10.476562 5.515625 -10.378906 5.085938 -10.183594 C 4.65625 -9.988281 4.296875 -9.707031 4.003906 -9.34375 C 3.710938 -8.980469 3.488281 -8.535156 3.335938 -8.015625 C 3.183594 -7.496094 3.109375 -6.90625 3.109375 -6.238281 L 1.984375 -6.488281 C 1.984375 -7.6875 2.191406 -8.695312 2.609375 -9.511719 C 3.03125 -10.328125 3.609375 -10.945312 4.34375 -11.363281 C 5.082031 -11.78125 5.925781 -11.992188 6.878906 -11.992188 C 7.578125 -11.992188 8.191406 -11.882812 8.714844 -11.667969 C 9.238281 -11.449219 9.683594 -11.160156 10.046875 -10.789062 C 10.414062 -10.421875 10.707031 -10 10.929688 -9.527344 C 11.15625 -9.054688 11.316406 -8.554688 11.417969 -8.023438 C 11.519531 -7.492188 11.570312 -6.960938 11.570312 -6.433594 L 11.570312 0 L 9.964844 0 M 1.503906 0 L 1.503906 -11.699219 L 2.945312 -11.699219 L 2.945312 -8.816406 L 3.109375 -8.816406 L 3.109375 0 Z "/>
</g>
<g id="glyph-0-6">
<path d="M 4.863281 0.324219 C 3.984375 0.324219 3.246094 0.167969 2.648438 -0.152344 C 2.054688 -0.46875 1.605469 -0.890625 1.3125 -1.417969 C 1.015625 -1.945312 0.867188 -2.519531 0.867188 -3.140625 C 0.867188 -3.777344 0.996094 -4.320312 1.25 -4.773438 C 1.507812 -5.222656 1.859375 -5.59375 2.300781 -5.882812 C 2.746094 -6.171875 3.261719 -6.390625 3.847656 -6.542969 C 4.4375 -6.6875 5.09375 -6.816406 5.8125 -6.929688 C 6.53125 -7.039062 7.234375 -7.136719 7.925781 -7.21875 C 8.613281 -7.304688 9.21875 -7.382812 9.738281 -7.464844 L 9.175781 -7.117188 C 9.199219 -8.273438 8.972656 -9.128906 8.503906 -9.683594 C 8.035156 -10.242188 7.21875 -10.519531 6.054688 -10.519531 C 5.253906 -10.519531 4.578125 -10.339844 4.023438 -9.976562 C 3.472656 -9.617188 3.082031 -9.046875 2.859375 -8.265625 L 1.3125 -8.722656 C 1.578125 -9.769531 2.117188 -10.582031 2.925781 -11.160156 C 3.734375 -11.734375 4.785156 -12.023438 6.078125 -12.023438 C 7.144531 -12.023438 8.054688 -11.824219 8.800781 -11.421875 C 9.550781 -11.023438 10.078125 -10.441406 10.390625 -9.683594 C 10.535156 -9.34375 10.628906 -8.964844 10.671875 -8.546875 C 10.714844 -8.128906 10.734375 -7.703125 10.734375 -7.269531 L 10.734375 0 L 9.316406 0 L 9.316406 -2.9375 L 9.726562 -2.761719 C 9.332031 -1.757812 8.714844 -0.992188 7.875 -0.464844 C 7.039062 0.0625 6.035156 0.324219 4.863281 0.324219 M 5.046875 -1.050781 C 5.792969 -1.050781 6.441406 -1.183594 7 -1.453125 C 7.554688 -1.71875 8.003906 -2.085938 8.339844 -2.550781 C 8.679688 -3.015625 8.902344 -3.542969 9.003906 -4.128906 C 9.089844 -4.503906 9.136719 -4.917969 9.144531 -5.367188 C 9.152344 -5.820312 9.152344 -6.15625 9.152344 -6.378906 L 9.761719 -6.066406 C 9.21875 -5.996094 8.632812 -5.921875 8 -5.851562 C 7.367188 -5.777344 6.746094 -5.695312 6.136719 -5.601562 C 5.527344 -5.507812 4.976562 -5.394531 4.484375 -5.265625 C 4.152344 -5.171875 3.832031 -5.039062 3.519531 -4.871094 C 3.210938 -4.699219 2.957031 -4.472656 2.757812 -4.191406 C 2.558594 -3.910156 2.460938 -3.5625 2.460938 -3.140625 C 2.460938 -2.800781 2.542969 -2.472656 2.714844 -2.15625 C 2.882812 -1.839844 3.15625 -1.574219 3.535156 -1.363281 C 3.917969 -1.15625 4.421875 -1.050781 5.046875 -1.050781 Z "/>
</g>
<g id="glyph-0-7">
<path d="M 1.734375 0 L 1.734375 -15.925781 L 3.316406 -15.925781 L 3.324219 0 Z "/>
</g>
<g id="glyph-0-8">
</g>
<g id="glyph-0-9">
<path d="M 7.886719 0 C 7.230469 0.136719 6.582031 0.191406 5.941406 0.164062 C 5.304688 0.132812 4.730469 -0.00390625 4.230469 -0.25 C 3.726562 -0.496094 3.347656 -0.878906 3.085938 -1.398438 C 2.878906 -1.832031 2.765625 -2.269531 2.746094 -2.714844 C 2.726562 -3.15625 2.71875 -3.664062 2.71875 -4.234375 L 2.71875 -14.949219 L 4.300781 -14.949219 L 4.300781 -4.300781 C 4.300781 -3.808594 4.304688 -3.398438 4.316406 -3.070312 C 4.328125 -2.742188 4.402344 -2.453125 4.539062 -2.199219 C 4.800781 -1.714844 5.210938 -1.425781 5.78125 -1.332031 C 6.347656 -1.238281 7.050781 -1.261719 7.886719 -1.398438 L 7.886719 0 M 0.214844 -10.335938 L 0.214844 -11.699219 L 7.886719 -11.699219 L 7.886719 -10.335938 Z "/>
</g>
<g id="glyph-0-10">
<path d="M 6.164062 5.523438 C 5.566406 5.523438 4.972656 5.4375 4.394531 5.257812 C 3.8125 5.082031 3.273438 4.804688 2.785156 4.425781 C 2.292969 4.046875 1.882812 3.554688 1.550781 2.945312 L 2.988281 2.144531 C 3.316406 2.796875 3.773438 3.261719 4.359375 3.546875 C 4.949219 3.832031 5.550781 3.976562 6.164062 3.976562 C 7.007812 3.976562 7.695312 3.820312 8.21875 3.503906 C 8.742188 3.191406 9.121094 2.726562 9.359375 2.113281 C 9.597656 1.5 9.714844 0.734375 9.707031 -0.183594 L 9.707031 -3.304688 L 9.890625 -3.304688 L 9.890625 -11.699219 L 11.308594 -11.699219 L 11.308594 -0.164062 C 11.308594 0.167969 11.300781 0.488281 11.28125 0.796875 C 11.265625 1.101562 11.230469 1.40625 11.179688 1.699219 C 11.042969 2.574219 10.757812 3.292969 10.328125 3.855469 C 9.898438 4.421875 9.335938 4.839844 8.640625 5.113281 C 7.941406 5.386719 7.117188 5.523438 6.164062 5.523438 M 6.054688 0.324219 C 4.964844 0.324219 4.035156 0.0507812 3.261719 -0.492188 C 2.488281 -1.039062 1.894531 -1.777344 1.484375 -2.707031 C 1.074219 -3.640625 0.867188 -4.691406 0.867188 -5.859375 C 0.867188 -7.023438 1.070312 -8.070312 1.480469 -9.003906 C 1.886719 -9.933594 2.472656 -10.671875 3.238281 -11.210938 C 4.003906 -11.753906 4.921875 -12.023438 5.992188 -12.023438 C 7.089844 -12.023438 8.011719 -11.757812 8.765625 -11.222656 C 9.515625 -10.6875 10.085938 -9.957031 10.46875 -9.03125 C 10.855469 -8.101562 11.050781 -7.046875 11.050781 -5.859375 C 11.050781 -4.699219 10.859375 -3.648438 10.476562 -2.714844 C 10.09375 -1.777344 9.53125 -1.039062 8.785156 -0.492188 C 8.042969 0.0507812 7.132812 0.324219 6.054688 0.324219 M 6.21875 -1.160156 C 7.050781 -1.160156 7.734375 -1.363281 8.277344 -1.765625 C 8.816406 -2.171875 9.222656 -2.726562 9.488281 -3.441406 C 9.757812 -4.152344 9.890625 -4.957031 9.890625 -5.859375 C 9.890625 -6.777344 9.757812 -7.589844 9.488281 -8.292969 C 9.222656 -8.996094 8.820312 -9.546875 8.28125 -9.945312 C 7.742188 -10.34375 7.066406 -10.539062 6.25 -10.539062 C 5.414062 -10.539062 4.71875 -10.335938 4.171875 -9.921875 C 3.621094 -9.511719 3.214844 -8.953125 2.953125 -8.246094 C 2.6875 -7.535156 2.558594 -6.742188 2.558594 -5.859375 C 2.558594 -4.972656 2.691406 -4.171875 2.964844 -3.460938 C 3.234375 -2.75 3.640625 -2.1875 4.183594 -1.777344 C 4.722656 -1.363281 5.402344 -1.160156 6.21875 -1.160156 Z "/>
</g>
<g id="glyph-0-11">
<path d="M 6.054688 0.324219 C 4.964844 0.324219 4.035156 0.0507812 3.261719 -0.492188 C 2.488281 -1.039062 1.894531 -1.777344 1.484375 -2.707031 C 1.074219 -3.640625 0.867188 -4.691406 0.867188 -5.859375 C 0.867188 -7.023438 1.070312 -8.070312 1.480469 -9.003906 C 1.886719 -9.933594 2.472656 -10.671875 3.238281 -11.210938 C 4.003906 -11.753906 4.921875 -12.023438 5.992188 -12.023438 C 7.089844 -12.023438 8.011719 -11.757812 8.765625 -11.222656 C 9.515625 -10.6875 10.085938 -9.957031 10.46875 -9.03125 C 10.855469 -8.101562 11.050781 -7.046875 11.050781 -5.859375 C 11.050781 -4.699219 10.859375 -3.648438 10.476562 -2.714844 C 10.09375 -1.777344 9.53125 -1.039062 8.785156 -0.492188 C 8.042969 0.0507812 7.132812 0.324219 6.054688 0.324219 M 6.21875 -1.160156 C 7.050781 -1.160156 7.734375 -1.363281 8.277344 -1.765625 C 8.816406 -2.171875 9.222656 -2.726562 9.488281 -3.441406 C 9.757812 -4.152344 9.890625 -4.957031 9.890625 -5.859375 C 9.890625 -6.777344 9.757812 -7.589844 9.488281 -8.292969 C 9.222656 -8.996094 8.820312 -9.546875 8.28125 -9.945312 C 7.742188 -10.34375 7.066406 -10.539062 6.25 -10.539062 C 5.414062 -10.539062 4.71875 -10.335938 4.171875 -9.921875 C 3.621094 -9.511719 3.214844 -8.953125 2.953125 -8.246094 C 2.6875 -7.535156 2.558594 -6.742188 2.558594 -5.859375 C 2.558594 -4.972656 2.691406 -4.171875 2.964844 -3.460938 C 3.234375 -2.75 3.640625 -2.1875 4.183594 -1.777344 C 4.722656 -1.363281 5.402344 -1.160156 6.21875 -1.160156 M 9.890625 0 L 9.890625 -8.808594 L 9.71875 -8.808594 L 9.71875 -15.601562 L 11.320312 -15.601562 L 11.320312 0 Z "/>
</g>
<g id="glyph-0-12">
<path d="M 6.402344 0.324219 C 5.238281 0.324219 4.246094 0.0625 3.421875 -0.464844 C 2.601562 -0.992188 1.96875 -1.722656 1.527344 -2.652344 C 1.085938 -3.585938 0.867188 -4.65625 0.867188 -5.859375 C 0.867188 -7.089844 1.089844 -8.164062 1.539062 -9.089844 C 1.984375 -10.011719 2.625 -10.734375 3.449219 -11.25 C 4.277344 -11.765625 5.261719 -12.023438 6.402344 -12.023438 C 7.574219 -12.023438 8.570312 -11.761719 9.398438 -11.238281 C 10.226562 -10.714844 10.855469 -9.988281 11.292969 -9.0625 C 11.730469 -8.132812 11.949219 -7.066406 11.949219 -5.859375 C 11.949219 -4.632812 11.730469 -3.554688 11.289062 -2.628906 C 10.847656 -1.699219 10.210938 -0.976562 9.382812 -0.453125 C 8.550781 0.0664062 7.558594 0.324219 6.402344 0.324219 M 6.402344 -1.203125 C 7.703125 -1.203125 8.671875 -1.632812 9.304688 -2.496094 C 9.941406 -3.359375 10.257812 -4.480469 10.257812 -5.859375 C 10.257812 -7.277344 9.941406 -8.402344 9.300781 -9.242188 C 8.660156 -10.078125 7.695312 -10.496094 6.402344 -10.496094 C 5.527344 -10.496094 4.808594 -10.300781 4.242188 -9.90625 C 3.675781 -9.511719 3.25 -8.96875 2.972656 -8.269531 C 2.695312 -7.574219 2.558594 -6.769531 2.558594 -5.859375 C 2.558594 -4.453125 2.882812 -3.324219 3.53125 -2.476562 C 4.183594 -1.625 5.136719 -1.203125 6.402344 -1.203125 Z "/>
</g>
</g>
</defs>
<g fill="rgb(100%, 100%, 100%)" fill-opacity="1">
<use xlink:href="#glyph-0-0" x="30" y="43.095703"/>
<use xlink:href="#glyph-0-1" x="41" y="43.095703"/>
<use xlink:href="#glyph-0-2" x="53" y="43.095703"/>
<use xlink:href="#glyph-0-3" x="60" y="43.095703"/>
<use xlink:href="#glyph-0-4" x="78" y="43.095703"/>
<use xlink:href="#glyph-0-5" x="82" y="43.095703"/>
<use xlink:href="#glyph-0-6" x="94" y="43.095703"/>
<use xlink:href="#glyph-0-7" x="106" y="43.095703"/>
<use xlink:href="#glyph-0-8" x="110" y="43.095703"/>
<use xlink:href="#glyph-0-4" x="114" y="43.095703"/>
<use xlink:href="#glyph-0-5" x="118" y="43.095703"/>
<use xlink:href="#glyph-0-9" x="130" y="43.095703"/>
<use xlink:href="#glyph-0-1" x="138" y="43.095703"/>
<use xlink:href="#glyph-0-10" x="150" y="43.095703"/>
<use xlink:href="#glyph-0-2" x="162" y="43.095703"/>
<use xlink:href="#glyph-0-6" x="169" y="43.095703"/>
<use xlink:href="#glyph-0-11" x="181" y="43.095703"/>
<use xlink:href="#glyph-0-12" x="193" y="43.095703"/>
</g>
</svg>
