<?xml version="1.0" encoding="UTF-8"?>
<svg xmlns="http://www.w3.org/2000/svg" xmlns:xlink="http://www.w3.org/1999/xlink" width="1920" height="1080" viewBox="0 0 1920 1080">
<defs>
<g>
<g id="glyph-0-0">
<path d="M 0.433594 0 L 5.808594 -15.601562 L 7.917969 -15.601562 L 13.292969 0 L 11.636719 0 L 6.53125 -14.710938 L 7.160156 -14.710938 L 2.089844 0 L 0.433594 0 M 2.828125 -3.78125 L 2.828125 -5.277344 L 10.886719 -5.277344 L 10.886719 -3.78125 Z "/>
</g>
<g id="glyph-0-1">
<path d="M 6.164062 5.523438 C 5.566406 5.523438 4.972656 5.4375 4.394531 5.257812 C 3.8125 5.082031 3.273438 4.804688 2.785156 4.425781 C 2.292969 4.046875 1.882812 3.554688 1.550781 2.945312 L 2.988281 2.144531 C 3.316406 2.796875 3.773438 3.261719 4.359375 3.546875 C 4.949219 3.832031 5.550781 3.976562 6.164062 3.976562 C 7.007812 3.976562 7.695312 3.820312 8.21875 3.503906 C 8.742188 3.191406 9.121094 2.726562 9.359375 2.113281 C 9.597656 1.5 9.714844 0.734375 9.707031 -0.183594 L 9.707031 -3.304688 L 9.890625 -3.304688 L 9.890625 -11.699219 L 11.308594 -11.699219 L 11.308594 -0.164062 C 11.308594 0.167969 11.300781 0.488281 11.28125 0.796875 C 11.265625 1.101562 11.230469 1.40625 11.179688 1.699219 C 11.042969 2.574219 10.757812 3.292969 10.328125 3.855469 C 9.898438 4.421875 9.335938 4.839844 8.640625 5.113281 C 7.941406 5.386719 7.117188 5.523438 6.164062 5.523438 M 6.054688 0.324219 C 4.964844 0.324219 4.035156 0.0507812 3.261719 -0.492188 C 2.488281 -1.039062 1.894531 -1.777344 1.484375 -2.707031 C 1.074219 -3.640625 0.867188 -4.691406 0.867188 -5.859375 C 0.867188 -7.023438 1.070312 -8.070312 1.480469 -9.003906 C 1.886719 -9.933594 2.472656 -10.671875 3.238281 -11.210938 C 4.003906 -11.753906 4.921875 -12.023438 5.992188 -12.023438 C 7.089844 -12.023438 8.011719 -11.757812 8.765625 -11.222656 C 9.515625 -10.6875 10.085938 -9.957031 10.46875 -9.03125 C 10.855469 -8.101562 11.050781 -7.046875 11.050781 -5.859375 C 11.050781 -4.699219 10.859375 -3.648438 10.476562 -2.714844 C 10.09375 -1.777344 9.53125 -1.039062 8.785156 -0.492188 C 8.042969 0.0507812 7.132812 0.324219 6.054688 0.324219 M 6.21875 -1.160156 C 7.050781 -1.160156 7.734375 -1.363281 8.277344 -1.765625 C 8.816406 -2.171875 9.222656 -2.726562 9.488281 -3.441406 C 9.757812 -4.152344 9.890625 -4.957031 9.890625 -5.859375 C 9.890625 -6.777344 9.757812 -7.589844 9.488281 -8.292969 C 9.222656 -8.996094 8.820312 -9.546875 8.28125 -9.945312 C 7.742188 -10.34375 7.066406 -10.539062 6.25 -10.539062 C 5.414062 -10.539062 4.71875 -10.335938 4.171875 -9.921875 C 3.621094 -9.511719 3.214844 -8.953125 2.953125 -8.246094 C 2.6875 -7.535156 2.558594 -6.742188 2.558594 -5.859375 C 2.558594 -4.972656 2.691406 -4.171875 2.964844 -3.460938 C 3.234375 -2.75 3.640625 -2.1875 4.183594 -1.777344 C 4.722656 -1.363281 5.402344 -1.160156 6.21875 -1.160156 Z "/>
</g>
<g id="glyph-0-2">
<path d="M 6.46875 0.324219 C 5.328125 0.324219 4.339844 0.0703125 3.503906 -0.433594 C 2.671875 -0.9375 2.023438 -1.648438 1.558594 -2.566406 C 1.097656 -3.484375 0.867188 -4.5625 0.867188 -5.796875 C 0.867188 -7.074219 1.09375 -8.179688 1.550781 -9.109375 C 2.003906 -10.042969 2.644531 -10.761719 3.472656 -11.265625 C 4.300781 -11.773438 5.277344 -12.023438 6.402344 -12.023438 C 7.558594 -12.023438 8.542969 -11.757812 9.359375 -11.230469 C 10.175781 -10.699219 10.792969 -9.9375 11.210938 -8.949219 C 11.632812 -7.957031 11.824219 -6.777344 11.785156 -5.40625 L 10.160156 -5.40625 L 10.160156 -5.96875 C 10.132812 -7.484375 9.804688 -8.628906 9.179688 -9.402344 C 8.554688 -10.175781 7.644531 -10.5625 6.445312 -10.5625 C 5.1875 -10.5625 4.226562 -10.15625 3.558594 -9.339844 C 2.890625 -8.523438 2.558594 -7.359375 2.558594 -5.851562 C 2.558594 -4.375 2.890625 -3.234375 3.558594 -2.421875 C 4.226562 -1.609375 5.175781 -1.203125 6.402344 -1.203125 C 7.242188 -1.203125 7.972656 -1.394531 8.597656 -1.78125 C 9.222656 -2.167969 9.714844 -2.726562 10.074219 -3.457031 L 11.558594 -2.882812 C 11.097656 -1.863281 10.417969 -1.074219 9.515625 -0.515625 C 8.617188 0.046875 7.601562 0.324219 6.46875 0.324219 M 1.992188 -5.40625 L 1.992188 -6.738281 L 10.929688 -6.738281 L 10.929688 -5.40625 Z "/>
</g>
<g id="glyph-0-3">
<path d="M 9.964844 0 L 9.964844 -5.96875 C 9.964844 -6.621094 9.90625 -7.21875 9.78125 -7.761719 C 9.660156 -8.308594 9.464844 -8.785156 9.191406 -9.191406 C 8.921875 -9.601562 8.570312 -9.917969 8.140625 -10.140625 C 7.710938 -10.363281 7.191406 -10.476562 6.574219 -10.476562 C 6.011719 -10.476562 5.515625 -10.378906 5.085938 -10.183594 C 4.65625 -9.988281 4.296875 -9.707031 4.003906 -9.34375 C 3.710938 -8.980469 3.488281 -8.535156 3.335938 -8.015625 C 3.183594 -7.496094 3.109375 -6.90625 3.109375 -6.238281 L 1.984375 -6.488281 C 1.984375 -7.6875 2.191406 -8.695312 2.609375 -9.511719 C 3.03125 -10.328125 3.609375 -10.945312 4.34375 -11.363281 C 5.082031 -11.78125 5.925781 -11.992188 6.878906 -11.992188 C 7.578125 -11.992188 8.191406 -11.882812 8.714844 -11.667969 C 9.238281 -11.449219 9.683594 -11.160156 10.046875 -10.789062 C 10.414062 -10.421875 10.707031 -10 10.929688 -9.527344 C 11.15625 -9.054688 11.316406 -8.554688 11.417969 -8.023438 C 11.519531 -7.492188 11.570312 -6.960938 11.570312 -6.433594 L 11.570312 0 L 9.964844 0 M 1.503906 0 L 1.503906 -11.699219 L 2.945312 -11.699219 L 2.945312 -8.816406 L 3.109375 -8.816406 L 3.109375 0 Z "/>
</g>
<g id="glyph-0-4">
<path d="M 7.886719 0 C 7.230469 0.136719 6.582031 0.191406 5.941406 0.164062 C 5.304688 0.132812 4.730469 -0.00390625 4.230469 -0.25 C 3.726562 -0.496094 3.347656 -0.878906 3.085938 -1.398438 C 2.878906 -1.832031 2.765625 -2.269531 2.746094 -2.714844 C 2.726562 -3.15625 2.71875 -3.664062 2.71875 -4.234375 L 2.71875 -14.949219 L 4.300781 -14.949219 L 4.300781 -4.300781 C 4.300781 -3.808594 4.304688 -3.398438 4.316406 -3.070312 C 4.328125 -2.742188 4.402344 -2.453125 4.539062 -2.199219 C 4.800781 -1.714844 5.210938 -1.425781 5.78125 -1.332031 C 6.347656 -1.238281 7.050781 -1.261719 7.886719 -1.398438 L 7.886719 0 M 0.214844 -10.335938 L 0.214844 -11.699219 L 7.886719 -11.699219 L 7.886719 -10.335938 Z "/>
</g>
<g id="glyph-0-5">
<path d="M 5.882812 0.3125 C 4.511719 0.3125 3.382812 0.0195312 2.496094 -0.574219 C 1.613281 -1.167969 1.070312 -1.988281 0.867188 -3.042969 L 2.492188 -3.316406 C 2.664062 -2.652344 3.058594 -2.121094 3.679688 -1.726562 C 4.296875 -1.335938 5.058594 -1.136719 5.96875 -1.136719 C 6.859375 -1.136719 7.558594 -1.324219 8.070312 -1.695312 C 8.582031 -2.066406 8.839844 -2.574219 8.839844 -3.21875 C 8.839844 -3.578125 8.757812 -3.871094 8.597656 -4.101562 C 8.433594 -4.328125 8.101562 -4.539062 7.605469 -4.734375 C 7.105469 -4.929688 6.363281 -5.160156 5.375 -5.425781 C 4.3125 -5.714844 3.480469 -6.003906 2.882812 -6.292969 C 2.28125 -6.582031 1.855469 -6.917969 1.601562 -7.296875 C 1.351562 -7.675781 1.222656 -8.140625 1.222656 -8.6875 C 1.222656 -9.351562 1.410156 -9.9375 1.789062 -10.4375 C 2.164062 -10.941406 2.683594 -11.328125 3.347656 -11.609375 C 4.011719 -11.886719 4.785156 -12.023438 5.664062 -12.023438 C 6.546875 -12.023438 7.335938 -11.882812 8.03125 -11.597656 C 8.730469 -11.3125 9.292969 -10.914062 9.71875 -10.398438 C 10.144531 -9.886719 10.394531 -9.292969 10.476562 -8.613281 L 8.851562 -8.320312 C 8.742188 -9.007812 8.402344 -9.550781 7.828125 -9.949219 C 7.253906 -10.351562 6.523438 -10.558594 5.644531 -10.574219 C 4.8125 -10.59375 4.136719 -10.4375 3.617188 -10.101562 C 3.097656 -9.765625 2.839844 -9.320312 2.839844 -8.765625 C 2.839844 -8.453125 2.933594 -8.1875 3.121094 -7.96875 C 3.308594 -7.746094 3.648438 -7.539062 4.144531 -7.34375 C 4.636719 -7.148438 5.34375 -6.9375 6.261719 -6.707031 C 7.335938 -6.429688 8.183594 -6.140625 8.796875 -5.839844 C 9.410156 -5.535156 9.847656 -5.179688 10.109375 -4.765625 C 10.367188 -4.355469 10.496094 -3.847656 10.496094 -3.238281 C 10.496094 -2.132812 10.085938 -1.265625 9.269531 -0.632812 C 8.449219 0 7.320312 0.3125 5.882812 0.3125 Z "/>
</g>
<g id="glyph-0-6">
</g>
<g id="glyph-0-7">
<path d="M 6.054688 0.324219 C 4.964844 0.324219 4.035156 0.0507812 3.261719 -0.492188 C 2.488281 -1.039062 1.894531 -1.777344 1.484375 -2.707031 C 1.074219 -3.640625 0.867188 -4.691406 0.867188 -5.859375 C 0.867188 -7.023438 1.070312 -8.070312 1.480469 -9.003906 C 1.886719 -9.933594 2.472656 -10.671875 3.238281 -11.210938 C 4.003906 -11.753906 4.921875 -12.023438 5.992188 -12.023438 C 7.089844 -12.023438 8.011719 -11.757812 8.765625 -11.222656 C 9.515625 -10.6875 10.085938 -9.957031 10.46875 -9.03125 C 10.855469 -8.101562 11.050781 -7.046875 11.050781 -5.859375 C 11.050781 -4.699219 10.859375 -3.648438 10.476562 -2.714844 C 10.09375 -1.777344 9.53125 -1.039062 8.785156 -0.492188 C 8.042969 0.0507812 7.132812 0.324219 6.054688 0.324219 M 6.21875 -1.160156 C 7.050781 -1.160156 7.734375 -1.363281 8.277344 -1.765625 C 8.816406 -2.171875 9.222656 -2.726562 9.488281 -3.441406 C 9.757812 -4.152344 9.890625 -4.957031 9.890625 -5.859375 C 9.890625 -6.777344 9.757812 -7.589844 9.488281 -8.292969 C 9.222656 -8.996094 8.820312 -9.546875 8.28125 -9.945312 C 7.742188 -10.34375 7.066406 -10.539062 6.25 -10.539062 C 5.414062 -10.539062 4.71875 -10.335938 4.171875 -9.921875 C 3.621094 -9.511719 3.214844 -8.953125 2.953125 -8.246094 C 2.6875 -7.535156 2.558594 -6.742188 2.558594 -5.859375 C 2.558594 -4.972656 2.691406 -4.171875 2.964844 -3.460938 C 3.234375 -2.75 3.640625 -2.1875 4.183594 -1.777344 C 4.722656 -1.363281 5.402344 -1.160156 6.21875 -1.160156 M 9.890625 0 L 9.890625 -8.808594 L 9.71875 -8.808594 L 9.71875 -15.601562 L 11.320312 -15.601562 L 11.320312 0 Z "/>
</g>
<g id="glyph-0-8">
<path d="M 1.734375 0 L 1.734375 -15.601562 L 3.316406 -15.601562 L 3.324219 0 Z "/>
</g>
</g>
</defs>
<g fill="rgb(100%, 100%, 100%)" fill-opacity="1">
<use xlink:href="#glyph-0-0" x="30" y="43.095703"/>
<use xlink:href="#glyph-0-1" x="43" y="43.095703"/>
<use xlink:href="#glyph-0-2" x="55" y="43.095703"/>
<use xlink:href="#glyph-0-3" x="67" y="43.095703"/>
<use xlink:href="#glyph-0-4" x="79" y="43.095703"/>
<use xlink:href="#glyph-0-2" x="87" y="43.095703"/>
<use xlink:href="#glyph-0-5" x="99" y="43.095703"/>
<use xlink:href="#glyph-0-6" x="110" y="43.095703"/>
<use xlink:href="#glyph-0-7" x="114" y="43.095703"/>
<use xlink:href="#glyph-0-2" x="126" y="43.095703"/>
<use xlink:href="#glyph-0-6" x="138" y="43.095703"/>
<use xlink:href="#glyph-0-8" x="142" y="43.095703"/>
<use xlink:href="#glyph-0-0" x="146" y="43.095703"/>
</g>
</svg>
