<?xml version="1.0" encoding="UTF-8"?>
<svg xmlns="http://www.w3.org/2000/svg" xmlns:xlink="http://www.w3.org/1999/xlink" width="1920" height="1080" viewBox="0 0 1920 1080">
<defs>
<g>
<g id="glyph-0-0">
<path d="M 5.824219 0 L 5.8125 -14.433594 L 0.222656 -14.445312 L 0.222656 -16 L 13.035156 -16 L 13.035156 -14.433594 L 7.433594 -14.445312 L 7.445312 0 Z "/>
</g>
<g id="glyph-0-1">
<path d="M 6.632812 0.332031 C 5.464844 0.332031 4.449219 0.0742188 3.59375 -0.445312 C 2.738281 -0.964844 2.074219 -1.691406 1.601562 -2.632812 C 1.125 -3.574219 0.890625 -4.679688 0.890625 -5.945312 C 0.890625 -7.253906 1.121094 -8.390625 1.589844 -9.34375 C 2.054688 -10.300781 2.714844 -11.039062 3.5625 -11.554688 C 4.410156 -12.074219 5.410156 -12.332031 6.566406 -12.332031 C 7.753906 -12.332031 8.761719 -12.0625 9.601562 -11.515625 C 10.4375 -10.972656 11.070312 -10.191406 11.5 -9.179688 C 11.929688 -8.164062 12.125 -6.953125 12.089844 -5.542969 L 10.421875 -5.542969 L 10.421875 -6.121094 C 10.394531 -7.679688 10.058594 -8.851562 9.417969 -9.644531 C 8.777344 -10.4375 7.839844 -10.832031 6.609375 -10.832031 C 5.324219 -10.832031 4.335938 -10.414062 3.648438 -9.578125 C 2.964844 -8.742188 2.621094 -7.546875 2.621094 -6 C 2.621094 -4.488281 2.964844 -3.316406 3.648438 -2.484375 C 4.335938 -1.648438 5.308594 -1.234375 6.566406 -1.234375 C 7.425781 -1.234375 8.175781 -1.429688 8.816406 -1.828125 C 9.457031 -2.222656 9.964844 -2.796875 10.332031 -3.542969 L 11.855469 -2.957031 C 11.382812 -1.910156 10.683594 -1.101562 9.761719 -0.527344 C 8.839844 0.046875 7.796875 0.332031 6.632812 0.332031 M 2.042969 -5.542969 L 2.042969 -6.910156 L 11.210938 -6.910156 L 11.210938 -5.542969 Z "/>
</g>
<g id="glyph-0-2">
<path d="M 0.222656 0 L 4.910156 -6.066406 L 0.320312 -12 L 2.277344 -12 L 5.867188 -7.324219 L 9.421875 -12 L 11.378906 -12 L 6.789062 -6.066406 L 11.488281 0 L 9.523438 0 L 5.867188 -4.8125 L 2.1875 0 Z "/>
</g>
<g id="glyph-0-3">
<path d="M 8.089844 0 C 7.414062 0.140625 6.75 0.195312 6.09375 0.167969 C 5.4375 0.136719 4.855469 -0.00390625 4.339844 -0.253906 C 3.824219 -0.507812 3.433594 -0.898438 3.167969 -1.433594 C 2.953125 -1.878906 2.835938 -2.328125 2.816406 -2.785156 C 2.796875 -3.238281 2.789062 -3.757812 2.789062 -4.34375 L 2.789062 -15.332031 L 4.410156 -15.332031 L 4.410156 -4.410156 C 4.410156 -3.90625 4.417969 -3.488281 4.429688 -3.148438 C 4.4375 -2.8125 4.515625 -2.515625 4.65625 -2.253906 C 4.921875 -1.757812 5.347656 -1.464844 5.929688 -1.367188 C 6.507812 -1.269531 7.230469 -1.292969 8.089844 -1.433594 L 8.089844 0 M 0.222656 -10.601562 L 0.222656 -12 L 8.089844 -12 L 8.089844 -10.601562 Z "/>
</g>
<g id="glyph-0-4">
<path d="M 6.566406 0.332031 C 5.375 0.332031 4.355469 0.0625 3.511719 -0.476562 C 2.667969 -1.019531 2.019531 -1.765625 1.566406 -2.722656 C 1.113281 -3.679688 0.890625 -4.773438 0.890625 -6.011719 C 0.890625 -7.269531 1.117188 -8.375 1.578125 -9.324219 C 2.035156 -10.269531 2.691406 -11.007812 3.539062 -11.539062 C 4.386719 -12.070312 5.394531 -12.332031 6.566406 -12.332031 C 7.765625 -12.332031 8.789062 -12.066406 9.640625 -11.527344 C 10.488281 -10.992188 11.136719 -10.246094 11.582031 -9.292969 C 12.03125 -8.34375 12.253906 -7.25 12.253906 -6.011719 C 12.253906 -4.75 12.03125 -3.644531 11.578125 -2.695312 C 11.125 -1.742188 10.472656 -1 9.621094 -0.464844 C 8.769531 0.0664062 7.753906 0.332031 6.566406 0.332031 M 6.566406 -1.234375 C 7.898438 -1.234375 8.894531 -1.675781 9.542969 -2.5625 C 10.195312 -3.445312 10.523438 -4.597656 10.523438 -6.011719 C 10.523438 -7.464844 10.195312 -8.617188 9.539062 -9.476562 C 8.882812 -10.335938 7.894531 -10.765625 6.566406 -10.765625 C 5.671875 -10.765625 4.929688 -10.566406 4.351562 -10.160156 C 3.769531 -9.757812 3.335938 -9.199219 3.050781 -8.484375 C 2.765625 -7.769531 2.621094 -6.945312 2.621094 -6.011719 C 2.621094 -4.566406 2.957031 -3.410156 3.621094 -2.539062 C 4.289062 -1.667969 5.269531 -1.234375 6.566406 -1.234375 Z "/>
</g>
</g>
</defs>
<g fill="rgb(100%, 100%, 100%)" fill-opacity="1">
<use xlink:href="#glyph-0-0" x="30" y="43.689453"/>
<use xlink:href="#glyph-0-1" x="41" y="43.689453"/>
<use xlink:href="#glyph-0-2" x="53" y="43.689453"/>
<use xlink:href="#glyph-0-3" x="64" y="43.689453"/>
<use xlink:href="#glyph-0-4" x="72" y="43.689453"/>
</g>
</svg>
