<?xml version="1.0" encoding="UTF-8"?>
<svg xmlns="http://www.w3.org/2000/svg" xmlns:xlink="http://www.w3.org/1999/xlink" width="1920" height="1080" viewBox="0 0 1920 1080">
<defs>
<g>
<g id="glyph-0-0">
<path d="M 1.167969 0 L 1.167969 -12 L 8.660156 -12 L 8.667969 -10.824219 L 2.382812 -10.832031 L 2.390625 -6.675781 L 7.660156 -6.667969 L 7.667969 -5.5 L 2.382812 -5.507812 L 2.390625 -1.175781 L 8.660156 -1.167969 L 8.667969 0 Z "/>
</g>
<g id="glyph-0-1">
<path d="M 4.660156 0.25 C 3.820312 0.25 3.101562 0.0390625 2.507812 -0.378906 C 1.914062 -0.796875 1.457031 -1.367188 1.140625 -2.082031 C 0.824219 -2.800781 0.667969 -3.609375 0.667969 -4.507812 C 0.667969 -5.402344 0.824219 -6.207031 1.136719 -6.925781 C 1.453125 -7.640625 1.902344 -8.207031 2.492188 -8.625 C 3.082031 -9.042969 3.785156 -9.25 4.609375 -9.25 C 5.453125 -9.25 6.164062 -9.042969 6.742188 -8.632812 C 7.320312 -8.222656 7.757812 -7.660156 8.054688 -6.945312 C 8.351562 -6.230469 8.5 -5.417969 8.5 -4.507812 C 8.5 -3.613281 8.351562 -2.808594 8.058594 -2.085938 C 7.765625 -1.367188 7.332031 -0.796875 6.757812 -0.378906 C 6.1875 0.0390625 5.484375 0.25 4.660156 0.25 M 4.785156 -0.890625 C 5.421875 -0.890625 5.949219 -1.046875 6.367188 -1.359375 C 6.785156 -1.667969 7.09375 -2.097656 7.300781 -2.644531 C 7.503906 -3.191406 7.609375 -3.8125 7.609375 -4.507812 C 7.609375 -5.214844 7.503906 -5.835938 7.300781 -6.378906 C 7.09375 -6.921875 6.785156 -7.34375 6.371094 -7.648438 C 5.957031 -7.957031 5.4375 -8.109375 4.808594 -8.109375 C 4.164062 -8.109375 3.628906 -7.949219 3.207031 -7.632812 C 2.785156 -7.316406 2.472656 -6.886719 2.269531 -6.339844 C 2.066406 -5.796875 1.964844 -5.1875 1.964844 -4.507812 C 1.964844 -3.824219 2.070312 -3.210938 2.277344 -2.664062 C 2.488281 -2.117188 2.800781 -1.683594 3.214844 -1.367188 C 3.632812 -1.050781 4.15625 -0.890625 4.785156 -0.890625 M 7.609375 0 L 7.609375 -6.773438 L 7.476562 -6.773438 L 7.476562 -12 L 8.707031 -12 L 8.707031 0 Z "/>
</g>
<g id="glyph-0-2">
<path d="M 1.332031 -10.707031 L 1.332031 -12.082031 L 2.550781 -12.074219 L 2.558594 -10.707031 L 1.332031 -10.707031 M 1.332031 0 L 1.332031 -9 L 2.550781 -9 L 2.558594 0 Z "/>
</g>
<g id="glyph-0-3">
<path d="M 6.066406 0 C 5.5625 0.105469 5.0625 0.148438 4.570312 0.125 C 4.078125 0.101562 3.640625 -0.00390625 3.253906 -0.191406 C 2.867188 -0.378906 2.574219 -0.675781 2.375 -1.074219 C 2.214844 -1.410156 2.125 -1.746094 2.113281 -2.085938 C 2.097656 -2.429688 2.089844 -2.820312 2.089844 -3.257812 L 2.089844 -11.5 L 3.308594 -11.5 L 3.308594 -3.308594 C 3.308594 -2.929688 3.3125 -2.617188 3.320312 -2.363281 C 3.328125 -2.109375 3.386719 -1.886719 3.492188 -1.691406 C 3.691406 -1.320312 4.007812 -1.097656 4.445312 -1.023438 C 4.882812 -0.953125 5.421875 -0.96875 6.066406 -1.074219 L 6.066406 0 M 0.167969 -7.949219 L 0.167969 -9 L 6.066406 -9 L 6.066406 -7.949219 Z "/>
</g>
<g id="glyph-0-4">
<path d="M 4.925781 0.25 C 4.03125 0.25 3.265625 0.046875 2.632812 -0.359375 C 2 -0.765625 1.515625 -1.324219 1.175781 -2.042969 C 0.835938 -2.757812 0.667969 -3.582031 0.667969 -4.507812 C 0.667969 -5.453125 0.839844 -6.28125 1.183594 -6.992188 C 1.527344 -7.703125 2.019531 -8.257812 2.652344 -8.652344 C 3.289062 -9.050781 4.046875 -9.25 4.925781 -9.25 C 5.824219 -9.25 6.59375 -9.046875 7.230469 -8.644531 C 7.867188 -8.242188 8.351562 -7.683594 8.6875 -6.972656 C 9.023438 -6.257812 9.191406 -5.4375 9.191406 -4.507812 C 9.191406 -3.5625 9.023438 -2.734375 8.683594 -2.019531 C 8.34375 -1.308594 7.855469 -0.75 7.214844 -0.351562 C 6.578125 0.0507812 5.8125 0.25 4.925781 0.25 M 4.925781 -0.925781 C 5.925781 -0.925781 6.667969 -1.257812 7.160156 -1.921875 C 7.648438 -2.585938 7.890625 -3.445312 7.890625 -4.507812 C 7.890625 -5.597656 7.644531 -6.464844 7.152344 -7.109375 C 6.664062 -7.753906 5.917969 -8.074219 4.925781 -8.074219 C 4.253906 -8.074219 3.699219 -7.921875 3.261719 -7.621094 C 2.828125 -7.316406 2.5 -6.898438 2.289062 -6.363281 C 2.074219 -5.828125 1.964844 -5.207031 1.964844 -4.507812 C 1.964844 -3.425781 2.214844 -2.558594 2.714844 -1.902344 C 3.214844 -1.25 3.953125 -0.925781 4.925781 -0.925781 Z "/>
</g>
<g id="glyph-0-5">
<path d="M 1.167969 0 L 1.167969 -9 L 2.265625 -9 L 2.265625 -6.832031 L 2.050781 -7.117188 C 2.148438 -7.382812 2.28125 -7.628906 2.441406 -7.855469 C 2.601562 -8.078125 2.777344 -8.265625 2.964844 -8.410156 C 3.199219 -8.613281 3.472656 -8.769531 3.785156 -8.878906 C 4.09375 -8.988281 4.410156 -9.050781 4.726562 -9.070312 C 5.042969 -9.089844 5.332031 -9.066406 5.589844 -9 L 5.589844 -7.851562 C 5.265625 -7.933594 4.90625 -7.953125 4.515625 -7.910156 C 4.128906 -7.863281 3.769531 -7.707031 3.441406 -7.441406 C 3.140625 -7.207031 2.917969 -6.929688 2.765625 -6.605469 C 2.617188 -6.277344 2.515625 -5.933594 2.464844 -5.570312 C 2.417969 -5.207031 2.390625 -4.847656 2.390625 -4.492188 L 2.390625 0 Z "/>
</g>
<g id="glyph-0-6">
<path d="M 3.742188 0.25 C 3.0625 0.25 2.496094 0.128906 2.039062 -0.117188 C 1.578125 -0.359375 1.234375 -0.6875 1.007812 -1.089844 C 0.78125 -1.496094 0.667969 -1.9375 0.667969 -2.417969 C 0.667969 -2.90625 0.765625 -3.324219 0.960938 -3.671875 C 1.160156 -4.019531 1.429688 -4.304688 1.769531 -4.523438 C 2.113281 -4.746094 2.507812 -4.917969 2.957031 -5.035156 C 3.414062 -5.144531 3.917969 -5.242188 4.472656 -5.328125 C 5.023438 -5.414062 5.566406 -5.492188 6.097656 -5.554688 C 6.625 -5.617188 7.089844 -5.679688 7.492188 -5.742188 L 7.058594 -5.476562 C 7.074219 -6.363281 6.902344 -7.023438 6.542969 -7.449219 C 6.179688 -7.878906 5.554688 -8.089844 4.660156 -8.089844 C 4.042969 -8.089844 3.519531 -7.953125 3.097656 -7.675781 C 2.671875 -7.398438 2.371094 -6.957031 2.199219 -6.359375 L 1.007812 -6.707031 C 1.214844 -7.515625 1.628906 -8.140625 2.25 -8.582031 C 2.871094 -9.027344 3.679688 -9.25 4.675781 -9.25 C 5.496094 -9.25 6.195312 -9.097656 6.769531 -8.789062 C 7.347656 -8.480469 7.753906 -8.035156 7.992188 -7.449219 C 8.101562 -7.1875 8.175781 -6.898438 8.207031 -6.574219 C 8.242188 -6.253906 8.257812 -5.925781 8.257812 -5.589844 L 8.257812 0 L 7.167969 0 L 7.167969 -2.257812 L 7.484375 -2.125 C 7.179688 -1.351562 6.703125 -0.765625 6.058594 -0.359375 C 5.414062 0.046875 4.640625 0.25 3.742188 0.25 M 3.882812 -0.808594 C 4.457031 -0.808594 4.957031 -0.910156 5.382812 -1.117188 C 5.8125 -1.320312 6.15625 -1.605469 6.417969 -1.960938 C 6.679688 -2.320312 6.847656 -2.726562 6.925781 -3.175781 C 6.992188 -3.464844 7.027344 -3.78125 7.035156 -4.128906 C 7.039062 -4.476562 7.042969 -4.734375 7.042969 -4.910156 L 7.507812 -4.667969 C 7.089844 -4.609375 6.640625 -4.554688 6.152344 -4.5 C 5.667969 -4.445312 5.191406 -4.378906 4.722656 -4.308594 C 4.25 -4.234375 3.828125 -4.148438 3.449219 -4.050781 C 3.195312 -3.976562 2.945312 -3.875 2.707031 -3.746094 C 2.46875 -3.617188 2.273438 -3.441406 2.121094 -3.226562 C 1.96875 -3.007812 1.890625 -2.738281 1.890625 -2.417969 C 1.890625 -2.15625 1.957031 -1.902344 2.085938 -1.660156 C 2.21875 -1.414062 2.429688 -1.210938 2.722656 -1.050781 C 3.011719 -0.890625 3.398438 -0.808594 3.882812 -0.808594 Z "/>
</g>
</g>
</defs>
<g fill="rgb(66.666667%, 46.666667%, 78.039216%)" fill-opacity="1">
<use xlink:href="#glyph-0-0" x="30" y="37.765625"/>
<use xlink:href="#glyph-0-1" x="39" y="37.765625"/>
<use xlink:href="#glyph-0-2" x="49" y="37.765625"/>
<use xlink:href="#glyph-0-3" x="52" y="37.765625"/>
<use xlink:href="#glyph-0-4" x="58" y="37.765625"/>
<use xlink:href="#glyph-0-5" x="68" y="37.765625"/>
<use xlink:href="#glyph-0-6" x="73" y="37.765625"/>
</g>
</svg>
